<svg id="svg" version="1.1" xmlns="http://www.w3.org/2000/svg" xmlns:xlink="http://www.w3.org/1999/xlink" width="400" height="400" viewBox="0, 0, 400,400"><g id="svgg"><path id="path0" d="M185.741 1.190 C 185.553 1.361,183.420 1.605,181.000 1.733 C 178.580 1.860,175.700 2.143,174.600 2.361 C 173.500 2.579,171.610 2.874,170.400 3.016 C 167.325 3.377,167.076 3.422,166.400 3.732 C 166.070 3.884,165.215 3.940,164.500 3.857 C 163.785 3.773,163.200 3.842,163.200 4.010 C 163.200 4.178,162.525 4.408,161.700 4.521 C 160.089 4.740,159.408 4.868,156.000 5.592 C 154.790 5.849,153.620 6.096,153.400 6.141 C 153.180 6.186,152.820 6.332,152.600 6.466 C 152.380 6.599,151.255 6.836,150.100 6.992 C 148.945 7.148,148.000 7.438,148.000 7.638 C 148.000 7.837,147.554 8.000,147.008 8.000 C 146.463 8.000,145.338 8.241,144.508 8.536 C 142.124 9.384,139.178 10.273,136.900 10.834 C 135.745 11.119,134.800 11.497,134.800 11.676 C 134.800 11.854,134.503 12.000,134.141 12.000 C 133.425 12.000,128.849 13.557,128.200 14.021 C 127.980 14.179,127.215 14.433,126.500 14.586 C 125.785 14.738,125.200 15.044,125.200 15.265 C 125.200 15.486,124.975 15.587,124.700 15.490 C 124.425 15.392,123.187 15.819,121.948 16.438 C 120.710 17.057,119.585 17.451,119.448 17.315 C 119.312 17.178,119.200 17.292,119.200 17.567 C 119.200 17.842,118.977 17.992,118.704 17.901 C 118.431 17.810,117.968 17.975,117.675 18.268 C 117.382 18.561,116.796 18.800,116.371 18.800 C 115.947 18.800,115.600 18.966,115.600 19.168 C 115.600 19.371,115.060 19.655,114.400 19.800 C 113.740 19.945,113.200 20.229,113.200 20.432 C 113.200 20.634,112.926 20.800,112.592 20.800 C 112.258 20.800,111.313 21.215,110.492 21.722 C 109.671 22.229,107.920 23.159,106.600 23.789 C 105.280 24.419,104.056 25.174,103.880 25.467 C 103.704 25.760,103.249 26.000,102.869 26.000 C 102.489 26.000,101.786 26.275,101.307 26.610 C 100.828 26.946,99.123 27.961,97.518 28.867 C 95.913 29.773,94.510 30.627,94.400 30.765 C 94.290 30.903,93.750 31.236,93.200 31.505 C 91.892 32.145,90.825 32.841,89.868 33.680 C 89.441 34.054,88.501 34.641,87.778 34.984 C 87.056 35.326,86.405 35.740,86.332 35.904 C 86.190 36.222,84.716 37.294,81.209 39.629 C 79.994 40.438,78.542 41.560,77.982 42.123 C 77.422 42.685,76.734 43.203,76.454 43.273 C 76.174 43.343,75.268 44.030,74.440 44.800 C 72.435 46.664,70.787 48.000,70.492 48.000 C 70.360 48.000,69.430 48.799,68.426 49.775 C 67.422 50.751,65.807 52.236,64.839 53.075 C 62.343 55.236,53.600 64.115,53.600 64.489 C 53.600 64.660,53.330 64.800,53.000 64.800 C 52.670 64.800,52.400 64.993,52.400 65.229 C 52.400 65.464,52.175 65.903,51.900 66.204 C 51.625 66.504,50.500 67.776,49.400 69.030 C 48.300 70.283,46.725 72.025,45.900 72.901 C 45.075 73.777,44.400 74.644,44.400 74.827 C 44.400 75.010,44.165 75.304,43.878 75.480 C 43.591 75.656,42.923 76.520,42.395 77.400 C 41.866 78.280,41.229 79.180,40.979 79.400 C 40.729 79.620,40.100 80.430,39.581 81.200 C 39.063 81.970,38.450 82.728,38.219 82.885 C 37.989 83.042,37.800 83.325,37.800 83.514 C 37.800 83.703,37.530 84.142,37.200 84.491 C 36.304 85.436,32.200 91.211,32.199 91.526 C 32.199 91.677,31.794 92.368,31.299 93.062 C 30.805 93.756,30.400 94.493,30.400 94.700 C 30.400 94.906,29.950 95.599,29.400 96.238 C 28.851 96.877,28.401 97.552,28.400 97.738 C 28.400 97.924,28.045 98.575,27.612 99.183 C 27.178 99.792,26.938 100.405,27.078 100.545 C 27.219 100.685,27.160 100.800,26.949 100.800 C 26.737 100.800,25.954 101.988,25.210 103.440 C 24.465 104.892,23.619 106.171,23.330 106.282 C 23.041 106.393,22.905 106.646,23.028 106.845 C 23.150 107.043,22.885 107.720,22.437 108.348 C 21.990 108.976,21.738 109.605,21.878 109.745 C 22.019 109.885,21.923 110.000,21.667 110.000 C 21.410 110.000,21.196 110.315,21.191 110.700 C 21.186 111.085,20.830 111.850,20.400 112.400 C 19.970 112.950,19.614 113.715,19.609 114.100 C 19.604 114.485,19.409 114.800,19.176 114.800 C 18.943 114.800,18.853 114.963,18.976 115.161 C 19.099 115.360,18.754 116.395,18.209 117.461 C 17.235 119.367,16.462 121.135,14.959 124.899 C 14.541 125.943,14.054 126.798,13.876 126.799 C 13.698 126.799,13.660 126.974,13.792 127.186 C 13.923 127.399,13.671 128.276,13.232 129.137 C 12.793 129.997,12.547 130.813,12.684 130.950 C 12.821 131.088,12.723 131.200,12.467 131.200 C 12.210 131.200,12.001 131.515,12.002 131.900 C 12.005 132.844,10.697 136.535,10.245 136.860 C 10.046 137.002,9.994 137.407,10.129 137.760 C 10.264 138.112,10.201 138.400,9.987 138.400 C 9.774 138.400,9.600 138.748,9.600 139.174 C 9.600 139.600,9.392 140.455,9.137 141.074 C 8.883 141.693,8.714 142.515,8.763 142.900 C 8.811 143.285,8.679 143.600,8.469 143.600 C 8.259 143.600,7.992 144.185,7.875 144.900 C 7.758 145.615,7.359 147.190,6.987 148.400 C 6.616 149.610,5.961 152.220,5.532 154.200 C 5.103 156.180,4.573 158.520,4.354 159.400 C 4.134 160.280,3.965 161.423,3.976 161.940 C 3.988 162.457,3.863 163.087,3.699 163.340 C 3.387 163.821,3.318 164.269,2.944 168.200 C 2.819 169.520,2.578 170.690,2.408 170.800 C 2.090 171.006,1.188 178.885,1.031 182.823 C 0.982 184.046,0.820 185.245,0.670 185.487 C 0.321 186.052,0.388 214.800,0.738 214.800 C 0.882 214.800,1.029 215.835,1.064 217.100 C 1.099 218.365,1.339 221.020,1.597 223.000 C 1.855 224.980,2.096 227.347,2.133 228.261 C 2.170 229.174,2.311 229.854,2.446 229.771 C 2.581 229.688,2.795 230.740,2.920 232.110 C 3.046 233.479,3.272 235.050,3.422 235.600 C 3.573 236.150,3.753 237.140,3.824 237.800 C 3.894 238.460,4.126 239.571,4.339 240.270 C 4.552 240.968,4.628 241.639,4.506 241.760 C 4.385 241.881,4.487 242.222,4.732 242.518 C 4.977 242.813,5.294 244.033,5.436 245.228 C 5.578 246.422,5.829 247.670,5.993 248.000 C 6.158 248.330,6.217 248.809,6.125 249.063 C 6.033 249.318,6.147 249.644,6.379 249.787 C 6.610 249.930,6.800 250.496,6.800 251.043 C 6.800 251.591,7.049 252.526,7.353 253.120 C 7.657 253.714,8.039 255.003,8.202 255.985 C 8.365 256.966,8.643 258.046,8.819 258.385 C 9.309 259.328,11.658 266.458,11.888 267.700 C 11.999 268.305,12.250 268.800,12.445 268.800 C 12.640 268.800,12.757 268.935,12.705 269.100 C 12.597 269.441,13.718 272.441,15.209 275.800 C 15.404 276.240,16.012 277.680,16.559 279.000 C 17.106 280.320,17.919 282.102,18.364 282.959 C 18.810 283.817,19.079 284.672,18.963 284.859 C 18.848 285.047,18.943 285.200,19.176 285.200 C 19.409 285.200,19.600 285.462,19.600 285.782 C 19.600 286.103,20.126 287.257,20.769 288.347 C 21.412 289.437,21.832 290.435,21.702 290.565 C 21.573 290.694,21.677 290.800,21.933 290.800 C 22.190 290.800,22.400 291.136,22.400 291.546 C 22.400 291.956,22.748 292.735,23.174 293.276 C 23.600 293.818,24.382 295.057,24.913 296.030 C 25.444 297.004,26.659 299.240,27.613 301.000 C 28.568 302.760,29.554 304.327,29.805 304.481 C 30.056 304.636,30.590 305.491,30.991 306.381 C 31.393 307.272,31.904 308.000,32.127 308.000 C 32.351 308.000,32.418 308.115,32.278 308.256 C 32.137 308.396,32.470 309.071,33.017 309.756 C 34.304 311.365,34.381 311.472,35.800 313.600 C 36.948 315.323,37.162 315.611,38.300 316.969 C 38.575 317.298,38.800 317.662,38.800 317.779 C 38.800 317.986,39.751 319.214,40.648 320.164 C 40.895 320.425,41.379 321.187,41.725 321.856 C 42.071 322.525,42.812 323.506,43.370 324.036 C 43.929 324.566,44.389 325.120,44.393 325.266 C 44.397 325.412,44.985 326.154,45.700 326.915 C 46.415 327.676,47.924 329.392,49.053 330.729 C 50.183 332.066,51.218 333.049,51.353 332.913 C 51.489 332.778,51.600 333.087,51.600 333.600 C 51.600 334.113,51.699 334.434,51.821 334.313 C 51.942 334.191,52.977 335.088,54.121 336.306 C 57.782 340.203,63.269 345.600,63.572 345.600 C 63.733 345.600,64.104 346.047,64.396 346.593 C 64.689 347.140,65.214 347.682,65.564 347.799 C 65.914 347.915,67.148 348.908,68.306 350.005 C 69.464 351.102,70.515 352.000,70.640 352.000 C 70.766 352.000,71.502 352.585,72.276 353.300 C 73.051 354.015,74.174 355.050,74.773 355.600 C 75.372 356.150,76.028 356.644,76.231 356.697 C 76.434 356.750,76.917 357.065,77.305 357.397 C 77.692 357.729,78.144 358.000,78.308 358.000 C 78.473 358.000,78.832 358.360,79.107 358.800 C 79.382 359.240,79.777 359.600,79.985 359.600 C 80.193 359.600,81.529 360.455,82.954 361.500 C 84.379 362.545,86.741 364.210,88.205 365.200 C 89.668 366.190,91.217 367.322,91.647 367.715 C 92.077 368.108,92.603 368.322,92.815 368.191 C 93.027 368.060,93.200 368.143,93.200 368.376 C 93.200 368.609,93.392 368.800,93.627 368.800 C 93.861 368.800,94.671 369.271,95.427 369.847 C 96.182 370.424,96.805 370.739,96.812 370.547 C 96.819 370.356,97.011 370.521,97.240 370.914 C 97.469 371.307,98.363 371.912,99.228 372.258 C 100.093 372.604,100.800 373.047,100.800 373.243 C 100.800 373.440,101.141 373.600,101.557 373.600 C 101.974 373.600,102.405 373.836,102.516 374.124 C 102.626 374.413,103.417 374.858,104.273 375.115 C 105.128 375.371,106.186 375.914,106.623 376.321 C 107.060 376.728,107.638 376.987,107.909 376.897 C 108.179 376.807,108.400 376.939,108.400 377.190 C 108.400 377.442,108.550 377.555,108.733 377.441 C 108.916 377.328,109.726 377.684,110.533 378.232 C 111.340 378.780,112.000 379.104,112.000 378.952 C 112.000 378.800,112.379 379.019,112.842 379.438 C 113.305 379.857,113.800 380.184,113.942 380.164 C 114.498 380.085,115.600 380.510,115.600 380.802 C 115.600 380.972,116.235 381.230,117.011 381.376 C 117.787 381.521,118.318 381.809,118.190 382.016 C 118.063 382.222,118.220 382.291,118.539 382.168 C 118.858 382.046,119.238 382.138,119.383 382.373 C 119.528 382.608,119.984 382.800,120.395 382.800 C 120.806 382.800,121.426 383.083,121.771 383.429 C 122.117 383.774,122.400 383.944,122.400 383.806 C 122.400 383.668,122.781 383.821,123.246 384.147 C 123.711 384.473,124.341 384.644,124.646 384.527 C 124.951 384.410,125.200 384.499,125.200 384.725 C 125.200 384.951,125.785 385.262,126.500 385.414 C 127.215 385.567,127.980 385.822,128.200 385.981 C 128.420 386.140,129.770 386.677,131.200 387.174 C 132.630 387.671,134.160 388.238,134.600 388.434 C 135.040 388.630,136.390 389.054,137.600 389.377 C 141.282 390.359,141.600 390.479,141.600 390.890 C 141.600 391.113,142.037 391.177,142.600 391.036 C 143.150 390.898,143.600 390.938,143.600 391.126 C 143.600 391.313,143.825 391.476,144.100 391.487 C 144.375 391.499,145.410 391.725,146.400 391.990 C 147.390 392.256,149.190 392.711,150.400 393.003 C 151.610 393.294,152.600 393.562,152.600 393.597 C 152.600 393.673,153.091 393.790,156.000 394.408 C 159.408 395.132,160.089 395.260,161.700 395.479 C 162.525 395.592,163.200 395.809,163.200 395.963 C 163.200 396.116,163.920 396.211,164.800 396.173 C 165.680 396.135,166.400 396.258,166.400 396.447 C 166.400 396.636,166.805 396.774,167.300 396.754 C 168.744 396.694,173.363 397.284,173.800 397.584 C 174.020 397.735,175.010 397.904,176.000 397.958 C 176.990 398.013,179.870 398.252,182.400 398.491 C 188.133 399.032,212.016 399.003,217.400 398.448 C 219.600 398.221,222.300 397.985,223.400 397.923 C 224.500 397.861,225.490 397.694,225.600 397.552 C 225.710 397.411,227.060 397.166,228.600 397.009 C 232.323 396.629,233.400 396.494,233.400 396.406 C 233.400 396.313,234.483 396.133,237.000 395.806 C 238.100 395.664,239.270 395.442,239.600 395.313 C 239.930 395.185,240.560 395.026,241.000 394.961 C 242.614 394.721,245.822 393.944,246.600 393.604 C 247.040 393.412,248.300 393.136,249.400 392.990 C 250.500 392.844,251.580 392.587,251.800 392.418 C 252.020 392.249,252.740 391.965,253.400 391.788 C 255.016 391.353,255.153 391.315,255.500 391.203 C 255.665 391.149,255.964 391.136,256.165 391.174 C 256.541 391.245,258.062 390.718,260.260 389.753 C 260.954 389.449,261.949 389.200,262.471 389.200 C 262.994 389.200,263.799 388.936,264.260 388.613 C 264.721 388.290,265.886 387.903,266.849 387.752 C 267.812 387.602,268.690 387.371,268.800 387.239 C 269.145 386.826,271.751 385.639,272.904 385.369 C 273.511 385.228,274.106 384.951,274.227 384.756 C 274.348 384.560,274.706 384.400,275.022 384.400 C 275.338 384.400,276.960 383.770,278.626 383.001 C 280.292 382.231,282.093 381.491,282.628 381.357 C 283.163 381.223,283.600 380.953,283.600 380.757 C 283.600 380.560,283.838 380.400,284.130 380.400 C 284.421 380.400,286.041 379.685,287.730 378.811 C 289.418 377.937,290.800 377.335,290.800 377.473 C 290.800 377.611,291.115 377.447,291.500 377.109 C 291.885 376.771,292.605 376.371,293.100 376.220 C 293.595 376.070,294.000 375.793,294.000 375.605 C 294.000 375.417,294.540 375.145,295.200 375.000 C 295.860 374.855,296.400 374.588,296.400 374.407 C 296.400 374.226,296.895 373.873,297.500 373.623 C 299.338 372.863,300.956 371.936,301.830 371.145 C 302.286 370.731,302.781 370.514,302.930 370.663 C 303.078 370.812,303.200 370.723,303.200 370.467 C 303.200 370.210,303.476 370.000,303.813 370.000 C 304.149 370.000,304.529 369.730,304.655 369.400 C 304.782 369.070,305.118 368.800,305.403 368.800 C 305.687 368.800,306.856 368.170,308.000 367.400 C 309.144 366.630,310.197 365.993,310.340 365.984 C 310.483 365.975,311.223 365.435,311.985 364.784 C 312.747 364.133,313.602 363.600,313.885 363.600 C 314.168 363.600,314.400 363.390,314.400 363.133 C 314.400 362.877,314.519 362.786,314.664 362.931 C 314.809 363.076,315.182 362.833,315.491 362.391 C 315.801 361.948,316.222 361.690,316.427 361.817 C 316.632 361.944,316.800 361.851,316.800 361.611 C 316.800 361.371,317.111 361.056,317.491 360.910 C 317.871 360.764,318.564 360.232,319.031 359.729 C 319.498 359.225,319.993 358.926,320.130 359.064 C 320.268 359.202,320.495 359.019,320.633 358.657 C 320.772 358.296,321.046 358.000,321.243 358.000 C 321.439 358.000,321.947 357.685,322.371 357.300 C 323.876 355.935,324.547 355.395,325.235 355.000 C 325.617 354.780,326.571 354.015,327.354 353.300 C 328.138 352.585,328.880 352.000,329.004 352.000 C 329.247 352.000,331.500 349.911,337.630 344.000 C 343.568 338.275,343.652 338.191,345.800 335.815 C 346.900 334.599,348.699 332.657,349.798 331.502 C 350.897 330.346,351.797 329.282,351.798 329.138 C 351.799 328.994,352.475 328.125,353.300 327.206 C 354.125 326.287,354.800 325.382,354.800 325.194 C 354.800 325.007,355.174 324.735,355.630 324.590 C 356.087 324.446,356.365 324.232,356.249 324.116 C 356.133 324.000,356.255 323.662,356.519 323.366 C 357.572 322.187,358.000 321.624,358.000 321.417 C 358.000 321.298,358.279 320.885,358.619 320.500 C 359.958 318.986,363.600 313.968,363.600 313.637 C 363.600 313.444,363.872 313.181,364.204 313.054 C 364.536 312.927,364.761 312.672,364.704 312.489 C 364.574 312.073,366.491 309.206,366.900 309.203 C 367.065 309.201,367.200 308.930,367.200 308.600 C 367.200 308.270,367.336 308.000,367.502 308.000 C 367.669 308.000,368.063 307.415,368.378 306.700 C 368.693 305.985,369.187 305.162,369.475 304.871 C 369.764 304.581,370.000 304.095,370.000 303.791 C 370.000 303.488,370.225 303.096,370.500 302.920 C 370.992 302.605,372.081 300.725,374.274 296.400 C 374.887 295.190,375.495 294.110,375.624 294.000 C 376.120 293.577,382.846 279.450,384.003 276.400 C 384.295 275.630,384.668 274.820,384.831 274.600 C 384.995 274.380,385.253 273.531,385.406 272.714 C 385.559 271.897,385.935 271.020,386.242 270.765 C 386.549 270.510,386.800 269.863,386.800 269.327 C 386.800 268.791,386.957 268.450,387.150 268.569 C 387.343 268.688,387.500 268.368,387.500 267.859 C 387.500 267.349,387.771 266.317,388.101 265.566 C 388.432 264.815,389.188 262.580,389.781 260.600 C 390.374 258.620,391.003 256.723,391.180 256.385 C 391.357 256.046,391.629 255.011,391.786 254.085 C 391.942 253.158,392.234 252.400,392.435 252.400 C 392.636 252.400,392.766 252.265,392.725 252.100 C 392.556 251.419,393.300 247.600,393.602 247.600 C 393.782 247.600,393.880 247.146,393.819 246.590 C 393.758 246.035,393.864 245.484,394.054 245.367 C 394.244 245.249,394.400 244.563,394.400 243.843 C 394.400 243.123,394.535 242.398,394.700 242.233 C 394.865 242.068,395.011 241.813,395.024 241.667 C 395.164 240.122,395.728 236.751,396.006 235.800 C 396.453 234.271,396.707 232.553,397.040 228.800 C 397.186 227.150,397.454 225.612,397.634 225.382 C 397.815 225.151,397.959 224.611,397.954 224.182 C 397.926 221.676,398.563 214.454,398.800 214.600 C 398.954 214.695,399.098 208.209,399.119 200.187 C 399.140 192.164,399.014 185.600,398.838 185.600 C 398.663 185.600,398.394 183.223,398.241 180.318 C 398.087 177.413,397.812 174.848,397.629 174.618 C 397.446 174.388,397.165 172.760,397.005 171.000 C 396.845 169.240,396.625 167.440,396.515 167.000 C 396.405 166.560,396.272 165.750,396.218 165.200 C 396.164 164.650,396.016 163.930,395.890 163.600 C 395.651 162.977,395.257 160.931,395.043 159.200 C 394.975 158.650,394.794 157.913,394.641 157.561 C 394.487 157.210,394.301 156.400,394.226 155.761 C 394.152 155.123,394.051 154.510,394.001 154.400 C 393.952 154.290,393.944 153.795,393.984 153.300 C 394.024 152.805,393.864 152.400,393.629 152.400 C 393.393 152.400,393.200 151.980,393.200 151.467 C 393.200 150.953,393.079 150.412,392.930 150.264 C 392.782 150.116,392.620 149.591,392.569 149.097 C 392.439 147.830,391.609 144.761,391.119 143.738 C 390.892 143.264,390.820 142.692,390.959 142.466 C 391.099 142.240,391.045 141.951,390.839 141.824 C 390.633 141.697,390.074 140.289,389.597 138.696 C 389.121 137.103,388.476 135.233,388.165 134.540 C 387.854 133.846,387.600 132.801,387.600 132.216 C 387.600 131.609,387.428 131.259,387.200 131.400 C 386.974 131.540,386.800 131.214,386.800 130.652 C 386.800 130.105,386.530 129.387,386.200 129.057 C 385.870 128.727,385.600 128.124,385.600 127.718 C 385.600 127.311,385.327 126.588,384.993 126.111 C 384.659 125.634,384.417 125.099,384.455 124.922 C 384.522 124.610,383.581 122.343,381.978 118.956 C 381.550 118.052,381.200 117.107,381.200 116.856 C 381.200 116.605,381.020 116.400,380.800 116.400 C 380.580 116.400,380.400 116.121,380.400 115.781 C 380.400 115.114,379.762 113.739,377.485 109.500 C 376.688 108.015,376.162 106.794,376.318 106.787 C 376.473 106.780,376.311 106.555,375.958 106.286 C 375.605 106.017,375.176 105.348,375.004 104.798 C 374.833 104.249,374.581 103.710,374.446 103.600 C 374.138 103.349,373.091 101.544,371.896 99.200 C 371.004 97.450,369.633 95.205,369.209 94.800 C 369.094 94.690,368.775 94.195,368.500 93.700 C 367.259 91.465,366.957 90.992,366.300 90.245 C 365.915 89.807,365.600 89.290,365.600 89.096 C 365.600 88.902,365.375 88.492,365.100 88.185 C 364.007 86.966,363.600 86.423,363.600 86.180 C 363.600 86.041,362.970 85.191,362.200 84.292 C 361.430 83.392,360.800 82.489,360.800 82.286 C 360.800 82.082,360.350 81.561,359.800 81.129 C 359.250 80.696,358.800 80.182,358.800 79.987 C 358.800 79.464,355.542 75.200,355.142 75.200 C 354.954 75.200,354.800 75.045,354.800 74.856 C 354.800 74.667,354.170 73.844,353.400 73.027 C 352.630 72.211,352.000 71.388,352.000 71.198 C 352.000 71.008,351.017 69.806,349.817 68.526 C 346.561 65.057,346.001 64.400,346.303 64.400 C 346.454 64.400,346.133 64.089,345.589 63.709 C 345.045 63.329,344.150 62.481,343.600 61.825 C 343.050 61.169,342.267 60.355,341.859 60.016 C 341.452 59.677,339.534 57.870,337.597 56.000 C 331.506 50.120,327.474 46.605,323.627 43.823 C 322.732 43.176,322.000 42.501,322.000 42.323 C 322.000 42.145,321.724 42.000,321.387 42.000 C 321.051 42.000,320.672 41.731,320.546 41.402 C 320.419 41.074,320.169 40.895,319.990 41.006 C 319.811 41.117,319.309 40.756,318.874 40.204 C 318.440 39.652,317.892 39.200,317.656 39.200 C 317.420 39.200,316.681 38.666,316.014 38.013 C 315.346 37.361,314.800 36.911,314.800 37.015 C 314.800 37.232,308.505 33.130,307.583 32.313 C 307.243 32.012,306.388 31.527,305.683 31.234 C 304.977 30.942,304.400 30.545,304.400 30.351 C 304.400 30.158,304.130 30.000,303.800 30.000 C 303.470 30.000,303.200 29.790,303.200 29.533 C 303.200 29.277,303.091 29.176,302.957 29.309 C 302.824 29.443,302.347 29.209,301.897 28.790 C 301.447 28.371,300.926 28.122,300.739 28.237 C 300.553 28.353,300.400 28.299,300.400 28.118 C 300.400 27.789,299.561 27.271,297.500 26.328 C 296.895 26.051,296.400 25.704,296.400 25.556 C 296.400 25.408,295.935 25.170,295.367 25.027 C 294.798 24.885,293.583 24.286,292.667 23.697 C 291.750 23.108,290.910 22.613,290.800 22.597 C 290.626 22.571,288.926 21.778,282.800 18.866 C 282.030 18.500,281.342 18.071,281.271 17.913 C 281.200 17.755,280.523 17.509,279.766 17.367 C 279.010 17.225,278.291 16.947,278.168 16.748 C 278.045 16.549,277.777 16.491,277.572 16.617 C 277.368 16.744,277.200 16.671,277.200 16.455 C 277.200 16.240,276.648 15.942,275.973 15.794 C 275.298 15.646,274.263 15.273,273.673 14.965 C 273.083 14.657,272.385 14.404,272.121 14.402 C 271.858 14.401,270.786 13.945,269.740 13.388 C 268.693 12.832,267.604 12.466,267.319 12.576 C 267.033 12.685,266.800 12.601,266.800 12.387 C 266.800 12.174,266.380 12.000,265.867 12.000 C 265.353 12.000,264.798 11.865,264.633 11.700 C 264.468 11.535,264.213 11.384,264.067 11.365 C 263.920 11.346,263.530 11.240,263.200 11.130 C 258.508 9.559,257.263 9.200,256.500 9.200 C 256.005 9.200,255.600 9.026,255.600 8.814 C 255.600 8.601,254.700 8.308,253.600 8.162 C 252.500 8.016,251.600 7.721,251.600 7.506 C 251.600 7.290,251.347 7.211,251.039 7.330 C 250.730 7.448,249.605 7.272,248.539 6.937 C 246.348 6.251,242.302 5.253,240.800 5.029 C 240.250 4.947,239.755 4.839,239.700 4.790 C 239.395 4.517,234.708 3.840,233.900 3.953 C 233.515 4.006,233.200 3.870,233.200 3.650 C 233.200 3.430,232.885 3.261,232.500 3.274 C 231.329 3.316,226.240 2.750,225.600 2.507 C 224.543 2.106,223.896 2.035,218.713 1.756 C 215.915 1.605,213.706 1.352,213.804 1.193 C 214.047 0.801,186.170 0.797,185.741 1.190 M300.800 83.600 L 300.800 94.800 297.700 94.846 C 295.995 94.871,294.317 94.865,293.970 94.833 C 293.118 94.753,292.301 96.541,292.911 97.151 C 293.243 97.483,293.235 97.600,292.880 97.600 C 292.616 97.600,292.400 97.791,292.400 98.024 C 292.400 98.257,292.535 98.364,292.700 98.262 C 292.865 98.160,293.000 98.509,293.000 99.038 C 293.000 99.567,292.910 100.000,292.800 100.000 C 292.690 100.000,292.600 106.793,292.600 115.095 C 292.600 123.398,292.536 130.868,292.458 131.695 L 292.316 133.200 285.158 133.200 L 278.000 133.200 277.997 131.100 C 277.995 129.945,277.950 121.350,277.897 112.000 L 277.800 95.000 264.700 94.895 L 251.600 94.789 251.554 96.295 C 251.396 101.539,251.357 133.513,251.508 134.092 C 251.678 134.742,252.410 134.800,260.447 134.800 L 269.200 134.800 269.200 170.006 L 269.200 205.212 246.133 205.193 C 233.446 205.183,222.913 205.327,222.726 205.514 C 222.540 205.700,222.435 211.061,222.494 217.426 L 222.600 229.000 245.900 229.103 L 269.200 229.206 269.250 236.803 C 269.278 240.981,269.322 244.625,269.350 244.900 C 269.389 245.285,272.109 245.422,281.200 245.495 L 293.000 245.590 295.283 243.429 L 297.565 241.267 297.565 232.963 C 297.565 223.804,297.437 223.348,294.664 222.652 C 294.110 222.513,293.418 222.174,293.128 221.899 C 292.838 221.625,292.072 221.130,291.426 220.800 C 289.980 220.061,282.514 212.591,282.185 211.553 C 282.054 211.139,281.790 210.800,281.599 210.800 C 281.408 210.800,281.024 210.170,280.746 209.400 C 280.467 208.630,280.125 208.000,279.986 208.000 C 279.847 208.000,279.715 207.775,279.692 207.500 C 279.555 205.838,279.172 204.228,278.866 204.030 C 278.417 203.739,277.971 198.563,277.961 193.539 C 277.954 189.762,278.830 185.571,280.206 182.800 C 280.479 182.250,280.920 181.332,281.186 180.761 C 281.452 180.189,282.104 179.216,282.635 178.598 C 283.166 177.981,283.600 177.325,283.600 177.141 C 283.600 176.624,289.025 171.200,289.542 171.200 C 289.794 171.200,290.000 170.998,290.000 170.751 C 290.000 169.988,291.062 171.101,291.782 172.618 C 292.143 173.378,292.609 174.000,292.819 174.000 C 293.028 174.000,293.200 174.184,293.200 174.410 C 293.200 174.635,293.830 175.735,294.600 176.855 C 295.370 177.974,296.000 179.038,296.000 179.220 C 296.000 179.402,296.541 180.143,297.202 180.867 C 297.863 181.591,298.517 182.538,298.655 182.973 C 298.793 183.407,299.152 184.009,299.453 184.310 C 300.136 184.993,300.142 185.398,299.481 186.071 C 299.196 186.362,298.386 187.442,297.682 188.470 C 296.979 189.499,296.174 190.579,295.893 190.870 C 295.613 191.162,295.408 191.805,295.437 192.300 C 295.467 192.795,295.328 193.200,295.130 193.200 C 294.931 193.200,294.800 194.640,294.837 196.400 C 294.875 198.160,295.062 199.600,295.253 199.600 C 295.444 199.600,295.600 199.883,295.600 200.229 C 295.600 202.633,302.141 208.925,303.367 207.700 C 303.495 207.572,303.600 207.677,303.600 207.933 C 303.600 208.250,304.629 208.400,306.800 208.400 C 308.889 208.400,310.000 208.245,310.000 207.953 C 310.000 207.704,310.353 207.599,310.800 207.716 C 311.239 207.831,311.688 207.782,311.796 207.607 C 311.904 207.432,312.489 207.168,313.096 207.020 C 314.296 206.728,318.400 202.654,318.400 201.754 C 318.400 201.449,318.564 201.200,318.765 201.200 C 318.965 201.200,319.080 200.750,319.020 200.200 C 318.959 199.650,319.065 199.200,319.255 199.200 C 320.414 199.200,319.173 191.678,317.732 189.969 C 317.439 189.621,317.200 189.126,317.200 188.869 C 317.200 188.611,317.009 188.400,316.776 188.400 C 316.543 188.400,316.458 188.229,316.588 188.020 C 316.717 187.811,316.457 187.445,316.011 187.206 C 315.565 186.967,315.200 186.508,315.200 186.186 C 315.200 185.864,315.008 185.600,314.773 185.600 C 314.538 185.600,314.688 185.105,315.108 184.500 C 315.527 183.895,315.988 183.130,316.132 182.800 C 316.600 181.731,317.388 180.608,317.900 180.280 C 318.175 180.104,318.400 179.727,318.400 179.442 C 318.400 179.157,318.760 178.598,319.200 178.200 C 319.640 177.802,320.000 177.265,320.000 177.008 C 320.000 176.750,320.450 176.117,321.000 175.600 C 321.550 175.083,322.000 174.514,322.000 174.335 C 322.000 174.156,322.260 173.692,322.579 173.305 C 322.897 172.917,323.483 172.184,323.882 171.676 C 324.572 170.796,326.316 170.765,325.774 171.642 C 325.652 171.839,325.740 172.000,325.969 172.000 C 326.392 172.000,328.505 173.997,329.600 175.431 C 331.088 177.379,333.600 181.262,333.600 181.613 C 333.600 181.826,333.759 182.000,333.953 182.000 C 334.146 182.000,334.520 182.853,334.782 183.895 C 335.045 184.937,335.410 185.972,335.594 186.195 C 336.262 187.004,336.939 200.137,336.357 201.000 C 336.209 201.220,335.989 202.123,335.869 203.006 C 335.748 203.890,335.370 205.150,335.027 205.806 C 334.685 206.463,334.404 207.225,334.402 207.500 C 334.401 207.775,334.234 208.000,334.032 208.000 C 333.829 208.000,333.553 208.505,333.417 209.122 C 332.976 211.129,325.557 220.268,324.766 219.779 C 324.592 219.671,324.303 219.831,324.125 220.133 C 323.760 220.751,321.960 221.815,321.500 221.685 C 321.335 221.638,321.200 221.766,321.200 221.968 C 321.200 222.171,320.660 222.455,320.000 222.600 C 319.340 222.745,318.800 222.990,318.800 223.144 C 318.800 223.298,318.260 223.628,317.600 223.878 L 316.400 224.331 316.400 234.322 C 316.400 243.015,316.481 244.346,317.025 244.554 C 317.369 244.686,317.539 244.976,317.402 245.197 C 317.265 245.419,317.329 245.600,317.545 245.600 C 317.760 245.600,318.055 246.140,318.200 246.800 C 318.345 247.460,318.607 248.000,318.782 248.000 C 319.167 248.000,319.743 250.249,319.680 251.513 C 319.655 252.015,319.807 252.319,320.017 252.189 C 320.246 252.048,320.400 253.000,320.400 254.553 C 320.400 255.983,320.208 257.272,319.973 257.417 C 319.738 257.562,319.635 257.915,319.745 258.201 C 319.855 258.488,319.822 258.844,319.672 258.994 C 319.523 259.144,319.385 259.387,319.367 259.533 C 319.240 260.579,318.650 262.000,318.344 262.000 C 318.141 262.000,317.859 262.315,317.717 262.700 C 317.576 263.085,317.041 263.796,316.530 264.281 C 316.018 264.765,315.599 265.305,315.597 265.481 C 315.595 265.772,314.500 266.514,312.100 267.851 C 311.605 268.127,311.200 268.251,311.200 268.127 C 311.200 268.003,310.933 268.123,310.607 268.394 C 309.447 269.357,302.126 269.013,299.600 267.877 C 297.140 266.770,294.282 264.651,294.694 264.239 C 294.842 264.091,289.211 264.022,282.181 264.085 L 269.400 264.200 269.298 303.100 L 269.196 342.000 199.194 342.000 L 129.192 342.000 129.204 303.374 C 129.210 282.130,129.112 264.580,128.984 264.374 C 128.848 264.155,123.594 264.000,116.271 264.000 L 103.790 264.000 103.039 265.000 C 102.626 265.550,102.043 266.000,101.744 266.000 C 101.445 266.000,101.200 266.167,101.200 266.371 C 101.200 266.575,100.165 267.227,98.900 267.821 C 94.542 269.866,87.292 269.312,84.163 266.695 C 82.174 265.030,79.966 262.503,79.016 260.803 C 78.107 259.175,77.798 249.435,78.638 248.886 C 78.880 248.729,79.190 248.138,79.328 247.574 C 79.465 247.009,79.943 246.127,80.389 245.613 C 80.835 245.098,81.200 244.435,81.200 244.139 C 81.200 243.842,81.358 243.600,81.551 243.600 C 82.606 243.600,83.358 225.611,82.327 225.052 C 79.589 223.568,78.790 223.200,78.308 223.200 C 77.987 223.200,77.398 222.840,77.000 222.400 C 76.602 221.960,76.079 221.600,75.838 221.600 C 75.436 221.599,73.872 220.464,72.400 219.104 C 70.318 217.180,65.938 211.396,66.293 211.040 C 66.425 210.908,66.327 210.800,66.075 210.800 C 65.452 210.800,64.000 207.873,64.000 206.616 C 64.000 206.057,63.801 205.600,63.557 205.600 C 63.308 205.600,63.226 205.308,63.371 204.932 C 63.512 204.565,63.464 204.160,63.266 204.032 C 63.067 203.904,62.790 202.360,62.650 200.600 C 62.086 193.513,62.390 189.604,63.759 186.351 C 64.094 185.554,64.255 184.789,64.117 184.651 C 63.980 184.513,64.077 184.400,64.333 184.400 C 64.590 184.400,64.774 184.265,64.743 184.100 C 64.635 183.534,65.678 181.200,66.039 181.200 C 66.238 181.200,66.400 180.902,66.400 180.537 C 66.400 179.249,70.855 173.954,73.560 172.028 C 74.946 171.042,75.200 171.006,75.200 171.800 C 75.200 172.130,75.358 172.400,75.551 172.400 C 75.745 172.400,76.127 172.940,76.400 173.600 C 76.673 174.260,77.055 174.800,77.249 174.800 C 77.442 174.800,77.600 175.001,77.600 175.246 C 77.600 175.492,78.230 176.551,79.000 177.600 C 79.770 178.649,80.400 179.699,80.400 179.934 C 80.400 180.168,80.625 180.504,80.900 180.680 C 81.461 181.039,82.209 182.155,82.791 183.500 C 83.005 183.995,83.345 184.400,83.547 184.400 C 84.321 184.400,84.485 186.548,83.752 187.084 C 83.364 187.368,83.173 187.600,83.327 187.600 C 83.481 187.600,83.071 188.160,82.417 188.845 C 81.763 189.530,80.997 190.610,80.716 191.245 C 80.435 191.880,80.049 192.400,79.860 192.400 C 79.670 192.400,79.616 192.664,79.740 192.987 C 79.864 193.310,79.793 193.681,79.583 193.811 C 78.924 194.218,79.111 200.228,79.800 200.800 C 80.130 201.074,80.400 201.636,80.400 202.049 C 80.400 202.462,80.610 202.800,80.867 202.800 C 81.123 202.800,81.222 202.911,81.086 203.048 C 80.950 203.184,81.055 203.515,81.319 203.784 C 81.584 204.053,82.232 204.842,82.760 205.537 C 83.288 206.231,83.963 206.800,84.260 206.800 C 84.557 206.800,84.800 206.936,84.800 207.102 C 84.800 207.452,86.170 208.081,88.983 209.024 C 90.956 209.685,93.447 209.475,96.200 208.416 C 96.640 208.247,97.103 208.129,97.229 208.154 C 97.354 208.179,97.741 207.930,98.088 207.600 C 98.435 207.270,99.364 206.460,100.151 205.800 C 100.938 205.140,101.587 204.394,101.591 204.143 C 101.596 203.891,101.853 203.588,102.162 203.470 C 102.472 203.351,102.845 202.704,102.993 202.032 C 103.141 201.359,103.428 200.706,103.631 200.581 C 104.744 199.893,104.012 194.231,102.398 191.042 C 101.519 189.305,100.800 188.035,100.800 188.220 C 100.800 188.404,100.344 187.937,99.787 187.182 C 98.986 186.097,98.881 185.722,99.287 185.398 C 99.569 185.172,100.109 184.450,100.486 183.793 C 102.841 179.695,103.473 178.781,104.092 178.578 C 104.472 178.453,104.759 178.227,104.729 178.076 C 104.620 177.520,105.862 175.195,106.127 175.460 C 106.277 175.610,106.400 175.550,106.400 175.327 C 106.400 175.103,106.947 174.165,107.615 173.243 L 108.829 171.566 110.115 172.476 C 111.866 173.716,115.200 177.279,115.200 177.911 C 115.200 178.194,115.454 178.522,115.764 178.641 C 116.074 178.761,116.437 179.295,116.572 179.829 C 116.706 180.363,116.992 180.800,117.208 180.800 C 117.423 180.800,117.604 181.115,117.609 181.500 C 117.614 181.885,117.970 182.650,118.400 183.200 C 118.830 183.750,119.186 184.659,119.191 185.220 C 119.196 185.781,119.360 186.411,119.554 186.620 C 120.946 188.112,121.516 199.058,120.418 203.200 C 120.155 204.190,119.943 205.315,119.945 205.700 C 119.948 206.085,119.802 206.400,119.620 206.400 C 119.438 206.400,119.173 207.017,119.032 207.771 C 118.890 208.525,118.645 209.200,118.487 209.271 C 118.329 209.342,117.764 210.210,117.231 211.200 C 116.698 212.190,116.023 213.144,115.731 213.320 C 115.439 213.496,115.200 213.901,115.200 214.220 C 115.200 214.539,114.990 214.800,114.733 214.800 C 114.477 214.800,114.364 214.898,114.484 215.017 C 114.807 215.340,112.334 218.007,111.939 217.762 C 111.753 217.647,111.600 217.929,111.600 218.389 C 111.600 218.849,111.285 219.346,110.900 219.493 C 110.322 219.714,108.708 220.819,106.200 222.712 C 105.980 222.878,104.779 223.472,103.532 224.031 L 101.263 225.047 101.217 233.051 C 101.169 241.387,101.302 242.084,103.226 243.600 C 103.366 243.710,103.694 244.205,103.954 244.700 L 104.428 245.600 116.314 245.594 C 123.050 245.590,128.458 245.424,128.796 245.211 C 129.385 244.839,129.436 243.919,129.577 231.300 L 129.600 229.200 153.000 229.200 L 176.400 229.200 176.400 217.427 C 176.400 206.349,176.357 205.640,175.664 205.420 C 175.260 205.292,164.685 205.119,152.164 205.037 L 129.400 204.886 129.298 169.843 L 129.196 134.800 139.998 134.800 L 150.800 134.800 150.844 132.900 C 150.893 130.786,150.833 126.776,150.693 122.738 C 150.642 121.274,150.754 120.171,150.943 120.288 C 151.131 120.405,151.172 120.142,151.033 119.705 C 150.695 118.640,150.660 113.350,150.987 112.820 C 151.130 112.589,151.057 112.400,150.824 112.400 C 150.538 112.400,150.400 109.468,150.400 103.400 L 150.400 94.400 133.200 94.400 C 123.740 94.400,115.999 94.265,115.998 94.100 C 115.996 93.935,111.947 93.800,107.000 93.800 L 98.004 93.800 98.002 83.367 C 98.001 77.628,98.120 72.813,98.267 72.667 C 98.413 72.520,144.043 72.400,199.667 72.400 L 300.800 72.400 300.800 83.600 M175.200 149.655 C 173.110 149.796,168.497 149.931,164.949 149.955 C 159.764 149.991,158.401 150.117,158.004 150.596 C 157.732 150.923,157.380 151.111,157.221 151.013 C 156.790 150.747,153.600 152.417,153.600 152.908 C 153.600 153.142,153.491 153.224,153.357 153.091 C 153.224 152.957,152.740 153.197,152.282 153.624 C 151.824 154.051,151.213 154.400,150.925 154.400 C 150.636 154.400,150.400 154.581,150.400 154.803 C 150.400 155.024,149.950 155.597,149.400 156.075 C 148.850 156.553,148.400 157.182,148.400 157.472 C 148.400 157.762,148.251 158.000,148.068 158.000 C 147.664 158.000,146.285 161.043,145.388 163.912 C 144.633 166.326,144.669 174.215,145.437 174.715 C 145.678 174.872,145.990 175.593,146.131 176.318 C 146.272 177.044,146.840 178.231,147.394 178.956 C 147.947 179.682,148.400 180.463,148.400 180.691 C 148.400 180.920,149.120 181.757,150.000 182.552 C 150.880 183.347,151.600 184.189,151.600 184.423 C 151.600 184.656,151.780 184.736,152.000 184.600 C 152.220 184.464,152.400 184.540,152.400 184.769 C 152.400 184.998,152.849 185.297,153.397 185.435 C 153.946 185.573,154.295 185.846,154.174 186.043 C 154.052 186.239,154.289 186.400,154.700 186.400 C 155.111 186.400,155.796 186.664,156.224 186.987 C 156.651 187.310,157.303 187.580,157.674 187.587 C 158.045 187.594,158.822 187.780,159.401 188.000 C 160.629 188.467,240.400 188.770,240.400 188.308 C 240.400 188.147,240.893 187.891,241.496 187.740 C 242.099 187.589,242.832 187.225,243.125 186.933 C 243.418 186.640,243.914 186.400,244.229 186.400 C 244.543 186.400,244.800 186.220,244.800 186.000 C 244.800 185.780,245.061 185.600,245.380 185.600 C 245.699 185.600,246.144 185.285,246.368 184.900 C 246.592 184.515,246.781 184.344,246.788 184.521 C 246.805 184.971,248.604 182.999,250.546 180.400 C 252.140 178.267,253.600 174.976,253.600 173.515 C 253.600 173.122,253.737 172.800,253.905 172.800 C 254.552 172.800,253.851 163.402,253.172 162.983 C 252.967 162.856,252.800 162.447,252.800 162.073 C 252.800 159.955,245.965 151.648,244.400 151.864 C 243.923 151.930,242.400 151.038,242.400 150.693 C 242.400 150.485,242.136 150.416,241.813 150.540 C 241.490 150.664,241.119 150.593,240.989 150.383 C 240.859 150.172,239.953 150.000,238.976 150.000 C 237.999 150.000,237.200 149.865,237.200 149.700 C 237.200 149.293,195.130 149.316,194.500 149.724 C 194.215 149.908,194.000 149.871,194.000 149.637 C 194.000 149.192,181.927 149.203,175.200 149.655 M227.194 158.791 C 227.312 158.981,227.900 159.260,228.501 159.411 C 229.103 159.562,229.495 159.846,229.374 160.043 C 229.252 160.239,229.369 160.400,229.633 160.400 C 230.362 160.400,232.344 162.636,232.632 163.784 C 232.772 164.343,233.009 164.800,233.158 164.800 C 233.545 164.800,233.740 166.203,233.772 169.200 C 233.879 179.167,221.295 184.108,214.468 176.781 C 212.046 174.181,210.926 168.510,212.222 165.408 C 212.500 164.744,212.768 164.020,212.817 163.800 C 212.867 163.580,213.236 163.170,213.637 162.889 C 214.038 162.608,214.271 162.129,214.154 161.825 C 214.029 161.499,214.282 161.164,214.771 161.009 C 215.227 160.864,215.600 160.568,215.600 160.349 C 215.600 160.131,215.780 160.064,216.000 160.200 C 216.220 160.336,216.400 160.261,216.400 160.034 C 216.400 158.243,226.161 157.119,227.194 158.791 M180.756 159.169 C 181.398 159.626,182.102 160.000,182.320 160.000 C 182.651 160.000,183.968 161.392,185.568 163.433 C 185.940 163.908,186.598 166.420,186.476 166.900 C 186.434 167.065,186.541 167.200,186.714 167.200 C 186.887 167.200,187.070 168.190,187.120 169.400 C 187.174 170.683,187.043 171.600,186.806 171.600 C 186.583 171.600,186.400 171.888,186.400 172.240 C 186.400 174.040,182.762 178.800,181.385 178.800 C 181.100 178.800,180.792 179.025,180.700 179.300 C 180.580 179.659,179.311 179.800,176.200 179.800 C 173.089 179.800,171.820 179.659,171.700 179.300 C 171.608 179.025,171.271 178.800,170.950 178.800 C 170.300 178.800,167.970 177.264,167.491 176.520 C 167.321 176.256,166.951 175.806,166.667 175.520 C 164.893 173.729,163.958 166.509,165.322 165.129 C 165.610 164.838,165.947 164.330,166.071 164.000 C 166.196 163.670,166.366 163.224,166.449 163.009 C 166.739 162.257,169.498 160.004,170.844 159.420 C 171.590 159.096,172.020 158.803,171.800 158.768 C 171.580 158.734,171.940 158.557,172.600 158.375 C 174.745 157.784,179.455 158.242,180.756 159.169 " stroke="none" fill="#fc7c4c" fill-rule="evenodd"></path><path id="path1" d="" stroke="none" fill="#1007c4c" fill-rule="evenodd"></path><path id="path2" d="" stroke="none" fill="#1007c4c" fill-rule="evenodd"></path><path id="path3" d="" stroke="none" fill="#1007c4c" fill-rule="evenodd"></path><path id="path4" d="" stroke="none" fill="#1007c4c" fill-rule="evenodd"></path></g></svg>