<svg id="svg" version="1.1" xmlns="http://www.w3.org/2000/svg" xmlns:xlink="http://www.w3.org/1999/xlink" width="400" height="400" viewBox="0, 0, 400,400"><g id="svgg"><path id="path0" d="M98.400 83.200 L 98.400 94.400 124.400 94.400 L 150.400 94.400 150.400 114.600 L 150.400 134.800 140.000 134.800 L 129.600 134.800 129.600 169.800 L 129.600 204.800 134.100 204.857 C 136.575 204.888,147.060 205.023,157.400 205.157 L 176.200 205.400 176.306 217.300 L 176.412 229.200 153.014 229.200 L 129.617 229.200 129.508 237.300 L 129.400 245.400 116.929 245.506 L 104.458 245.611 103.161 243.806 C 102.448 242.813,101.715 242.000,101.532 242.000 C 101.349 242.000,101.200 238.130,101.200 233.400 C 101.200 226.022,101.285 224.800,101.800 224.800 C 102.130 224.800,102.400 224.634,102.400 224.432 C 102.400 224.229,102.940 223.945,103.600 223.800 C 104.260 223.655,104.800 223.415,104.800 223.266 C 104.800 223.117,105.665 222.598,106.723 222.113 C 111.022 220.141,119.600 209.158,119.600 205.625 C 119.600 205.259,119.825 204.735,120.100 204.460 C 121.193 203.368,121.023 190.844,119.867 187.259 C 117.887 181.120,113.845 174.994,110.156 172.543 C 109.331 171.994,108.000 172.162,108.000 172.814 C 108.000 172.995,107.771 173.381,107.490 173.671 C 107.210 173.962,105.906 175.820,104.591 177.800 C 103.277 179.780,102.064 181.580,101.895 181.800 C 101.726 182.020,100.966 183.037,100.206 184.061 L 98.823 185.922 99.705 187.061 C 101.037 188.780,101.358 189.181,101.858 189.743 C 104.537 192.759,104.640 203.600,101.990 203.600 C 101.776 203.600,101.600 203.841,101.600 204.136 C 101.600 204.683,99.483 206.799,98.400 207.335 C 98.070 207.498,97.350 207.892,96.800 208.210 C 96.250 208.528,95.395 208.791,94.900 208.794 C 94.405 208.797,94.000 208.980,94.000 209.200 C 94.000 209.420,93.021 209.600,91.824 209.600 C 90.627 209.600,89.536 209.420,89.400 209.200 C 89.264 208.980,88.778 208.800,88.321 208.800 C 86.751 208.800,81.622 205.210,81.607 204.100 C 81.603 203.825,81.442 203.600,81.249 203.600 C 81.056 203.600,80.516 202.712,80.049 201.626 C 78.282 197.517,79.217 192.159,82.272 188.895 C 84.409 186.613,84.571 186.144,83.638 184.958 C 83.177 184.372,82.800 183.661,82.800 183.379 C 82.800 183.097,82.665 182.807,82.500 182.733 C 82.045 182.531,80.400 180.090,80.400 179.616 C 80.400 179.387,80.265 179.197,80.100 179.192 C 79.935 179.188,79.260 178.292,78.600 177.200 C 77.940 176.108,77.265 175.212,77.100 175.208 C 76.935 175.203,76.800 175.018,76.800 174.797 C 76.800 173.768,74.580 171.339,74.031 171.768 C 69.847 175.033,66.426 179.631,64.632 184.400 C 64.012 186.050,63.301 187.835,63.052 188.366 C 62.300 189.973,62.553 203.312,63.357 204.460 C 63.711 204.965,64.000 205.840,64.000 206.404 C 64.000 210.666,72.358 220.104,79.051 223.400 L 82.300 225.000 82.547 227.600 C 82.683 229.030,82.796 232.915,82.797 236.234 L 82.800 242.267 81.239 244.496 C 80.380 245.721,79.546 247.146,79.385 247.662 C 79.224 248.178,78.891 248.728,78.646 248.885 C 77.863 249.386,78.078 258.761,78.905 260.200 C 79.285 260.860,79.600 261.580,79.605 261.800 C 79.625 262.611,84.663 267.097,86.573 268.004 C 89.461 269.377,94.839 269.368,98.200 267.987 C 100.782 266.925,100.723 266.961,102.778 265.182 L 104.156 263.989 116.778 264.094 L 129.400 264.200 129.502 303.100 L 129.604 342.000 199.402 342.000 L 269.200 342.000 269.200 303.480 C 269.200 274.053,269.313 264.847,269.680 264.480 C 270.032 264.128,273.357 264.002,282.180 264.006 L 294.200 264.013 295.600 265.202 C 299.215 268.273,300.663 268.802,305.447 268.801 C 312.877 268.799,316.827 266.001,319.564 258.800 C 321.035 254.928,319.631 247.396,316.893 244.471 C 316.088 243.611,316.377 224.391,317.200 224.006 C 320.466 222.475,323.712 220.632,324.871 219.649 C 327.378 217.525,331.467 212.916,332.102 211.500 C 332.373 210.895,332.712 210.400,332.854 210.400 C 332.997 210.400,333.237 209.907,333.388 209.304 C 333.540 208.701,333.795 208.116,333.956 208.004 C 335.987 206.586,337.152 190.080,335.484 186.357 C 335.149 185.611,334.755 184.468,334.609 183.818 C 334.212 182.050,330.394 176.417,327.566 173.427 C 324.600 170.291,325.020 170.118,320.756 176.236 C 319.160 178.526,317.707 180.400,317.527 180.400 C 317.347 180.400,317.200 180.657,317.200 180.971 C 317.200 181.286,316.969 181.781,316.688 182.071 C 316.406 182.362,315.794 183.255,315.328 184.055 L 314.480 185.510 315.685 186.828 C 318.409 189.811,319.377 192.261,319.389 196.200 C 319.406 201.645,317.532 204.866,313.200 206.838 C 312.210 207.289,311.087 207.824,310.705 208.029 C 309.804 208.511,303.717 208.512,303.419 208.031 C 303.294 207.828,302.611 207.534,301.903 207.379 C 300.242 207.014,296.177 202.916,295.807 201.233 C 295.659 200.560,295.372 199.906,295.169 199.781 C 293.142 198.528,296.503 187.679,299.293 186.467 C 299.941 186.185,299.551 184.644,298.400 182.938 C 297.740 181.960,297.200 181.004,297.200 180.813 C 297.200 180.623,297.061 180.407,296.891 180.333 C 296.545 180.184,291.260 172.221,290.922 171.340 C 289.841 168.524,280.560 180.010,279.399 185.600 C 279.239 186.370,278.903 187.254,278.654 187.563 C 278.006 188.368,278.053 203.684,278.704 203.901 C 278.963 203.988,279.283 204.720,279.416 205.529 C 280.157 210.041,291.008 222.400,294.228 222.400 C 294.331 222.400,295.132 222.852,296.008 223.405 L 297.600 224.410 297.600 232.761 L 297.600 241.112 295.386 243.362 L 293.171 245.612 281.286 245.506 L 269.400 245.400 269.292 237.303 L 269.183 229.206 245.892 229.103 L 222.600 229.000 222.494 217.227 C 222.411 208.076,222.500 205.383,222.894 205.134 C 223.172 204.957,233.705 204.809,246.300 204.806 L 269.200 204.800 269.200 169.808 L 269.200 134.815 260.300 134.708 L 251.400 134.600 251.333 115.517 C 251.296 105.022,251.362 96.067,251.480 95.617 C 251.689 94.815,251.937 94.800,264.847 94.800 L 278.000 94.800 278.000 114.000 L 278.000 133.200 285.200 133.200 L 292.400 133.200 292.405 114.900 C 292.412 92.536,291.912 94.800,296.847 94.800 L 300.800 94.800 300.800 83.400 L 300.800 72.000 199.600 72.000 L 98.400 72.000 98.400 83.200 M243.528 151.500 C 247.457 153.552,250.473 156.594,252.318 160.369 L 253.800 163.400 253.796 169.000 L 253.793 174.600 252.244 177.703 C 250.727 180.744,246.489 185.600,245.354 185.600 C 245.086 185.600,244.807 185.735,244.733 185.900 C 244.660 186.065,243.855 186.605,242.946 187.100 L 241.291 188.000 199.820 188.000 L 158.349 188.000 156.274 186.983 C 155.133 186.423,153.778 185.723,153.262 185.427 C 150.717 183.966,146.766 179.029,146.159 176.551 C 146.004 175.918,145.680 175.272,145.438 175.115 C 144.836 174.722,144.836 163.278,145.438 162.885 C 145.680 162.728,146.002 162.090,146.154 161.467 C 146.716 159.174,151.036 153.600,152.251 153.600 C 152.553 153.600,152.800 153.453,152.800 153.273 C 152.800 152.973,157.008 150.707,158.400 150.257 C 158.730 150.150,177.372 150.049,199.828 150.032 L 240.655 150.000 243.528 151.500 M173.600 158.236 C 167.832 160.363,164.800 164.075,164.800 169.011 C 164.800 181.821,183.696 184.216,186.536 171.765 C 187.183 168.929,186.623 164.952,185.385 163.583 C 185.063 163.228,184.800 162.787,184.800 162.604 C 184.800 160.418,176.482 157.173,173.600 158.236 M220.000 158.241 C 214.043 160.531,212.200 163.120,212.200 169.200 C 212.200 174.644,213.508 176.936,217.913 179.210 C 219.858 180.214,227.178 180.266,227.507 179.278 C 227.595 179.015,227.877 178.800,228.134 178.800 C 230.253 178.800,234.000 172.568,234.000 169.044 C 234.000 165.568,230.006 159.200,227.825 159.200 C 227.518 159.200,227.202 159.006,227.123 158.768 C 226.967 158.301,220.993 157.859,220.000 158.241 " stroke="none" fill="#fcfcfc" fill-rule="evenodd"></path><path id="path1" d="M184.235 1.143 C 184.119 1.332,181.635 1.616,178.716 1.774 C 175.797 1.933,173.316 2.196,173.204 2.358 C 173.092 2.520,171.110 2.861,168.800 3.115 C 166.490 3.369,164.150 3.671,163.600 3.787 C 163.050 3.903,161.295 4.203,159.700 4.455 C 158.105 4.707,156.800 5.046,156.800 5.210 C 156.800 5.373,155.630 5.632,154.200 5.785 C 152.770 5.938,151.600 6.209,151.600 6.386 C 151.600 6.563,150.613 6.831,149.406 6.982 C 148.200 7.133,147.112 7.418,146.990 7.616 C 146.867 7.815,145.875 8.095,144.784 8.240 C 143.693 8.385,142.800 8.631,142.800 8.788 C 142.800 8.945,141.765 9.301,140.500 9.581 C 139.235 9.860,138.020 10.233,137.800 10.409 C 137.580 10.585,136.725 10.855,135.900 11.009 C 135.075 11.163,134.400 11.429,134.400 11.599 C 134.400 11.770,133.590 12.031,132.600 12.179 C 131.610 12.328,130.800 12.598,130.800 12.780 C 130.800 12.962,130.170 13.229,129.400 13.374 C 128.630 13.518,128.000 13.771,128.000 13.936 C 128.000 14.100,126.920 14.475,125.600 14.767 C 124.280 15.060,123.200 15.449,123.200 15.632 C 123.200 15.814,122.570 16.082,121.800 16.226 C 121.030 16.371,120.400 16.635,120.400 16.813 C 120.400 16.991,119.860 17.255,119.200 17.400 C 118.540 17.545,118.000 17.821,118.000 18.014 C 118.000 18.206,117.370 18.482,116.600 18.626 C 115.830 18.771,115.200 19.049,115.200 19.245 C 115.200 19.440,114.975 19.606,114.700 19.613 C 114.425 19.619,113.300 20.068,112.200 20.609 C 111.100 21.150,109.990 21.594,109.733 21.596 C 109.477 21.598,109.207 21.735,109.133 21.900 C 109.060 22.065,108.103 22.650,107.007 23.200 C 105.911 23.750,104.773 24.425,104.479 24.700 C 104.184 24.975,103.686 25.200,103.371 25.200 C 103.057 25.200,102.800 25.344,102.800 25.520 C 102.800 25.695,102.132 26.081,101.315 26.376 C 100.498 26.672,99.585 27.158,99.286 27.457 C 98.987 27.756,98.486 28.000,98.171 28.000 C 97.857 28.000,97.600 28.180,97.600 28.400 C 97.600 28.620,97.324 28.800,96.987 28.800 C 96.651 28.800,96.276 29.059,96.154 29.376 C 96.033 29.692,95.408 30.066,94.767 30.207 C 94.125 30.348,93.600 30.639,93.600 30.853 C 93.600 31.067,93.060 31.430,92.400 31.660 C 91.740 31.890,91.200 32.241,91.200 32.439 C 91.200 32.638,90.924 32.800,90.587 32.800 C 90.251 32.800,89.871 33.070,89.745 33.400 C 89.618 33.730,89.258 34.000,88.945 34.000 C 88.631 34.000,88.278 34.254,88.159 34.564 C 88.039 34.874,87.505 35.237,86.971 35.372 C 86.437 35.506,86.000 35.792,86.000 36.008 C 86.000 36.223,85.808 36.400,85.573 36.400 C 85.108 36.400,82.282 38.414,82.067 38.900 C 81.993 39.065,81.673 39.200,81.354 39.200 C 81.036 39.200,80.674 39.463,80.550 39.785 C 80.427 40.106,79.985 40.478,79.569 40.610 C 79.152 40.742,78.276 41.334,77.621 41.925 C 75.518 43.824,74.805 44.400,74.558 44.400 C 74.116 44.400,72.041 46.307,72.252 46.519 C 72.367 46.633,72.062 46.853,71.575 47.008 C 71.088 47.162,69.900 48.079,68.935 49.044 C 67.969 50.010,67.076 50.800,66.950 50.800 C 66.698 50.800,63.096 54.216,61.080 56.366 C 60.376 57.118,58.919 58.558,57.842 59.566 C 56.766 60.575,55.596 61.733,55.242 62.140 C 54.889 62.547,53.520 64.022,52.200 65.417 C 50.880 66.812,49.170 68.695,48.400 69.601 C 47.630 70.507,46.550 71.742,46.000 72.345 C 45.450 72.948,44.481 74.197,43.846 75.121 C 43.211 76.044,42.536 76.800,42.346 76.800 C 42.156 76.800,42.000 77.061,42.000 77.380 C 42.000 77.699,41.769 78.104,41.486 78.280 C 40.974 78.598,39.948 79.875,38.800 81.620 C 38.470 82.121,37.903 82.845,37.539 83.226 C 37.176 83.608,36.759 84.299,36.613 84.761 C 36.466 85.222,36.178 85.600,35.973 85.600 C 35.768 85.600,35.600 85.830,35.600 86.111 C 35.600 86.392,35.240 86.930,34.800 87.307 C 34.360 87.684,34.000 88.264,34.000 88.596 C 34.000 88.928,33.833 89.200,33.629 89.200 C 33.425 89.200,33.009 89.695,32.703 90.300 C 31.911 91.867,31.037 93.367,30.779 93.600 C 30.657 93.710,30.127 94.520,29.600 95.400 C 29.073 96.280,28.512 97.092,28.353 97.204 C 28.194 97.316,27.940 97.901,27.788 98.504 C 27.637 99.107,27.366 99.600,27.186 99.600 C 27.006 99.600,26.390 100.590,25.817 101.800 C 25.245 103.010,24.616 104.000,24.420 104.000 C 24.224 104.000,23.945 104.540,23.800 105.200 C 23.655 105.860,23.385 106.400,23.200 106.400 C 23.015 106.400,22.745 106.940,22.600 107.600 C 22.455 108.260,22.199 108.800,22.032 108.800 C 21.864 108.800,21.511 109.520,21.247 110.400 C 20.984 111.280,20.609 112.000,20.416 112.000 C 20.222 112.000,19.945 112.540,19.800 113.200 C 19.655 113.860,19.385 114.400,19.200 114.400 C 19.015 114.400,18.745 114.940,18.600 115.600 C 18.455 116.260,18.171 116.800,17.968 116.800 C 17.766 116.800,17.600 117.095,17.600 117.456 C 17.600 117.817,17.254 118.852,16.832 119.756 C 14.794 124.118,14.400 125.117,14.400 125.926 C 14.400 126.407,14.228 126.800,14.018 126.800 C 13.808 126.800,13.518 127.430,13.374 128.200 C 13.229 128.970,12.971 129.600,12.800 129.600 C 12.629 129.600,12.372 130.222,12.230 130.983 C 12.087 131.744,11.708 132.869,11.388 133.483 C 11.067 134.097,10.804 134.915,10.802 135.300 C 10.801 135.685,10.636 136.000,10.435 136.000 C 10.234 136.000,9.944 136.765,9.789 137.700 C 9.634 138.635,9.399 139.580,9.265 139.800 C 8.978 140.273,8.949 140.380,8.354 143.100 C 8.101 144.255,7.756 145.200,7.586 145.200 C 7.417 145.200,7.153 146.280,7.000 147.600 C 6.847 148.920,6.572 150.000,6.390 150.000 C 6.207 150.000,5.934 150.990,5.783 152.200 C 5.632 153.410,5.374 154.400,5.210 154.400 C 5.047 154.400,4.713 155.615,4.468 157.100 C 4.224 158.585,3.758 161.330,3.434 163.200 C 3.109 165.070,2.834 167.275,2.822 168.100 C 2.810 168.925,2.637 169.600,2.438 169.600 C 2.240 169.600,1.947 171.535,1.787 173.900 C 1.624 176.330,1.303 178.324,1.049 178.485 C 0.726 178.691,0.600 184.740,0.600 200.000 C 0.600 215.260,0.726 221.309,1.049 221.515 C 1.303 221.676,1.624 223.670,1.787 226.100 C 1.947 228.465,2.240 230.400,2.438 230.400 C 2.637 230.400,2.810 231.075,2.822 231.900 C 2.834 232.725,3.109 234.930,3.434 236.800 C 3.758 238.670,4.224 241.415,4.468 242.900 C 4.713 244.385,5.047 245.600,5.210 245.600 C 5.374 245.600,5.632 246.590,5.783 247.800 C 5.934 249.010,6.207 250.000,6.390 250.000 C 6.572 250.000,6.847 251.080,7.000 252.400 C 7.153 253.720,7.417 254.800,7.586 254.800 C 7.756 254.800,8.101 255.745,8.354 256.900 C 8.949 259.620,8.978 259.727,9.265 260.200 C 9.399 260.420,9.634 261.365,9.789 262.300 C 9.944 263.235,10.234 264.000,10.435 264.000 C 10.636 264.000,10.801 264.315,10.802 264.700 C 10.804 265.085,11.067 265.903,11.388 266.517 C 11.708 267.131,12.087 268.256,12.230 269.017 C 12.372 269.778,12.629 270.400,12.800 270.400 C 12.971 270.400,13.229 271.030,13.374 271.800 C 13.518 272.570,13.808 273.200,14.018 273.200 C 14.228 273.200,14.400 273.612,14.400 274.115 C 14.400 274.619,14.750 275.716,15.177 276.554 C 15.604 277.392,16.068 278.601,16.209 279.239 C 16.349 279.878,16.621 280.400,16.814 280.400 C 17.006 280.400,17.282 281.030,17.426 281.800 C 17.571 282.570,17.835 283.200,18.013 283.200 C 18.191 283.200,18.455 283.740,18.600 284.400 C 18.745 285.060,19.015 285.600,19.200 285.600 C 19.385 285.600,19.655 286.140,19.800 286.800 C 19.945 287.460,20.222 288.000,20.416 288.000 C 20.609 288.000,20.984 288.720,21.247 289.600 C 21.511 290.480,21.864 291.200,22.032 291.200 C 22.199 291.200,22.455 291.740,22.600 292.400 C 22.745 293.060,23.015 293.600,23.200 293.600 C 23.385 293.600,23.655 294.140,23.800 294.800 C 23.945 295.460,24.224 296.000,24.420 296.000 C 24.616 296.000,25.245 296.990,25.817 298.200 C 26.390 299.410,27.011 300.400,27.197 300.400 C 27.384 300.400,27.655 300.940,27.800 301.600 C 27.945 302.260,28.217 302.800,28.405 302.800 C 28.593 302.800,28.872 303.197,29.026 303.681 C 29.180 304.166,29.507 304.790,29.753 305.067 C 30.678 306.112,31.335 307.119,32.578 309.400 C 33.461 311.021,34.595 312.609,35.090 312.920 C 35.371 313.096,35.600 313.501,35.600 313.820 C 35.600 314.139,35.768 314.400,35.973 314.400 C 36.178 314.400,36.466 314.778,36.613 315.239 C 36.759 315.701,37.176 316.392,37.539 316.774 C 37.903 317.155,38.470 317.879,38.800 318.380 C 39.948 320.125,40.974 321.402,41.486 321.720 C 41.769 321.896,42.000 322.301,42.000 322.620 C 42.000 322.939,42.156 323.200,42.347 323.200 C 42.538 323.200,43.163 323.909,43.736 324.775 C 44.310 325.642,45.278 326.891,45.889 327.551 C 46.500 328.211,47.630 329.495,48.400 330.405 C 50.392 332.757,54.758 337.427,56.366 338.927 C 57.118 339.627,58.558 341.081,59.566 342.158 C 60.575 343.234,61.736 344.404,62.148 344.758 C 62.559 345.111,63.750 346.255,64.794 347.300 C 65.839 348.345,66.802 349.200,66.936 349.200 C 67.070 349.200,67.969 349.990,68.935 350.956 C 69.900 351.921,71.088 352.838,71.575 352.992 C 72.062 353.147,72.367 353.367,72.252 353.481 C 72.041 353.693,74.116 355.600,74.558 355.600 C 74.816 355.600,75.555 356.194,77.563 358.017 C 78.250 358.640,79.169 359.263,79.606 359.402 C 80.043 359.540,80.400 359.827,80.400 360.040 C 80.400 360.252,80.715 360.545,81.100 360.692 C 81.485 360.839,82.229 361.356,82.754 361.841 C 83.279 362.326,84.179 362.965,84.754 363.262 C 85.329 363.558,86.038 364.025,86.329 364.300 C 86.619 364.575,87.095 364.800,87.386 364.800 C 87.677 364.800,88.018 365.070,88.145 365.400 C 88.271 365.730,88.631 366.000,88.945 366.000 C 89.258 366.000,89.618 366.270,89.745 366.600 C 89.871 366.930,90.251 367.200,90.587 367.200 C 90.924 367.200,91.200 367.362,91.200 367.561 C 91.200 367.759,91.740 368.110,92.400 368.340 C 93.060 368.570,93.600 368.933,93.600 369.147 C 93.600 369.361,94.125 369.652,94.767 369.793 C 95.408 369.934,96.033 370.308,96.154 370.624 C 96.276 370.941,96.651 371.200,96.987 371.200 C 97.324 371.200,97.600 371.380,97.600 371.600 C 97.600 371.820,97.857 372.000,98.171 372.000 C 98.486 372.000,98.981 372.226,99.271 372.501 C 99.562 372.777,100.880 373.534,102.200 374.184 C 103.520 374.834,104.690 375.463,104.800 375.583 C 104.910 375.702,105.900 376.250,107.000 376.800 C 108.100 377.350,109.060 377.935,109.133 378.100 C 109.207 378.265,109.477 378.406,109.733 378.413 C 109.990 378.419,111.100 378.868,112.200 379.409 C 113.300 379.950,114.425 380.394,114.700 380.396 C 114.975 380.398,115.200 380.560,115.200 380.755 C 115.200 380.951,115.830 381.229,116.600 381.374 C 117.370 381.518,118.000 381.794,118.000 381.986 C 118.000 382.179,118.540 382.455,119.200 382.600 C 119.860 382.745,120.400 383.009,120.400 383.187 C 120.400 383.365,121.030 383.629,121.800 383.774 C 122.570 383.918,123.200 384.186,123.200 384.368 C 123.200 384.551,124.280 384.940,125.600 385.233 C 126.920 385.525,128.000 385.900,128.000 386.064 C 128.000 386.229,128.630 386.482,129.400 386.626 C 130.170 386.771,130.800 387.038,130.800 387.220 C 130.800 387.402,131.610 387.672,132.600 387.821 C 133.590 387.969,134.400 388.235,134.400 388.410 C 134.400 388.586,135.120 388.851,136.000 389.000 C 136.880 389.149,137.600 389.414,137.600 389.590 C 137.600 389.765,138.410 390.031,139.400 390.179 C 140.390 390.328,141.200 390.602,141.200 390.788 C 141.200 390.975,142.459 391.340,143.999 391.600 C 145.538 391.859,146.891 392.223,147.005 392.408 C 147.119 392.593,148.200 392.867,149.406 393.018 C 150.613 393.169,151.600 393.437,151.600 393.614 C 151.600 393.791,152.770 394.062,154.200 394.215 C 155.630 394.368,156.800 394.635,156.800 394.807 C 156.800 394.980,157.925 395.250,159.300 395.407 C 160.675 395.563,162.077 395.837,162.415 396.014 C 162.753 396.192,165.273 396.564,168.015 396.841 C 170.757 397.118,173.092 397.478,173.204 397.641 C 173.316 397.804,175.797 398.067,178.716 398.226 C 181.635 398.384,184.119 398.668,184.235 398.857 C 184.512 399.305,215.200 399.306,215.200 398.858 C 215.200 398.670,217.672 398.388,220.693 398.231 C 223.714 398.075,226.279 397.811,226.393 397.646 C 226.507 397.480,228.849 397.118,231.599 396.840 C 234.348 396.561,236.778 396.191,236.999 396.016 C 237.219 395.842,238.480 395.569,239.800 395.411 C 241.120 395.252,242.380 394.982,242.600 394.811 C 242.820 394.639,244.032 394.374,245.294 394.221 C 246.555 394.069,247.683 393.789,247.800 393.600 C 247.917 393.411,249.000 393.133,250.206 392.982 C 251.413 392.831,252.400 392.577,252.400 392.418 C 252.400 392.259,253.659 391.903,255.199 391.628 C 256.738 391.353,258.089 390.980,258.201 390.799 C 258.313 390.618,259.123 390.348,260.002 390.200 C 260.881 390.051,261.600 389.786,261.600 389.610 C 261.600 389.435,262.410 389.169,263.400 389.021 C 264.390 388.872,265.200 388.593,265.200 388.400 C 265.200 388.207,266.010 387.928,267.000 387.779 C 267.990 387.631,268.800 387.370,268.800 387.199 C 268.800 387.029,269.430 386.771,270.200 386.626 C 270.970 386.482,271.600 386.229,271.600 386.065 C 271.600 385.900,272.455 385.544,273.500 385.273 C 274.545 385.002,275.940 384.528,276.600 384.220 C 279.088 383.057,280.735 382.400,281.160 382.400 C 281.402 382.400,281.600 382.228,281.600 382.018 C 281.600 381.808,282.230 381.518,283.000 381.374 C 283.770 381.229,284.400 380.951,284.400 380.755 C 284.400 380.560,284.622 380.400,284.894 380.400 C 285.451 380.400,289.689 378.356,290.004 377.936 C 290.116 377.786,290.701 377.540,291.304 377.388 C 291.907 377.237,292.400 376.967,292.400 376.788 C 292.400 376.610,292.925 376.348,293.567 376.207 C 294.208 376.066,294.826 375.709,294.940 375.413 C 295.053 375.117,295.698 374.754,296.373 374.606 C 297.048 374.458,297.600 374.210,297.600 374.056 C 297.600 373.902,298.095 373.562,298.700 373.302 C 299.881 372.794,301.275 371.954,301.600 371.554 C 301.710 371.419,302.205 371.181,302.700 371.027 C 303.195 370.872,303.600 370.578,303.600 370.373 C 303.600 370.168,303.842 370.000,304.139 370.000 C 304.435 370.000,305.093 369.640,305.600 369.200 C 306.107 368.760,306.771 368.400,307.074 368.400 C 307.377 368.400,307.722 368.146,307.841 367.836 C 307.961 367.526,308.495 367.163,309.029 367.028 C 309.563 366.894,310.000 366.608,310.000 366.392 C 310.000 366.177,310.276 366.000,310.613 366.000 C 310.949 366.000,311.329 365.730,311.455 365.400 C 311.582 365.070,311.942 364.800,312.255 364.800 C 312.569 364.800,312.922 364.546,313.041 364.236 C 313.161 363.926,313.674 363.568,314.182 363.440 C 314.691 363.313,315.677 362.676,316.374 362.025 C 317.071 361.374,317.992 360.730,318.420 360.594 C 318.849 360.457,319.200 360.173,319.200 359.960 C 319.200 359.748,319.515 359.459,319.900 359.317 C 320.285 359.176,320.996 358.641,321.481 358.130 C 321.965 357.618,322.505 357.200,322.681 357.200 C 322.983 357.199,323.813 356.567,326.600 354.215 C 327.260 353.658,328.250 352.835,328.800 352.387 C 331.934 349.833,333.593 348.266,340.929 340.929 C 348.480 333.379,350.550 331.181,352.295 328.864 C 352.683 328.349,353.585 327.341,354.300 326.624 C 355.015 325.906,355.600 325.127,355.600 324.893 C 355.600 324.658,355.735 324.407,355.900 324.333 C 356.065 324.260,356.730 323.480,357.378 322.600 C 358.026 321.720,358.791 320.856,359.078 320.680 C 359.365 320.504,359.600 320.182,359.600 319.963 C 359.600 319.745,359.779 319.349,359.997 319.083 C 362.338 316.235,363.191 315.057,363.409 314.371 C 363.551 313.924,364.147 313.065,364.733 312.462 C 365.320 311.858,366.160 310.653,366.600 309.782 C 367.040 308.912,367.625 308.056,367.900 307.880 C 368.175 307.704,368.400 307.327,368.400 307.041 C 368.400 306.756,368.760 306.107,369.200 305.600 C 369.640 305.093,370.000 304.435,370.000 304.139 C 370.000 303.842,370.177 303.600,370.392 303.600 C 370.608 303.600,370.898 303.150,371.036 302.600 C 371.174 302.050,371.447 301.600,371.643 301.600 C 371.840 301.600,372.000 301.324,372.000 300.987 C 372.000 300.651,372.259 300.276,372.576 300.154 C 372.892 300.033,373.266 299.408,373.407 298.767 C 373.548 298.125,373.796 297.600,373.957 297.600 C 374.119 297.600,374.498 296.970,374.800 296.200 C 375.102 295.430,375.481 294.800,375.643 294.800 C 375.804 294.800,376.055 294.260,376.200 293.600 C 376.345 292.940,376.610 292.400,376.788 292.400 C 376.967 292.400,377.237 291.907,377.388 291.304 C 377.540 290.701,377.786 290.116,377.936 290.004 C 378.356 289.689,380.400 285.451,380.400 284.894 C 380.400 284.622,380.572 284.400,380.782 284.400 C 380.992 284.400,381.282 283.770,381.426 283.000 C 381.571 282.230,381.835 281.600,382.013 281.600 C 382.191 281.600,382.455 281.060,382.600 280.400 C 382.745 279.740,383.029 279.200,383.232 279.200 C 383.434 279.200,383.600 278.816,383.600 278.347 C 383.600 277.878,383.938 276.933,384.351 276.247 C 384.765 275.561,385.223 274.325,385.369 273.500 C 385.516 272.675,385.792 272.000,385.983 272.000 C 386.174 272.000,386.451 271.280,386.600 270.400 C 386.749 269.520,387.011 268.800,387.184 268.800 C 387.357 268.800,387.613 268.080,387.754 267.200 C 387.894 266.320,388.172 265.600,388.370 265.600 C 388.568 265.600,388.851 264.881,389.000 264.002 C 389.148 263.123,389.418 262.312,389.600 262.200 C 389.782 262.088,390.056 261.232,390.210 260.298 C 390.364 259.364,390.642 258.411,390.828 258.180 C 391.014 257.948,391.395 256.553,391.674 255.080 C 391.954 253.606,392.301 252.400,392.445 252.400 C 392.590 252.400,392.831 251.413,392.982 250.206 C 393.133 249.000,393.411 247.917,393.600 247.800 C 393.789 247.683,394.068 246.598,394.219 245.388 C 394.370 244.179,394.642 243.098,394.823 242.986 C 395.005 242.873,395.277 241.526,395.428 239.991 C 395.580 238.456,395.838 237.200,396.002 237.200 C 396.166 237.200,396.533 234.815,396.817 231.900 C 397.101 228.985,397.472 226.507,397.640 226.393 C 397.809 226.279,398.075 223.714,398.231 220.693 C 398.388 217.672,398.670 215.200,398.858 215.200 C 399.046 215.200,399.200 208.360,399.200 200.000 C 399.200 191.640,399.046 184.800,398.858 184.800 C 398.670 184.800,398.388 182.328,398.231 179.307 C 398.075 176.286,397.809 173.721,397.640 173.607 C 397.472 173.493,397.101 171.015,396.817 168.100 C 396.533 165.185,396.166 162.800,396.002 162.800 C 395.838 162.800,395.580 161.544,395.428 160.009 C 395.277 158.474,395.005 157.127,394.823 157.014 C 394.642 156.902,394.370 155.821,394.219 154.612 C 394.068 153.402,393.789 152.317,393.600 152.200 C 393.411 152.083,393.133 151.000,392.982 149.794 C 392.831 148.587,392.590 147.600,392.445 147.600 C 392.301 147.600,391.954 146.394,391.674 144.920 C 391.395 143.447,391.014 142.052,390.828 141.820 C 390.642 141.589,390.364 140.636,390.210 139.702 C 390.056 138.768,389.782 137.912,389.600 137.800 C 389.418 137.688,389.148 136.877,389.000 135.998 C 388.851 135.119,388.568 134.400,388.370 134.400 C 388.172 134.400,387.894 133.680,387.754 132.800 C 387.613 131.920,387.357 131.200,387.184 131.200 C 387.011 131.200,386.749 130.480,386.600 129.600 C 386.451 128.720,386.168 128.000,385.970 128.000 C 385.772 128.000,385.492 127.268,385.349 126.373 C 385.206 125.478,384.833 124.490,384.520 124.177 C 384.207 123.864,383.848 122.976,383.723 122.204 C 383.598 121.432,383.353 120.800,383.179 120.800 C 383.006 120.800,382.745 120.260,382.600 119.600 C 382.455 118.940,382.191 118.400,382.013 118.400 C 381.835 118.400,381.571 117.770,381.426 117.000 C 381.282 116.230,381.020 115.600,380.845 115.600 C 380.670 115.600,380.311 114.880,380.047 114.000 C 379.784 113.120,379.409 112.400,379.216 112.400 C 379.022 112.400,378.745 111.860,378.600 111.200 C 378.455 110.540,378.185 110.000,378.000 110.000 C 377.815 110.000,377.545 109.460,377.400 108.800 C 377.255 108.140,376.985 107.600,376.800 107.600 C 376.615 107.600,376.345 107.060,376.200 106.400 C 376.055 105.740,375.804 105.200,375.643 105.200 C 375.481 105.200,375.102 104.570,374.800 103.800 C 374.498 103.030,374.119 102.400,373.957 102.400 C 373.796 102.400,373.548 101.875,373.407 101.233 C 373.266 100.592,372.892 99.967,372.576 99.846 C 372.259 99.724,372.000 99.349,372.000 99.013 C 372.000 98.676,371.840 98.400,371.643 98.400 C 371.447 98.400,371.174 97.950,371.036 97.400 C 370.898 96.850,370.608 96.400,370.392 96.400 C 370.177 96.400,370.000 96.158,370.000 95.861 C 370.000 95.565,369.640 94.907,369.200 94.400 C 368.760 93.893,368.400 93.244,368.400 92.959 C 368.400 92.673,368.175 92.296,367.900 92.120 C 367.625 91.944,367.040 91.088,366.600 90.218 C 366.160 89.347,365.320 88.142,364.733 87.538 C 364.147 86.935,363.555 86.088,363.418 85.657 C 363.281 85.226,362.638 84.272,361.989 83.537 C 361.339 82.801,360.704 81.885,360.577 81.500 C 360.450 81.115,360.178 80.800,359.973 80.800 C 359.768 80.800,359.600 80.539,359.600 80.220 C 359.600 79.901,359.365 79.496,359.078 79.320 C 358.791 79.144,358.026 78.280,357.378 77.400 C 356.730 76.520,356.065 75.740,355.900 75.667 C 355.735 75.593,355.600 75.310,355.600 75.036 C 355.600 74.763,354.970 74.014,354.200 73.372 C 353.430 72.730,352.800 72.064,352.800 71.892 C 352.800 71.719,352.224 70.946,351.520 70.172 C 350.815 69.398,349.960 68.397,349.620 67.947 C 348.684 66.711,333.079 51.131,331.755 50.109 C 331.120 49.620,329.970 48.673,329.200 48.005 C 325.691 44.963,322.958 42.800,322.623 42.800 C 322.479 42.800,321.945 42.350,321.435 41.800 C 320.925 41.250,320.344 40.800,320.143 40.800 C 319.942 40.800,319.470 40.440,319.093 40.000 C 318.716 39.560,318.179 39.200,317.900 39.200 C 317.621 39.200,317.168 38.840,316.893 38.400 C 316.618 37.960,316.125 37.600,315.797 37.600 C 315.468 37.600,315.200 37.423,315.200 37.208 C 315.200 36.992,314.763 36.706,314.229 36.572 C 313.695 36.437,313.161 36.074,313.041 35.764 C 312.922 35.454,312.549 35.200,312.213 35.200 C 311.876 35.200,311.600 35.030,311.600 34.822 C 311.600 34.461,310.444 33.718,308.500 32.831 C 308.005 32.605,307.600 32.235,307.600 32.010 C 307.600 31.784,307.358 31.600,307.061 31.600 C 306.765 31.600,306.107 31.240,305.600 30.800 C 305.093 30.360,304.435 30.000,304.139 30.000 C 303.842 30.000,303.600 29.832,303.600 29.627 C 303.600 29.422,303.195 29.128,302.700 28.973 C 302.205 28.819,301.710 28.581,301.600 28.446 C 301.266 28.035,299.926 27.272,297.300 25.998 C 295.925 25.330,294.800 24.622,294.800 24.424 C 294.800 24.226,294.260 23.945,293.600 23.800 C 292.940 23.655,292.400 23.390,292.400 23.212 C 292.400 23.033,291.907 22.763,291.304 22.612 C 290.701 22.460,290.116 22.214,290.004 22.064 C 289.689 21.644,285.451 19.600,284.894 19.600 C 284.622 19.600,284.400 19.440,284.400 19.245 C 284.400 19.049,283.770 18.771,283.000 18.626 C 282.230 18.482,281.600 18.192,281.600 17.982 C 281.600 17.772,281.402 17.600,281.160 17.600 C 280.735 17.600,279.088 16.943,276.600 15.780 C 275.940 15.472,274.545 14.998,273.500 14.727 C 272.455 14.456,271.600 14.100,271.600 13.935 C 271.600 13.771,270.970 13.518,270.200 13.374 C 269.430 13.229,268.800 12.971,268.800 12.801 C 268.800 12.630,267.990 12.369,267.000 12.221 C 266.010 12.072,265.200 11.793,265.200 11.600 C 265.200 11.407,264.390 11.128,263.400 10.979 C 262.410 10.831,261.600 10.565,261.600 10.390 C 261.600 10.214,260.881 9.949,260.002 9.800 C 259.123 9.652,258.313 9.382,258.201 9.201 C 258.089 9.020,256.738 8.647,255.199 8.372 C 253.659 8.097,252.400 7.741,252.400 7.582 C 252.400 7.423,251.413 7.169,250.206 7.018 C 249.000 6.867,247.917 6.589,247.800 6.400 C 247.683 6.211,246.555 5.931,245.294 5.779 C 244.032 5.626,242.820 5.361,242.600 5.189 C 242.380 5.018,241.120 4.748,239.800 4.589 C 238.480 4.431,237.219 4.158,236.999 3.984 C 236.778 3.809,234.348 3.439,231.599 3.160 C 228.849 2.882,226.507 2.520,226.393 2.354 C 226.279 2.189,223.714 1.925,220.693 1.769 C 217.672 1.612,215.200 1.330,215.200 1.142 C 215.200 0.694,184.512 0.695,184.235 1.143 M301.106 83.500 L 301.212 95.200 297.210 95.200 L 293.208 95.200 293.104 114.300 L 293.000 133.400 285.300 133.509 L 277.600 133.617 277.600 114.409 L 277.600 95.200 264.800 95.200 L 252.000 95.200 252.000 114.792 L 252.000 134.385 260.900 134.492 L 269.800 134.600 269.800 170.000 L 269.800 205.400 246.300 205.503 L 222.800 205.606 222.800 217.200 L 222.800 228.794 246.300 228.897 L 269.800 229.000 270.000 237.000 L 270.200 245.000 280.800 245.112 C 293.279 245.245,292.579 245.361,295.162 242.723 L 297.200 240.642 297.200 232.726 L 297.200 224.810 295.608 223.805 C 294.732 223.252,293.915 222.800,293.792 222.800 C 293.461 222.800,291.022 221.049,290.867 220.700 C 290.793 220.535,290.541 220.400,290.306 220.400 C 288.305 220.400,279.970 210.034,279.196 206.583 C 278.956 205.510,278.551 204.382,278.297 204.076 C 277.985 203.700,277.829 201.091,277.817 196.059 C 277.791 184.836,279.352 180.718,286.485 173.196 C 290.008 169.479,291.842 170.019,293.960 175.394 C 294.048 175.617,294.228 175.890,294.360 176.000 C 294.864 176.420,296.400 178.785,296.400 179.141 C 296.400 179.346,296.670 179.618,297.000 179.745 C 297.330 179.871,297.600 180.145,297.600 180.353 C 297.600 180.560,298.229 181.686,298.999 182.854 C 300.305 184.837,300.511 186.123,299.633 186.800 C 298.601 187.594,296.359 190.905,296.152 191.938 C 296.014 192.632,295.743 193.200,295.550 193.200 C 295.065 193.200,295.108 198.651,295.600 199.505 C 295.820 199.887,296.179 200.650,296.399 201.200 C 297.317 203.501,299.062 205.356,301.351 206.465 C 302.258 206.905,303.313 207.430,303.695 207.632 C 304.639 208.133,310.000 208.105,310.000 207.600 C 310.000 207.380,310.315 207.198,310.700 207.196 C 312.368 207.188,316.800 204.365,316.800 203.311 C 316.800 203.030,316.958 202.800,317.151 202.800 C 320.150 202.800,319.064 189.234,315.972 188.072 C 315.784 188.001,315.249 187.326,314.783 186.572 L 313.935 185.200 314.852 183.700 C 315.357 182.875,315.957 181.992,316.185 181.737 C 316.413 181.482,317.847 179.457,319.371 177.237 C 320.895 175.017,322.290 173.200,322.471 173.200 C 322.652 173.200,322.800 172.987,322.800 172.726 C 322.800 172.114,324.406 170.400,324.978 170.400 C 325.534 170.400,330.000 175.000,330.000 175.573 C 330.000 175.808,330.144 176.000,330.320 176.000 C 330.906 176.000,334.798 182.288,335.057 183.654 C 335.198 184.394,335.498 185.235,335.724 185.522 C 335.950 185.809,336.218 187.478,336.319 189.231 C 336.421 190.983,336.660 192.514,336.852 192.632 C 337.303 192.911,337.308 200.286,336.857 200.565 C 336.669 200.681,336.405 201.701,336.271 202.831 C 336.137 203.960,335.862 205.091,335.660 205.342 C 335.458 205.594,335.167 206.385,335.014 207.100 C 334.862 207.815,334.616 208.401,334.468 208.401 C 334.321 208.402,333.869 209.207,333.465 210.190 C 332.813 211.776,330.018 215.375,327.490 217.883 C 326.013 219.349,323.320 221.600,323.044 221.600 C 322.901 221.600,322.088 222.040,321.236 222.577 C 320.385 223.115,319.084 223.711,318.344 223.902 L 317.000 224.250 316.893 233.953 C 316.791 243.166,316.826 243.707,317.593 244.682 C 318.037 245.246,318.400 245.954,318.400 246.254 C 318.400 246.554,318.566 246.800,318.768 246.800 C 318.971 246.800,319.262 247.385,319.414 248.100 C 319.567 248.815,319.886 249.640,320.123 249.934 C 322.940 253.423,317.926 266.319,313.176 267.803 C 312.639 267.971,312.072 268.309,311.915 268.554 C 311.727 268.849,309.651 269.000,305.801 269.000 C 301.951 269.000,299.875 268.849,299.686 268.554 C 299.529 268.309,298.964 267.972,298.431 267.805 C 297.898 267.638,297.268 267.341,297.031 267.143 C 296.794 266.946,296.060 266.338,295.400 265.793 L 294.200 264.801 282.102 264.800 L 270.004 264.800 269.902 303.500 L 269.800 342.200 199.500 342.301 L 129.200 342.402 129.200 303.601 L 129.200 264.800 116.600 264.800 C 105.147 264.800,103.933 264.864,103.265 265.500 C 96.141 272.283,82.868 269.961,78.691 261.201 C 76.545 256.701,77.751 247.788,81.034 243.887 C 81.991 242.750,82.000 242.654,82.000 234.038 L 82.000 225.337 79.900 224.373 C 78.745 223.842,77.710 223.296,77.600 223.158 C 77.490 223.020,76.964 222.772,76.431 222.605 C 75.062 222.177,70.040 217.578,68.307 215.165 C 67.925 214.634,67.250 213.722,66.807 213.137 C 66.363 212.552,66.000 211.877,66.000 211.637 C 66.000 211.397,65.838 211.200,65.640 211.200 C 65.093 211.200,63.600 208.108,63.600 206.974 C 63.600 206.423,63.339 205.573,63.020 205.086 C 61.671 203.024,61.808 189.177,63.205 186.424 C 63.379 186.081,63.941 184.675,64.454 183.300 C 64.967 181.925,65.503 180.800,65.646 180.800 C 65.790 180.800,66.012 180.485,66.142 180.100 C 66.735 178.334,69.800 174.577,72.475 172.337 L 74.510 170.634 75.849 172.217 C 76.585 173.088,77.191 174.010,77.194 174.267 C 77.197 174.523,77.335 174.793,77.500 174.867 C 77.945 175.065,79.600 177.505,79.600 177.964 C 79.600 178.182,79.839 178.504,80.130 178.680 C 80.422 178.856,80.784 179.270,80.935 179.600 C 81.085 179.930,81.565 180.740,82.000 181.400 C 82.435 182.060,83.015 183.050,83.287 183.600 C 83.560 184.150,84.012 184.744,84.292 184.920 C 85.047 185.395,84.908 186.579,84.000 187.400 C 83.560 187.798,83.200 188.347,83.200 188.619 C 83.200 188.892,82.959 189.207,82.665 189.320 C 80.818 190.028,78.521 198.886,79.955 199.772 C 80.150 199.893,80.430 200.633,80.577 201.417 C 80.724 202.201,81.104 202.942,81.422 203.064 C 81.740 203.186,82.000 203.523,82.000 203.814 C 82.000 204.104,82.619 204.850,83.375 205.471 C 84.562 206.446,85.692 207.093,89.295 208.859 C 90.210 209.308,93.492 209.298,93.772 208.845 C 93.893 208.650,94.644 208.368,95.441 208.219 C 97.098 207.908,97.441 207.679,99.994 205.177 C 102.578 202.644,103.600 200.376,103.600 197.174 C 103.599 194.544,102.496 190.765,101.646 190.482 C 101.401 190.400,101.200 190.145,101.200 189.915 C 101.200 189.685,100.570 188.800,99.800 187.947 C 98.298 186.285,98.039 185.313,99.000 184.945 C 99.330 184.818,99.600 184.537,99.600 184.320 C 99.600 184.104,99.915 183.514,100.300 183.009 C 100.685 182.505,101.270 181.691,101.600 181.200 C 101.930 180.710,102.785 179.530,103.500 178.578 C 104.215 177.627,104.800 176.721,104.800 176.565 C 104.800 176.410,105.430 175.514,106.200 174.574 C 106.970 173.634,107.600 172.748,107.600 172.604 C 107.600 171.667,108.887 171.111,109.856 171.630 C 111.228 172.364,116.000 177.473,116.000 178.207 C 116.000 178.533,116.168 178.800,116.373 178.800 C 116.578 178.800,116.872 179.205,117.027 179.700 C 117.181 180.195,117.419 180.691,117.554 180.801 C 118.095 181.243,119.600 184.405,119.600 185.099 C 119.600 185.507,119.766 186.011,119.969 186.220 C 122.623 188.953,121.657 206.580,118.732 208.804 C 118.584 208.916,118.340 209.501,118.188 210.104 C 118.037 210.707,117.753 211.200,117.557 211.200 C 117.360 211.200,117.200 211.368,117.200 211.572 C 117.200 212.927,109.700 221.600,108.529 221.600 C 108.238 221.600,108.000 221.766,108.000 221.968 C 108.000 222.171,107.460 222.455,106.800 222.600 C 106.140 222.745,105.600 222.994,105.600 223.153 C 105.600 223.312,104.703 223.883,103.606 224.421 L 101.612 225.400 101.606 233.266 C 101.599 241.904,101.422 241.176,104.282 244.252 L 105.164 245.200 116.549 245.200 C 122.811 245.200,128.219 245.091,128.567 244.957 C 129.115 244.747,129.200 243.644,129.200 236.757 L 129.200 228.800 152.600 228.800 L 176.000 228.800 176.000 217.200 L 176.000 205.600 152.600 205.600 L 129.200 205.600 129.200 170.000 L 129.200 134.400 139.600 134.400 L 150.000 134.400 150.000 114.603 L 150.000 94.806 123.900 94.703 L 97.800 94.600 97.693 83.606 C 97.635 77.559,97.674 72.383,97.781 72.105 C 97.937 71.698,117.883 71.618,199.488 71.699 L 301.000 71.800 301.106 83.500 M158.800 150.654 C 157.387 151.117,153.200 153.375,153.200 153.673 C 153.200 153.853,152.948 154.000,152.640 154.000 C 152.332 154.000,151.207 154.965,150.140 156.144 C 148.390 158.077,147.704 159.192,145.942 162.961 C 145.197 164.556,145.197 173.444,145.942 175.039 C 146.241 175.678,146.867 177.010,147.335 178.000 C 148.258 179.955,152.652 184.800,153.501 184.800 C 153.789 184.800,154.129 185.070,154.255 185.400 C 154.382 185.730,154.656 186.000,154.865 186.000 C 155.073 186.000,156.040 186.362,157.012 186.805 C 158.753 187.599,159.422 187.609,200.290 187.505 L 241.800 187.400 243.714 186.172 C 247.873 183.502,250.346 180.494,252.864 175.039 C 253.535 173.587,253.602 164.554,252.952 163.161 C 252.706 162.632,252.088 161.250,251.578 160.088 C 250.483 157.592,247.195 154.217,243.782 152.087 L 241.400 150.600 200.400 150.529 C 177.850 150.489,159.130 150.546,158.800 150.654 M181.059 158.763 C 183.815 160.119,186.800 163.956,186.800 166.144 C 186.800 166.505,186.980 166.800,187.200 166.800 C 187.687 166.800,187.735 170.936,187.259 171.905 C 187.071 172.287,186.586 173.320,186.181 174.200 C 181.264 184.883,164.400 180.925,164.400 169.088 C 164.400 160.584,173.409 155.000,181.059 158.763 M228.200 158.773 C 230.122 159.857,232.000 161.567,232.000 162.232 C 232.000 162.497,232.270 162.818,232.600 162.945 C 232.930 163.071,233.200 163.505,233.200 163.907 C 233.200 164.310,233.422 164.862,233.694 165.134 C 236.135 167.575,231.883 179.200,228.548 179.200 C 228.283 179.200,227.994 179.419,227.904 179.687 C 227.572 180.685,219.598 180.617,217.568 179.600 C 215.558 178.592,213.200 176.499,213.200 175.722 C 213.200 175.435,213.062 175.200,212.894 175.200 C 212.310 175.200,211.200 171.282,211.200 169.221 C 211.200 163.961,214.305 159.752,219.600 157.833 C 221.127 157.280,226.617 157.880,228.200 158.773 " stroke="none" fill="#fc7c4c" fill-rule="evenodd"></path><path id="path2" d="M98.176 83.200 C 98.176 89.470,98.232 92.035,98.299 88.900 C 98.367 85.765,98.367 80.635,98.299 77.500 C 98.232 74.365,98.176 76.930,98.176 83.200 M264.496 95.100 L 277.592 95.211 277.700 114.305 L 277.808 133.400 277.904 114.100 L 278.000 94.800 264.700 94.894 L 251.400 94.989 264.496 95.100 M294.700 95.095 C 295.855 95.176,297.745 95.176,298.900 95.095 C 300.055 95.014,299.110 94.948,296.800 94.948 C 294.490 94.948,293.545 95.014,294.700 95.095 M292.585 114.600 C 292.585 124.940,292.636 129.227,292.700 124.128 C 292.763 119.028,292.763 110.568,292.700 105.328 C 292.637 100.087,292.585 104.260,292.585 114.600 M251.400 116.300 L 251.400 134.600 260.300 134.708 L 269.200 134.815 269.200 169.804 L 269.200 204.794 246.100 204.900 L 223.000 205.007 246.302 205.103 L 269.604 205.200 269.502 169.900 L 269.400 134.600 260.504 134.492 L 251.608 134.385 251.504 116.192 L 251.400 98.000 251.400 116.300 M139.800 134.390 L 129.400 134.600 129.298 169.900 L 129.196 205.200 136.098 205.110 L 143.000 205.021 136.300 204.901 L 129.600 204.781 129.600 169.790 L 129.600 134.800 140.000 134.800 C 146.667 134.800,150.400 134.656,150.400 134.400 C 150.400 134.180,150.355 134.040,150.300 134.090 C 150.245 134.139,145.520 134.274,139.800 134.390 M158.200 150.285 C 156.975 150.580,156.598 151.128,157.776 150.903 C 158.346 150.794,158.910 150.546,159.030 150.352 C 159.149 150.159,159.192 150.021,159.124 150.046 C 159.056 150.072,158.640 150.179,158.200 150.285 M247.309 154.378 C 248.579 155.543,249.974 156.949,250.409 157.502 C 250.844 158.055,251.200 158.331,251.200 158.115 C 251.200 157.650,246.768 153.235,245.723 152.659 C 245.325 152.439,246.039 153.213,247.309 154.378 M150.181 155.300 L 148.600 157.000 150.300 155.419 C 151.881 153.948,152.184 153.600,151.881 153.600 C 151.816 153.600,151.051 154.365,150.181 155.300 M173.646 157.963 C 173.305 158.179,173.842 158.241,175.046 158.124 C 177.755 157.860,178.133 157.668,176.000 157.638 C 175.010 157.624,173.951 157.770,173.646 157.963 M220.138 157.906 C 219.884 158.068,221.082 158.200,222.800 158.200 C 224.518 158.200,225.716 158.068,225.462 157.906 C 225.208 157.744,224.010 157.612,222.800 157.612 C 221.590 157.612,220.392 157.744,220.138 157.906 M171.314 158.740 C 170.150 159.081,166.936 161.788,166.357 162.915 C 166.107 163.402,166.555 163.051,167.352 162.135 C 168.150 161.220,169.612 160.078,170.601 159.599 C 171.590 159.121,172.400 158.655,172.400 158.564 C 172.400 158.474,172.355 158.418,172.300 158.440 C 172.245 158.462,171.801 158.597,171.314 158.740 M227.896 159.211 C 229.055 159.677,232.323 162.945,232.789 164.104 C 233.066 164.793,233.155 164.838,233.175 164.300 C 233.189 163.915,232.120 162.520,230.800 161.200 C 229.480 159.880,228.085 158.811,227.700 158.825 C 227.162 158.845,227.207 158.934,227.896 159.211 M182.600 160.238 C 183.040 160.657,183.625 161.259,183.900 161.576 C 184.194 161.916,184.400 161.968,184.400 161.704 C 184.400 161.457,183.815 160.854,183.100 160.365 C 182.145 159.712,182.012 159.678,182.600 160.238 M214.540 161.300 C 213.645 162.235,212.803 163.360,212.668 163.800 C 212.428 164.581,212.434 164.581,212.911 163.826 C 213.180 163.401,214.098 162.276,214.951 161.326 C 216.948 159.104,216.659 159.085,214.540 161.300 M252.856 162.000 C 252.856 162.330,253.011 162.960,253.200 163.400 C 253.417 163.904,253.544 163.978,253.544 163.600 C 253.544 163.270,253.389 162.640,253.200 162.200 C 252.983 161.696,252.856 161.622,252.856 162.000 M211.852 165.700 C 211.531 166.898,211.585 172.021,211.928 172.885 C 212.078 173.262,212.200 171.597,212.200 169.185 C 212.200 164.390,212.201 164.399,211.852 165.700 M186.662 167.000 C 186.796 167.880,186.972 168.675,187.053 168.767 C 187.356 169.110,187.129 166.968,186.781 166.200 C 186.529 165.642,186.493 165.885,186.662 167.000 M186.551 171.588 C 186.329 172.670,186.279 173.475,186.439 173.376 C 186.772 173.170,187.364 170.031,187.117 169.783 C 187.027 169.694,186.772 170.506,186.551 171.588 M323.000 172.579 C 321.947 173.811,321.162 174.896,321.255 174.989 C 321.348 175.081,322.211 174.140,323.173 172.897 L 324.922 170.636 327.935 173.818 C 329.592 175.568,330.569 176.460,330.105 175.800 C 329.641 175.140,328.284 173.641,327.088 172.470 L 324.914 170.339 323.000 172.579 M291.149 171.800 C 291.365 172.240,291.834 172.960,292.193 173.400 L 292.844 174.200 292.451 173.400 C 292.235 172.960,291.766 172.240,291.407 171.800 L 290.756 171.000 291.149 171.800 M75.756 172.873 C 76.330 173.684,76.800 174.539,76.800 174.773 C 76.800 175.008,76.986 175.200,77.214 175.200 C 77.747 175.200,77.193 174.199,75.776 172.600 L 74.711 171.400 75.756 172.873 M108.174 172.043 C 107.992 172.337,108.170 172.400,108.704 172.230 C 109.247 172.058,109.947 172.320,110.854 173.033 L 112.200 174.091 110.894 172.845 C 109.535 171.550,108.641 171.286,108.174 172.043 M286.400 173.400 C 285.428 174.390,284.756 175.200,284.906 175.200 C 285.056 175.200,285.989 174.390,286.979 173.400 C 287.969 172.410,288.641 171.600,288.473 171.600 C 288.304 171.600,287.372 172.410,286.400 173.400 M232.867 173.580 C 232.633 174.251,232.527 174.800,232.631 174.800 C 232.901 174.800,233.656 172.722,233.457 172.524 C 233.367 172.433,233.101 172.908,232.867 173.580 M69.799 175.300 C 68.551 176.675,67.351 178.160,67.133 178.600 C 66.914 179.040,67.242 178.770,67.861 178.000 C 68.480 177.230,69.780 175.745,70.748 174.700 C 71.717 173.655,72.410 172.800,72.288 172.800 C 72.167 172.800,71.046 173.925,69.799 175.300 M253.246 174.067 C 253.221 174.434,253.096 175.064,252.970 175.467 C 252.752 176.162,252.763 176.163,253.197 175.487 C 253.448 175.096,253.573 174.466,253.473 174.087 C 253.311 173.468,253.288 173.466,253.246 174.067 M212.840 174.800 C 213.490 176.226,215.595 178.370,217.000 179.040 C 217.660 179.354,217.841 179.384,217.402 179.106 C 216.374 178.455,213.550 175.632,212.892 174.598 C 212.453 173.909,212.446 173.936,212.840 174.800 M105.750 175.500 C 104.567 177.125,104.202 177.952,105.177 176.800 C 106.078 175.734,106.919 174.400,106.689 174.400 C 106.613 174.400,106.190 174.895,105.750 175.500 M184.024 176.518 C 182.343 178.489,182.329 178.525,183.757 177.200 C 185.023 176.026,186.318 174.354,185.914 174.418 C 185.851 174.428,185.001 175.373,184.024 176.518 M293.875 176.000 C 295.949 179.319,296.800 180.514,296.800 180.110 C 296.800 179.889,296.440 179.250,296.000 178.691 C 295.560 178.131,295.195 177.522,295.189 177.337 C 295.183 177.152,294.632 176.370,293.964 175.600 L 292.749 174.200 293.875 176.000 M77.859 176.100 C 78.855 177.726,80.000 179.264,80.000 178.977 C 80.000 178.596,77.979 175.600,77.722 175.600 C 77.629 175.600,77.691 175.825,77.859 176.100 M319.919 176.900 C 318.757 178.448,318.296 179.200,318.509 179.200 C 318.594 179.200,319.246 178.390,319.957 177.400 C 321.432 175.346,321.400 174.927,319.919 176.900 M229.400 178.000 C 229.002 178.440,228.434 178.800,228.138 178.800 C 227.842 178.800,227.600 178.986,227.600 179.214 C 227.600 179.485,227.843 179.498,228.304 179.251 C 229.040 178.858,230.672 177.200,230.324 177.200 C 230.214 177.200,229.798 177.560,229.400 178.000 M102.843 179.800 C 102.132 180.790,101.713 181.600,101.911 181.600 C 102.109 181.600,102.478 181.195,102.730 180.700 C 102.982 180.205,103.482 179.395,103.843 178.900 C 104.203 178.405,104.416 178.000,104.317 178.000 C 104.217 178.000,103.554 178.810,102.843 179.800 M281.711 179.300 C 281.239 179.910,280.758 181.200,281.002 181.200 C 281.100 181.200,281.459 180.660,281.800 180.000 C 282.439 178.765,282.394 178.417,281.711 179.300 M176.000 180.000 L 173.400 180.262 175.800 180.325 C 177.120 180.359,178.470 180.213,178.800 180.000 C 179.130 179.787,179.220 179.641,179.000 179.675 C 178.780 179.710,177.430 179.856,176.000 180.000 M219.062 180.100 C 219.164 180.265,220.756 180.400,222.600 180.400 C 224.444 180.400,226.036 180.265,226.138 180.100 C 226.240 179.935,224.648 179.800,222.600 179.800 C 220.552 179.800,218.960 179.935,219.062 180.100 M248.211 182.733 C 245.685 185.511,246.498 185.113,249.300 182.200 C 250.301 181.159,251.449 179.535,251.114 179.633 C 251.051 179.652,249.745 181.047,248.211 182.733 M150.486 182.998 C 151.743 184.298,152.829 185.281,152.900 185.181 C 152.971 185.082,151.943 184.017,150.615 182.817 L 148.200 180.633 150.486 182.998 M64.788 182.822 C 64.546 183.274,64.418 183.855,64.504 184.111 C 64.589 184.368,64.862 183.998,65.109 183.289 C 65.617 181.832,65.449 181.588,64.788 182.822 M100.550 183.100 C 99.367 184.725,99.002 185.552,99.977 184.400 C 100.878 183.334,101.719 182.000,101.489 182.000 C 101.413 182.000,100.990 182.495,100.550 183.100 M315.000 184.000 C 314.659 184.660,314.469 185.200,314.579 185.200 C 314.689 185.200,315.059 184.660,315.400 184.000 C 315.741 183.340,315.931 182.800,315.821 182.800 C 315.711 182.800,315.341 183.340,315.000 184.000 M334.718 184.426 C 334.814 185.077,335.019 185.688,335.174 185.784 C 335.329 185.879,335.377 185.425,335.282 184.774 C 335.186 184.123,334.981 183.512,334.826 183.416 C 334.671 183.321,334.623 183.775,334.718 184.426 M83.017 184.000 C 83.185 184.330,83.582 184.904,83.900 185.275 C 84.218 185.646,84.343 186.169,84.177 186.437 C 83.985 186.747,84.044 186.820,84.338 186.638 C 84.989 186.236,84.909 185.960,83.742 184.600 C 83.175 183.940,82.849 183.670,83.017 184.000 M278.878 186.050 C 278.648 186.958,278.607 187.543,278.788 187.350 C 279.161 186.952,279.760 184.400,279.480 184.400 C 279.380 184.400,279.109 185.143,278.878 186.050 M119.256 185.200 C 119.256 185.530,119.411 186.160,119.600 186.600 C 119.817 187.104,119.944 187.178,119.944 186.800 C 119.944 186.470,119.789 185.840,119.600 185.400 C 119.383 184.896,119.256 184.822,119.256 185.200 M315.113 186.604 C 315.517 187.392,317.200 189.109,317.200 188.734 C 317.200 188.630,316.638 187.927,315.950 187.172 C 315.263 186.417,314.886 186.162,315.113 186.604 M298.026 187.722 L 297.051 189.000 298.326 187.825 C 299.651 186.603,299.803 186.385,299.300 186.422 C 299.135 186.434,298.562 187.019,298.026 187.722 M156.400 187.031 C 156.400 187.301,158.478 188.056,158.676 187.857 C 158.767 187.767,158.292 187.501,157.620 187.267 C 156.949 187.033,156.400 186.927,156.400 187.031 M336.191 195.351 C 336.196 199.504,336.314 202.384,336.453 201.751 C 336.782 200.249,336.778 193.706,336.444 190.400 C 336.281 188.778,336.185 190.639,336.191 195.351 M81.753 189.300 C 80.272 191.811,80.270 191.818,81.329 190.600 C 82.301 189.481,82.639 188.800,82.224 188.800 C 82.127 188.800,81.915 189.025,81.753 189.300 M120.600 196.000 C 120.600 199.918,120.732 202.916,120.894 202.662 C 121.056 202.408,121.188 199.410,121.188 196.000 C 121.188 192.590,121.056 189.592,120.894 189.338 C 120.732 189.084,120.600 192.082,120.600 196.000 M277.843 189.433 C 277.525 190.262,277.604 199.530,277.940 200.728 C 278.083 201.238,278.200 198.763,278.200 195.228 C 278.200 191.693,278.174 188.801,278.143 188.801 C 278.111 188.800,277.976 189.085,277.843 189.433 M296.511 189.700 C 296.039 190.310,295.558 191.600,295.802 191.600 C 295.900 191.600,296.259 191.060,296.600 190.400 C 297.239 189.165,297.194 188.817,296.511 189.700 M62.252 190.500 C 61.932 191.694,61.987 197.735,62.339 200.000 C 62.509 201.100,62.614 199.429,62.609 195.701 C 62.599 189.091,62.605 189.182,62.252 190.500 M318.856 193.034 C 319.091 193.895,319.376 194.690,319.489 194.800 C 319.841 195.144,319.134 192.220,318.772 191.834 C 318.583 191.633,318.621 192.173,318.856 193.034 M79.614 193.174 C 79.386 193.599,79.221 194.454,79.246 195.074 C 79.287 196.089,79.319 196.061,79.569 194.786 C 79.721 194.009,79.981 193.154,80.147 192.886 C 80.312 192.619,80.353 192.400,80.238 192.400 C 80.122 192.400,79.842 192.748,79.614 193.174 M103.256 192.800 C 103.256 193.130,103.411 193.760,103.600 194.200 C 103.817 194.704,103.944 194.778,103.944 194.400 C 103.944 194.070,103.789 193.440,103.600 193.000 C 103.383 192.496,103.256 192.422,103.256 192.800 M295.043 193.033 C 294.695 193.940,294.742 199.517,295.100 199.738 C 295.265 199.840,295.400 198.231,295.400 196.162 C 295.400 192.090,295.401 192.099,295.043 193.033 M79.228 198.633 C 79.244 199.275,79.416 200.160,79.610 200.600 C 79.847 201.134,79.886 200.802,79.727 199.600 C 79.446 197.480,79.188 196.980,79.228 198.633 M103.286 200.661 C 103.039 201.465,102.996 201.960,103.190 201.761 C 103.582 201.361,104.189 199.200,103.910 199.200 C 103.814 199.200,103.532 199.858,103.286 200.661 M298.400 205.000 C 299.146 205.770,299.847 206.400,299.957 206.400 C 300.067 206.400,299.546 205.770,298.800 205.000 C 298.054 204.230,297.353 203.600,297.243 203.600 C 297.133 203.600,297.654 204.230,298.400 205.000 M315.775 204.865 C 314.602 206.128,314.602 206.129,315.683 205.365 C 316.279 204.944,316.858 204.375,316.970 204.100 C 317.281 203.341,317.058 203.484,315.775 204.865 M63.013 204.331 C 63.163 204.624,63.431 205.344,63.609 205.931 C 63.867 206.789,63.938 206.837,63.966 206.176 C 63.985 205.724,63.717 205.004,63.370 204.576 C 63.024 204.149,62.863 204.039,63.013 204.331 M119.879 204.700 C 119.569 205.253,119.132 207.402,119.380 207.154 C 119.677 206.856,120.405 204.400,120.196 204.400 C 120.114 204.400,119.971 204.535,119.879 204.700 M222.591 217.000 L 222.600 229.000 245.892 229.103 L 269.183 229.206 269.292 237.303 L 269.400 245.400 281.286 245.506 L 293.171 245.612 295.394 243.354 L 297.616 241.096 297.508 232.696 C 297.406 224.768,297.355 224.272,296.599 223.848 C 295.872 223.442,295.863 223.451,296.499 223.949 C 297.127 224.440,297.200 225.361,297.200 232.762 L 297.200 241.027 295.087 243.114 L 292.975 245.200 281.296 245.200 L 269.617 245.200 269.508 237.100 L 269.400 229.000 246.106 228.897 L 222.812 228.794 222.697 216.897 L 222.582 205.000 222.591 217.000 M303.462 208.100 C 303.564 208.265,305.156 208.400,307.000 208.400 C 308.844 208.400,310.436 208.265,310.538 208.100 C 310.640 207.935,309.048 207.800,307.000 207.800 C 304.952 207.800,303.360 207.935,303.462 208.100 M333.463 208.883 C 333.138 210.125,333.385 210.189,333.926 209.002 C 334.177 208.451,334.228 208.000,334.038 208.000 C 333.848 208.000,333.589 208.397,333.463 208.883 M89.462 209.300 C 89.564 209.465,90.627 209.600,91.824 209.600 C 93.021 209.600,94.000 209.465,94.000 209.300 C 94.000 209.135,92.937 209.000,91.638 209.000 C 90.339 209.000,89.360 209.135,89.462 209.300 M286.000 216.135 C 288.090 218.291,290.160 220.246,290.600 220.481 C 291.040 220.716,291.310 220.837,291.200 220.749 C 291.090 220.661,289.020 218.706,286.600 216.403 L 282.200 212.216 286.000 216.135 M115.163 214.100 C 114.673 214.815,113.895 215.861,113.436 216.424 C 112.976 216.987,113.290 216.721,114.134 215.834 C 115.602 214.290,116.637 212.800,116.241 212.800 C 116.139 212.800,115.653 213.385,115.163 214.100 M328.799 215.700 C 328.210 216.504,328.113 216.784,328.545 216.433 C 329.201 215.900,330.193 214.400,329.889 214.400 C 329.813 214.400,329.322 214.985,328.799 215.700 M71.577 218.490 C 72.774 219.750,73.839 220.695,73.943 220.590 C 74.048 220.486,74.055 220.355,73.958 220.300 C 73.862 220.245,72.797 219.300,71.592 218.200 L 69.400 216.200 71.577 218.490 M325.000 219.412 C 324.340 219.953,323.994 220.397,324.230 220.398 C 324.467 220.399,325.083 219.950,325.600 219.400 C 326.785 218.138,326.548 218.143,325.000 219.412 M108.800 220.860 C 108.030 221.535,107.762 221.905,108.204 221.681 C 108.935 221.311,110.747 219.578,110.362 219.616 C 110.273 219.625,109.570 220.185,108.800 220.860 M291.600 220.897 C 291.600 221.288,294.822 223.311,295.063 223.071 C 295.199 222.934,294.881 222.639,294.355 222.415 C 293.830 222.191,292.995 221.714,292.500 221.355 C 292.005 220.996,291.600 220.790,291.600 220.897 M76.400 222.179 C 76.400 222.289,76.940 222.659,77.600 223.000 C 78.260 223.341,78.800 223.531,78.800 223.421 C 78.800 223.311,78.260 222.941,77.600 222.600 C 76.940 222.259,76.400 222.069,76.400 222.179 M101.200 233.400 C 101.200 238.130,101.335 242.000,101.500 242.000 C 101.665 242.000,101.800 238.130,101.800 233.400 C 101.800 228.670,101.665 224.800,101.500 224.800 C 101.335 224.800,101.200 228.670,101.200 233.400 M82.565 235.400 C 82.566 239.360,82.626 240.926,82.698 238.880 C 82.771 236.834,82.771 233.594,82.698 231.680 C 82.624 229.766,82.565 231.440,82.565 235.400 M129.467 229.067 C 129.320 229.213,129.200 232.903,129.200 237.267 L 129.200 245.200 116.880 245.200 C 107.590 245.200,104.422 245.077,103.999 244.700 C 103.522 244.274,103.518 244.305,103.973 244.906 C 104.466 245.557,105.458 245.603,116.954 245.506 L 129.400 245.400 129.508 237.303 L 129.617 229.206 153.108 229.100 L 176.600 228.993 153.167 228.897 C 140.278 228.844,129.613 228.920,129.467 229.067 M80.723 244.700 C 79.960 245.589,79.495 246.400,79.749 246.400 C 79.857 246.400,80.330 245.860,80.800 245.200 C 81.732 243.891,81.684 243.581,80.723 244.700 M78.874 247.798 C 78.623 248.349,78.572 248.800,78.762 248.800 C 79.094 248.800,79.692 247.159,79.449 246.916 C 79.384 246.850,79.125 247.247,78.874 247.798 M319.268 249.200 C 319.288 250.239,319.918 251.946,319.932 251.000 C 319.938 250.560,319.789 249.840,319.600 249.400 C 319.389 248.910,319.261 248.832,319.268 249.200 M77.664 254.276 C 77.629 256.298,77.735 258.037,77.900 258.139 C 78.065 258.242,78.150 257.128,78.090 255.663 C 77.897 251.023,77.730 250.479,77.664 254.276 M78.867 260.820 C 79.101 261.492,79.367 261.967,79.457 261.876 C 79.656 261.678,78.901 259.600,78.631 259.600 C 78.527 259.600,78.633 260.149,78.867 260.820 M81.790 264.790 C 83.090 266.104,84.211 267.122,84.280 267.053 C 84.436 266.897,79.964 262.400,79.652 262.400 C 79.527 262.400,80.489 263.475,81.790 264.790 M315.487 265.307 C 313.392 267.522,313.845 267.596,316.008 265.392 C 316.975 264.406,317.594 263.624,317.383 263.653 C 317.172 263.683,316.319 264.427,315.487 265.307 M103.865 264.294 C 103.761 264.462,109.418 264.550,116.436 264.489 L 129.196 264.378 129.301 303.089 L 129.406 341.800 129.403 303.000 L 129.400 264.200 116.727 264.094 C 109.757 264.036,103.969 264.126,103.865 264.294 M281.981 264.300 C 293.833 264.409,294.186 264.435,295.081 265.276 C 295.586 265.751,296.000 266.002,296.000 265.834 C 296.000 264.195,294.614 264.024,282.000 264.107 L 269.800 264.188 281.981 264.300 M269.392 303.400 C 269.392 324.740,269.441 333.411,269.500 322.670 C 269.559 311.928,269.559 294.468,269.500 283.870 C 269.441 273.271,269.392 282.060,269.392 303.400 M98.600 267.786 C 97.940 268.088,97.681 268.350,98.024 268.368 C 98.366 268.385,98.996 268.136,99.424 267.813 C 100.388 267.083,100.151 267.076,98.600 267.786 M311.800 267.814 C 311.140 268.117,310.881 268.372,311.224 268.382 C 311.566 268.392,312.196 268.136,312.624 267.813 C 313.572 267.096,313.369 267.096,311.800 267.814 M90.534 269.335 C 91.660 269.547,93.162 269.553,94.125 269.350 C 95.540 269.051,95.258 268.998,92.191 268.986 C 88.905 268.973,88.764 269.002,90.534 269.335 M303.513 269.095 C 304.676 269.176,306.476 269.176,307.513 269.093 C 308.551 269.011,307.600 268.945,305.400 268.946 C 303.200 268.947,302.351 269.014,303.513 269.095 " stroke="none" fill="#fcf4f4" fill-rule="evenodd"></path><path id="path3" d="M199.394 71.900 L 300.788 72.002 300.903 83.301 L 301.018 94.600 301.009 83.200 L 301.000 71.800 199.500 71.799 L 98.000 71.798 199.394 71.900 M110.900 94.700 C 118.105 94.761,129.895 94.761,137.100 94.700 C 144.305 94.639,138.410 94.589,124.000 94.589 C 109.590 94.589,103.695 94.639,110.900 94.700 M150.185 114.600 C 150.185 125.380,150.237 129.733,150.300 124.272 C 150.363 118.812,150.363 109.992,150.300 104.672 C 150.237 99.353,150.185 103.820,150.185 114.600 M251.773 104.600 C 251.773 109.880,251.830 111.985,251.899 109.277 C 251.968 106.569,251.968 102.249,251.899 99.677 C 251.829 97.105,251.772 99.320,251.773 104.600 M292.953 99.800 C 292.953 102.440,293.018 103.468,293.097 102.084 C 293.175 100.701,293.174 98.541,293.095 97.284 C 293.016 96.028,292.952 97.160,292.953 99.800 M281.300 133.498 C 283.445 133.570,286.955 133.570,289.100 133.498 C 291.245 133.426,289.490 133.367,285.200 133.367 C 280.910 133.367,279.155 133.426,281.300 133.498 M179.531 150.300 C 190.822 150.359,209.182 150.359,220.331 150.300 C 231.479 150.241,222.240 150.193,199.800 150.193 C 177.360 150.193,168.239 150.241,179.531 150.300 M150.209 155.591 C 149.131 156.686,148.327 157.631,148.424 157.691 C 148.521 157.751,149.520 156.855,150.645 155.700 C 151.769 154.545,152.572 153.600,152.429 153.600 C 152.287 153.600,151.288 154.496,150.209 155.591 M167.375 161.300 L 166.200 162.600 167.500 161.425 C 168.215 160.779,168.800 160.194,168.800 160.125 C 168.800 159.816,168.470 160.088,167.375 161.300 M253.742 169.000 C 253.741 170.980,253.808 171.840,253.892 170.912 C 253.976 169.984,253.977 168.364,253.895 167.312 C 253.812 166.260,253.743 167.020,253.742 169.000 M144.937 169.000 C 144.939 170.760,145.009 171.430,145.093 170.489 C 145.178 169.549,145.177 168.109,145.091 167.289 C 145.005 166.470,144.936 167.240,144.937 169.000 M164.493 167.200 C 164.493 167.970,164.575 168.285,164.676 167.900 C 164.776 167.515,164.776 166.885,164.676 166.500 C 164.575 166.115,164.493 166.430,164.493 167.200 M187.320 169.200 C 187.320 170.410,187.395 170.905,187.487 170.300 C 187.578 169.695,187.578 168.705,187.487 168.100 C 187.395 167.495,187.320 167.990,187.320 169.200 M234.045 168.800 C 234.010 169.790,233.824 171.274,233.633 172.097 C 233.442 172.921,233.434 173.503,233.615 173.391 C 234.042 173.127,234.528 169.230,234.292 167.971 C 234.182 167.389,234.083 167.720,234.045 168.800 M211.301 169.000 C 211.305 169.880,211.387 170.193,211.483 169.695 C 211.579 169.198,211.575 168.478,211.475 168.095 C 211.375 167.713,211.296 168.120,211.301 169.000 M112.400 174.200 C 113.595 175.410,114.663 176.400,114.773 176.400 C 114.883 176.400,113.995 175.410,112.800 174.200 C 111.605 172.990,110.537 172.000,110.427 172.000 C 110.317 172.000,111.205 172.990,112.400 174.200 M70.181 174.500 L 68.600 176.200 70.300 174.619 C 71.881 173.148,72.184 172.800,71.881 172.800 C 71.816 172.800,71.051 173.565,70.181 174.500 M165.600 174.771 C 165.600 175.125,169.554 178.996,169.691 178.776 C 169.751 178.679,168.855 177.680,167.700 176.555 C 166.545 175.431,165.600 174.628,165.600 174.771 M230.822 176.926 L 228.644 179.400 230.553 177.600 C 232.131 176.112,233.575 174.322,233.114 174.426 C 233.051 174.440,232.020 175.565,230.822 176.926 M214.400 177.400 C 215.146 178.170,215.847 178.800,215.957 178.800 C 216.067 178.800,215.546 178.170,214.800 177.400 C 214.054 176.630,213.353 176.000,213.243 176.000 C 213.133 176.000,213.654 176.630,214.400 177.400 M317.523 179.900 C 316.818 180.721,316.290 181.600,316.501 181.600 C 316.583 181.600,317.049 181.060,317.537 180.400 C 318.501 179.096,318.492 178.772,317.523 179.900 M148.400 180.525 C 148.400 180.594,148.985 181.179,149.700 181.825 L 151.000 183.000 149.825 181.700 C 148.730 180.488,148.400 180.216,148.400 180.525 M98.800 186.664 C 98.800 186.882,99.295 187.497,99.900 188.030 L 101.000 189.000 100.000 187.800 C 99.450 187.140,98.955 186.525,98.900 186.433 C 98.845 186.342,98.800 186.445,98.800 186.664 M179.331 187.900 C 190.732 187.959,209.272 187.959,220.531 187.900 C 231.789 187.841,222.460 187.793,199.800 187.793 C 177.140 187.793,167.929 187.841,179.331 187.900 M103.724 197.000 C 103.726 198.320,103.801 198.812,103.890 198.093 C 103.979 197.374,103.977 196.294,103.886 195.693 C 103.795 195.092,103.722 195.680,103.724 197.000 M319.309 196.400 C 319.309 197.390,319.387 197.795,319.482 197.300 C 319.578 196.805,319.578 195.995,319.482 195.500 C 319.387 195.005,319.309 195.410,319.309 196.400 M62.493 202.800 C 62.493 203.570,62.575 203.885,62.676 203.500 C 62.776 203.115,62.776 202.485,62.676 202.100 C 62.575 201.715,62.493 202.030,62.493 202.800 M278.000 202.776 C 278.000 203.423,278.142 204.041,278.316 204.148 C 278.490 204.256,278.561 203.727,278.473 202.972 C 278.276 201.291,278.000 201.177,278.000 202.776 M100.226 205.113 C 98.815 206.803,98.788 206.875,99.960 205.800 C 101.071 204.782,102.288 203.170,101.914 203.213 C 101.851 203.220,101.092 204.075,100.226 205.113 M140.900 205.500 C 147.225 205.562,157.575 205.562,163.900 205.500 C 170.225 205.438,165.050 205.387,152.400 205.387 C 139.750 205.387,134.575 205.438,140.900 205.500 M234.300 205.500 C 240.735 205.562,251.265 205.562,257.700 205.500 C 264.135 205.438,258.870 205.387,246.000 205.387 C 233.130 205.387,227.865 205.438,234.300 205.500 M176.177 217.400 C 176.177 223.780,176.232 226.334,176.299 223.076 C 176.367 219.817,176.366 214.597,176.299 211.476 C 176.231 208.354,176.176 211.020,176.177 217.400 M94.800 208.400 C 93.976 208.664,93.941 208.726,94.600 208.754 C 95.040 208.773,95.670 208.613,96.000 208.400 C 96.701 207.947,96.214 207.947,94.800 208.400 M286.200 216.800 C 287.506 218.120,288.665 219.200,288.775 219.200 C 288.885 219.200,287.906 218.120,286.600 216.800 C 285.294 215.480,284.135 214.400,284.025 214.400 C 283.915 214.400,284.894 215.480,286.200 216.800 M111.600 218.600 C 109.961 220.250,108.710 221.600,108.820 221.600 C 108.930 221.600,110.361 220.250,112.000 218.600 C 113.639 216.950,114.890 215.600,114.780 215.600 C 114.670 215.600,113.239 216.950,111.600 218.600 M81.315 224.933 C 81.969 225.461,82.020 226.259,81.915 234.317 C 81.852 239.161,81.935 243.041,82.100 242.939 C 82.984 242.391,82.416 225.236,81.500 224.792 C 80.677 224.393,80.661 224.405,81.315 224.933 M316.573 234.200 C 316.573 239.480,316.630 241.585,316.699 238.877 C 316.768 236.169,316.768 231.849,316.699 229.277 C 316.629 226.705,316.572 228.920,316.573 234.200 M320.472 254.600 C 320.426 255.920,320.296 257.450,320.183 258.000 L 319.977 259.000 320.406 258.019 C 320.641 257.480,320.771 255.950,320.694 254.619 L 320.554 252.200 320.472 254.600 M80.000 263.325 C 80.000 263.394,80.585 263.979,81.300 264.625 L 82.600 265.800 81.425 264.500 C 80.330 263.288,80.000 263.016,80.000 263.325 M309.800 268.800 C 309.296 269.017,309.222 269.144,309.600 269.144 C 309.930 269.144,310.560 268.989,311.000 268.800 C 311.504 268.583,311.578 268.456,311.200 268.456 C 310.870 268.456,310.240 268.611,309.800 268.800 M164.500 342.300 C 183.805 342.357,215.395 342.357,234.700 342.300 C 254.005 342.243,238.210 342.196,199.600 342.196 C 160.990 342.196,145.195 342.243,164.500 342.300 " stroke="none" fill="#fcc078" fill-rule="evenodd"></path><path id="path4" d="M97.776 83.200 C 97.776 89.470,97.832 92.035,97.899 88.900 C 97.967 85.765,97.967 80.635,97.899 77.500 C 97.832 74.365,97.776 76.930,97.776 83.200 M292.978 120.600 C 292.979 127.640,293.033 130.464,293.099 126.875 C 293.166 123.286,293.166 117.526,293.099 114.075 C 293.033 110.624,292.978 113.560,292.978 120.600 M251.773 124.600 C 251.773 130.100,251.830 132.405,251.899 129.723 C 251.968 127.041,251.968 122.541,251.899 119.723 C 251.830 116.905,251.774 119.100,251.773 124.600 M269.600 170.080 C 269.490 189.594,269.536 205.424,269.702 205.258 C 269.868 205.092,269.958 189.126,269.902 169.778 L 269.800 134.600 269.600 170.080 M121.354 195.600 C 121.354 198.350,121.418 199.475,121.496 198.100 C 121.574 196.725,121.574 194.475,121.496 193.100 C 121.418 191.725,121.354 192.850,121.354 195.600 M336.946 196.600 C 336.947 198.800,337.014 199.649,337.095 198.487 C 337.176 197.324,337.176 195.524,337.093 194.487 C 337.011 193.449,336.945 194.400,336.946 196.600 M269.679 236.876 C 269.636 241.208,269.735 244.837,269.900 244.939 C 270.065 245.042,270.153 242.757,270.096 239.863 C 269.901 230.005,269.759 228.987,269.679 236.876 M103.861 264.700 C 103.759 264.865,107.303 264.954,111.738 264.898 C 127.075 264.703,128.549 264.571,116.324 264.486 C 109.572 264.438,103.964 264.535,103.861 264.700 M269.784 264.900 C 269.679 265.175,269.641 282.680,269.699 303.800 L 269.804 342.200 269.902 303.506 L 270.000 264.812 282.300 264.700 L 294.600 264.588 282.287 264.494 C 272.736 264.421,269.932 264.512,269.784 264.900 " stroke="none" fill="#fc7c7c" fill-rule="evenodd"></path></g></svg>