<svg id="svg" version="1.1" xmlns="http://www.w3.org/2000/svg" xmlns:xlink="http://www.w3.org/1999/xlink" width="400" height="400" viewBox="0, 0, 400,400"><g id="svgg"><path id="path0" d="M149.294 71.899 L 98.388 72.003 98.494 83.502 L 98.600 95.000 124.700 95.103 L 150.800 95.206 150.800 114.554 L 150.800 133.902 200.100 134.192 C 227.215 134.352,250.030 134.419,250.800 134.341 L 252.200 134.200 252.400 114.800 L 252.600 95.400 277.106 95.297 L 301.612 95.194 301.506 83.497 L 301.400 71.800 250.800 71.798 C 222.970 71.796,177.292 71.842,149.294 71.899 M173.400 157.950 C 168.290 159.295,164.532 164.528,164.891 169.800 C 165.894 184.546,187.797 183.973,187.796 169.200 C 187.796 161.442,180.827 155.996,173.400 157.950 M219.997 157.974 C 209.133 161.279,209.009 176.788,219.820 180.189 C 231.819 183.963,240.322 168.689,230.859 160.359 C 228.188 158.008,223.366 156.949,219.997 157.974 M176.400 217.600 L 176.400 228.800 200.000 228.800 L 223.600 228.800 223.600 217.600 L 223.600 206.400 200.000 206.400 L 176.400 206.400 176.400 217.600 M297.837 224.297 C 297.486 224.647,297.549 243.689,297.900 243.533 C 298.065 243.460,299.456 242.770,300.991 242.000 C 305.709 239.634,311.353 239.879,315.401 242.627 C 316.190 243.162,317.008 243.600,317.218 243.600 C 317.450 243.600,317.600 239.820,317.600 233.956 L 317.600 224.312 316.300 224.515 C 315.585 224.627,313.740 224.940,312.200 225.210 C 308.917 225.786,302.707 225.496,299.937 224.638 C 298.912 224.320,297.967 224.167,297.837 224.297 M82.800 233.753 C 82.800 238.949,82.938 243.200,83.107 243.200 C 83.276 243.200,84.041 242.790,84.807 242.289 C 87.727 240.379,94.350 239.505,96.916 240.690 C 100.276 242.243,101.600 242.970,101.600 243.263 C 101.600 243.448,101.780 243.600,102.000 243.600 C 102.256 243.600,102.400 240.118,102.400 233.953 L 102.400 224.307 101.300 224.578 C 97.752 225.453,95.822 225.709,92.600 225.732 C 89.397 225.755,88.017 225.571,83.900 224.573 L 82.800 224.307 82.800 233.753 M104.000 245.180 C 104.000 245.396,104.540 246.424,105.200 247.464 C 105.860 248.505,106.400 249.671,106.400 250.055 C 106.400 250.439,106.580 250.864,106.800 251.000 C 107.021 251.136,107.200 252.930,107.200 255.000 C 107.200 257.070,107.021 258.864,106.800 259.000 C 106.580 259.136,106.400 259.561,106.400 259.945 C 106.400 260.329,105.860 261.495,105.200 262.536 C 104.540 263.576,104.000 264.514,104.000 264.620 C 104.000 264.725,109.625 264.764,116.500 264.706 L 129.000 264.600 129.000 254.800 L 129.000 245.000 116.500 244.894 C 108.536 244.827,104.000 244.931,104.000 245.180 M270.667 245.067 C 270.520 245.213,270.400 249.713,270.400 255.067 L 270.400 264.800 283.200 264.800 C 296.797 264.800,296.610 264.830,295.286 262.862 C 292.035 258.031,292.011 252.143,295.220 247.200 C 296.887 244.633,297.693 244.800,283.654 244.800 C 276.658 244.800,270.813 244.920,270.667 245.067 " stroke="none" fill="#0b3862" fill-rule="evenodd"></path><path id="path1" d="M252.681 134.443 C 252.186 134.731,232.909 134.821,190.881 134.731 L 129.800 134.600 129.675 156.000 C 129.606 167.770,129.672 183.746,129.821 191.501 L 130.093 205.602 199.947 205.501 L 269.800 205.400 269.902 170.025 C 269.983 141.989,269.900 134.584,269.502 134.331 C 268.742 133.849,253.528 133.950,252.681 134.443 M239.668 149.840 C 259.862 154.945,259.665 183.546,239.400 188.641 C 235.949 189.509,161.798 188.941,159.200 188.027 C 142.455 182.135,140.206 158.777,155.717 151.842 C 156.863 151.330,158.340 150.663,159.000 150.359 C 161.285 149.307,235.668 148.829,239.668 149.840 M74.845 173.430 C 59.374 185.060,60.082 209.525,76.198 220.186 C 84.036 225.372,94.691 226.726,102.400 223.518 C 120.198 216.111,126.712 196.059,116.393 180.444 C 112.430 174.447,106.400 169.857,106.400 172.839 C 106.400 173.027,105.860 174.359,105.200 175.800 C 104.540 177.241,104.000 178.507,104.000 178.614 C 104.000 178.721,103.652 179.572,103.226 180.504 C 99.598 188.457,99.738 187.968,100.763 189.068 C 107.159 195.934,102.086 207.280,92.600 207.326 C 83.160 207.372,78.085 197.679,83.477 189.905 L 84.792 188.009 83.975 185.937 C 83.526 184.797,82.789 183.040,82.337 182.032 C 81.885 181.025,81.286 179.660,81.004 179.000 C 80.723 178.340,80.140 176.990,79.708 176.000 C 79.276 175.010,78.671 173.615,78.364 172.900 C 77.659 171.262,77.746 171.249,74.845 173.430 M289.971 173.716 C 285.996 176.720,281.752 182.726,280.443 187.200 C 280.154 188.190,279.755 189.413,279.558 189.919 C 279.098 191.100,279.090 201.672,279.549 202.881 C 279.741 203.387,280.113 204.520,280.377 205.400 C 282.059 211.010,289.867 220.800,292.661 220.800 C 292.921 220.800,293.193 220.935,293.267 221.100 C 293.423 221.452,296.476 222.945,298.200 223.512 C 301.931 224.740,302.834 224.846,308.200 224.688 C 314.955 224.489,315.800 224.322,319.500 222.457 C 323.735 220.322,324.745 219.618,327.607 216.800 C 338.857 205.723,339.124 187.668,328.201 176.564 C 323.562 171.848,322.485 171.312,321.647 173.300 C 321.346 174.015,320.517 175.950,319.806 177.600 C 319.095 179.250,317.911 182.040,317.174 183.800 C 316.438 185.560,315.687 187.205,315.506 187.455 C 315.306 187.731,315.576 188.386,316.190 189.115 C 318.945 192.389,319.621 197.266,317.837 201.000 C 316.629 203.528,313.877 206.400,312.662 206.400 C 312.371 206.400,312.005 206.529,311.847 206.686 C 310.437 208.097,305.588 207.974,302.477 206.449 C 296.256 203.400,294.135 193.622,298.781 189.417 C 300.041 188.277,300.034 188.241,297.108 181.600 C 296.672 180.610,296.046 179.170,295.716 178.400 C 294.904 176.504,293.577 173.529,293.228 172.824 C 292.744 171.845,292.276 171.973,289.971 173.716 M129.966 237.100 C 129.947 241.445,129.888 266.825,129.834 293.500 L 129.737 342.000 199.869 342.000 L 270.000 342.000 270.000 285.600 L 270.000 229.200 200.000 229.200 L 130.000 229.200 129.966 237.100 M87.769 241.348 C 81.197 243.762,77.130 250.712,78.368 257.412 C 81.508 274.395,106.600 272.252,106.600 255.000 C 106.600 248.265,103.530 244.008,96.681 241.251 C 95.272 240.683,89.404 240.747,87.769 241.348 M303.800 241.297 C 289.396 246.237,290.324 265.818,305.106 268.849 C 311.390 270.137,320.800 264.609,320.800 259.629 C 320.800 259.199,320.980 258.736,321.200 258.600 C 321.420 258.464,321.600 256.844,321.600 255.000 C 321.600 253.156,321.420 251.536,321.200 251.400 C 320.980 251.264,320.800 250.814,320.800 250.399 C 320.800 248.728,316.589 243.200,315.317 243.200 C 315.033 243.200,314.800 243.064,314.800 242.898 C 314.800 242.587,313.673 242.079,311.172 241.265 C 309.459 240.708,305.468 240.725,303.800 241.297 " stroke="none" fill="#f3f3f3" fill-rule="evenodd"></path><path id="path2" d="M178.300 0.275 C 176.375 0.361,174.800 0.604,174.800 0.816 C 174.800 1.027,173.551 1.200,172.024 1.200 C 170.497 1.200,169.136 1.380,169.000 1.600 C 168.864 1.820,167.683 2.000,166.376 2.000 C 165.059 2.000,164.000 2.178,164.000 2.400 C 164.000 2.620,163.100 2.800,162.000 2.800 C 160.900 2.800,160.000 2.980,160.000 3.200 C 160.000 3.420,159.201 3.600,158.224 3.600 C 157.247 3.600,156.336 3.780,156.200 4.000 C 156.064 4.220,155.243 4.400,154.376 4.400 C 153.509 4.400,152.800 4.580,152.800 4.800 C 152.800 5.020,152.080 5.200,151.200 5.200 C 150.320 5.200,149.600 5.380,149.600 5.600 C 149.600 5.820,148.880 6.000,148.000 6.000 C 147.120 6.000,146.400 6.180,146.400 6.400 C 146.400 6.620,145.961 6.800,145.424 6.800 C 144.887 6.800,144.336 6.980,144.200 7.200 C 144.064 7.420,143.333 7.600,142.576 7.600 C 141.819 7.600,141.200 7.780,141.200 8.000 C 141.200 8.220,140.690 8.400,140.067 8.400 C 139.443 8.400,138.801 8.533,138.638 8.695 C 138.476 8.857,138.131 9.002,137.872 9.016 C 137.210 9.053,135.154 9.599,134.200 9.991 C 132.939 10.508,130.620 11.387,130.400 11.430 C 129.970 11.514,128.566 12.077,127.905 12.429 C 127.523 12.633,126.848 12.800,126.405 12.800 C 125.962 12.800,125.600 12.980,125.600 13.200 C 125.600 13.420,125.240 13.600,124.800 13.600 C 124.360 13.600,124.000 13.780,124.000 14.000 C 124.000 14.220,123.561 14.400,123.024 14.400 C 122.487 14.400,121.936 14.580,121.800 14.800 C 121.664 15.020,121.203 15.200,120.776 15.200 C 120.349 15.200,120.000 15.380,120.000 15.600 C 120.000 15.820,119.640 16.000,119.200 16.000 C 118.760 16.000,118.400 16.180,118.400 16.400 C 118.400 16.620,118.128 16.800,117.795 16.800 C 117.207 16.800,116.782 16.967,114.905 17.938 C 114.413 18.192,113.738 18.400,113.405 18.400 C 113.072 18.400,112.799 18.535,112.799 18.700 C 112.798 18.865,111.808 19.450,110.600 20.000 C 109.392 20.550,108.402 21.135,108.401 21.300 C 108.401 21.465,108.040 21.600,107.600 21.600 C 107.160 21.600,106.800 21.780,106.800 22.000 C 106.800 22.220,106.440 22.400,106.000 22.400 C 105.560 22.400,105.200 22.580,105.200 22.800 C 105.200 23.020,104.964 23.200,104.675 23.200 C 104.387 23.200,103.764 23.560,103.292 24.000 C 102.820 24.440,102.251 24.800,102.027 24.800 C 101.333 24.800,98.000 26.541,98.000 26.903 C 98.000 27.092,97.820 27.136,97.600 27.000 C 97.380 26.864,97.200 26.943,97.200 27.176 C 97.200 27.409,96.939 27.600,96.620 27.600 C 96.301 27.600,95.856 27.915,95.632 28.300 C 95.408 28.685,95.219 28.853,95.212 28.673 C 95.205 28.493,94.677 28.718,94.038 29.173 C 93.399 29.628,92.719 30.000,92.527 30.000 C 92.334 30.000,91.917 30.360,91.600 30.800 C 91.283 31.240,90.743 31.600,90.400 31.600 C 90.057 31.600,89.517 31.960,89.200 32.400 C 88.883 32.840,88.343 33.200,88.000 33.200 C 87.657 33.200,87.117 33.560,86.800 34.000 C 86.483 34.440,86.012 34.800,85.754 34.800 C 85.496 34.800,84.707 35.340,84.000 36.000 C 83.293 36.660,82.504 37.200,82.246 37.200 C 81.988 37.200,81.517 37.560,81.200 38.000 C 80.883 38.440,80.385 38.800,80.094 38.800 C 79.430 38.800,77.562 40.629,77.891 40.958 C 78.024 41.091,77.826 41.200,77.450 41.200 C 76.756 41.200,76.543 41.344,74.349 43.300 C 73.671 43.905,72.975 44.400,72.802 44.400 C 72.630 44.400,71.704 45.169,70.745 46.110 C 69.785 47.050,68.370 48.263,67.600 48.805 C 65.682 50.155,62.004 53.870,62.296 54.162 C 62.426 54.293,62.310 54.400,62.038 54.400 C 61.395 54.400,60.364 55.431,60.686 55.752 C 60.822 55.889,60.673 56.000,60.355 56.000 C 60.037 56.000,59.512 56.384,59.188 56.854 C 58.865 57.323,58.365 57.908,58.078 58.154 C 56.089 59.856,49.607 66.454,48.799 67.600 C 48.255 68.370,47.043 69.770,46.105 70.711 C 45.167 71.651,44.400 72.622,44.400 72.867 C 44.400 73.113,43.905 73.816,43.300 74.431 C 41.858 75.895,41.200 76.707,41.200 77.023 C 41.200 77.164,40.660 77.783,40.000 78.400 C 39.340 79.017,38.800 79.769,38.800 80.072 C 38.800 80.375,38.440 80.883,38.000 81.200 C 37.560 81.517,37.200 81.980,37.200 82.229 C 37.200 82.478,36.660 83.246,36.000 83.937 C 35.340 84.628,34.800 85.425,34.800 85.708 C 34.800 85.991,34.440 86.483,34.000 86.800 C 33.560 87.117,33.200 87.657,33.200 88.000 C 33.200 88.343,32.840 88.883,32.400 89.200 C 31.960 89.517,31.600 90.057,31.600 90.400 C 31.600 90.743,31.240 91.283,30.800 91.600 C 30.360 91.917,30.000 92.371,30.000 92.610 C 30.000 92.848,29.444 93.798,28.765 94.721 C 28.086 95.645,27.681 96.406,27.865 96.413 C 28.049 96.420,27.910 96.646,27.556 96.916 C 26.877 97.433,24.800 101.268,24.800 102.003 C 24.800 102.240,24.440 102.820,24.000 103.292 C 23.560 103.764,23.200 104.387,23.200 104.675 C 23.200 104.964,23.020 105.200,22.800 105.200 C 22.580 105.200,22.400 105.560,22.400 106.000 C 22.400 106.440,22.220 106.800,22.000 106.800 C 21.780 106.800,21.600 107.160,21.600 107.600 C 21.600 108.040,21.454 108.400,21.275 108.400 C 21.096 108.400,20.702 109.030,20.400 109.800 C 20.098 110.570,19.704 111.200,19.525 111.200 C 19.346 111.200,19.200 111.560,19.200 112.000 C 19.200 112.440,19.020 112.800,18.800 112.800 C 18.580 112.800,18.400 113.149,18.400 113.576 C 18.400 114.003,18.220 114.464,18.000 114.600 C 17.780 114.736,17.600 115.197,17.600 115.624 C 17.600 116.051,17.420 116.400,17.200 116.400 C 16.980 116.400,16.800 116.850,16.800 117.400 C 16.800 117.950,16.620 118.400,16.400 118.400 C 16.180 118.400,16.000 118.760,16.000 119.200 C 16.000 119.640,15.820 120.000,15.600 120.000 C 15.380 120.000,15.200 120.349,15.200 120.776 C 15.200 121.203,15.020 121.664,14.800 121.800 C 14.580 121.936,14.400 122.361,14.400 122.744 C 14.400 123.619,13.501 125.593,13.100 125.597 C 12.935 125.599,12.800 125.962,12.800 126.405 C 12.800 126.848,12.641 127.523,12.447 127.905 C 11.971 128.840,11.382 130.307,10.800 132.000 C 10.536 132.770,10.177 133.760,10.003 134.200 C 9.285 136.018,8.400 139.355,8.400 140.246 C 8.400 140.771,8.220 141.200,8.000 141.200 C 7.780 141.200,7.600 141.819,7.600 142.576 C 7.600 143.333,7.420 144.064,7.200 144.200 C 6.980 144.336,6.800 144.876,6.800 145.400 C 6.800 145.924,6.620 146.464,6.400 146.600 C 6.180 146.736,6.000 147.467,6.000 148.224 C 6.000 148.981,5.820 149.600,5.600 149.600 C 5.380 149.600,5.200 150.320,5.200 151.200 C 5.200 152.080,5.020 152.800,4.800 152.800 C 4.580 152.800,4.400 153.509,4.400 154.376 C 4.400 155.243,4.220 156.064,4.000 156.200 C 3.780 156.336,3.600 157.247,3.600 158.224 C 3.600 159.201,3.420 160.000,3.200 160.000 C 2.980 160.000,2.800 160.900,2.800 162.000 C 2.800 163.100,2.620 164.000,2.400 164.000 C 2.180 164.000,2.000 164.979,2.000 166.176 C 2.000 167.373,1.820 168.464,1.600 168.600 C 1.380 168.736,1.200 170.172,1.200 171.790 C 1.200 173.789,1.040 174.787,0.700 174.900 C -0.032 175.144,-0.032 224.856,0.700 225.100 C 1.035 225.212,1.200 226.171,1.200 228.010 C 1.200 229.518,1.380 230.864,1.600 231.000 C 1.820 231.136,2.000 232.227,2.000 233.424 C 2.000 234.621,2.180 235.600,2.400 235.600 C 2.620 235.600,2.800 236.590,2.800 237.800 C 2.800 239.010,2.980 240.000,3.200 240.000 C 3.420 240.000,3.600 240.709,3.600 241.576 C 3.600 242.443,3.780 243.264,4.000 243.400 C 4.220 243.536,4.400 244.447,4.400 245.424 C 4.400 246.401,4.580 247.200,4.800 247.200 C 5.020 247.200,5.200 247.920,5.200 248.800 C 5.200 249.680,5.380 250.400,5.600 250.400 C 5.820 250.400,6.000 251.120,6.000 252.000 C 6.000 252.880,6.180 253.600,6.400 253.600 C 6.620 253.600,6.800 254.140,6.800 254.800 C 6.800 255.460,6.980 256.000,7.200 256.000 C 7.420 256.000,7.600 256.630,7.600 257.400 C 7.600 258.170,7.780 258.800,8.000 258.800 C 8.220 258.800,8.400 259.310,8.400 259.933 C 8.400 260.557,8.533 261.199,8.695 261.362 C 8.857 261.524,9.002 261.869,9.016 262.128 C 9.058 262.874,9.618 264.942,9.957 265.600 C 10.127 265.930,10.515 267.055,10.820 268.100 C 11.125 269.145,11.515 270.000,11.687 270.000 C 11.859 270.000,12.000 270.439,12.000 270.976 C 12.000 271.513,12.180 272.064,12.400 272.200 C 12.620 272.336,12.800 272.887,12.800 273.424 C 12.800 273.961,12.980 274.400,13.200 274.400 C 13.420 274.400,13.600 274.760,13.600 275.200 C 13.600 275.640,13.747 276.000,13.928 276.000 C 14.108 276.000,14.500 276.900,14.800 278.000 C 15.100 279.100,15.492 280.000,15.672 280.000 C 15.853 280.000,16.000 280.360,16.000 280.800 C 16.000 281.240,16.180 281.600,16.400 281.600 C 16.620 281.600,16.800 281.872,16.800 282.205 C 16.800 282.538,16.961 283.123,17.158 283.505 C 17.355 283.887,18.119 285.460,18.856 287.000 C 19.593 288.540,20.332 289.860,20.498 289.933 C 20.664 290.007,20.800 290.412,20.800 290.833 C 20.800 291.255,20.980 291.600,21.200 291.600 C 21.420 291.600,21.600 291.960,21.600 292.400 C 21.600 292.840,21.780 293.200,22.000 293.200 C 22.220 293.200,22.400 293.478,22.400 293.817 C 22.400 294.156,22.760 294.820,23.200 295.292 C 23.640 295.764,24.000 296.387,24.000 296.675 C 24.000 296.964,24.180 297.200,24.400 297.200 C 24.620 297.200,24.800 297.491,24.800 297.846 C 24.800 298.562,26.826 302.523,27.300 302.733 C 27.465 302.807,27.600 303.044,27.600 303.261 C 27.600 303.478,28.140 304.441,28.800 305.400 C 29.460 306.359,30.000 307.297,30.000 307.484 C 30.000 307.671,30.360 308.083,30.800 308.400 C 31.240 308.717,31.600 309.257,31.600 309.600 C 31.600 309.943,31.960 310.483,32.400 310.800 C 32.840 311.117,33.200 311.657,33.200 312.000 C 33.200 312.343,33.560 312.883,34.000 313.200 C 34.440 313.517,34.800 314.054,34.800 314.392 C 34.800 314.731,35.160 315.232,35.600 315.507 C 36.040 315.782,36.400 316.249,36.400 316.544 C 36.400 316.840,36.940 317.646,37.600 318.337 C 38.260 319.028,38.800 319.748,38.800 319.937 C 38.800 320.126,39.340 320.846,40.000 321.537 C 40.660 322.228,41.200 322.892,41.200 323.013 C 41.200 323.264,41.505 323.650,43.199 325.542 C 43.859 326.281,44.400 327.041,44.400 327.232 C 44.400 327.423,45.167 328.349,46.105 329.289 C 47.043 330.230,48.255 331.630,48.798 332.400 C 49.341 333.170,51.588 335.556,53.792 337.702 C 55.997 339.848,57.929 341.738,58.086 341.902 C 62.866 346.879,67.256 351.200,67.534 351.200 C 67.731 351.200,68.923 352.190,70.182 353.400 C 71.442 354.610,72.613 355.600,72.785 355.600 C 72.958 355.600,73.875 356.310,74.824 357.177 C 75.773 358.045,76.665 358.684,76.805 358.597 C 76.946 358.510,77.647 359.060,78.363 359.819 C 79.079 360.579,79.876 361.200,80.134 361.200 C 80.392 361.200,81.112 361.740,81.735 362.400 C 82.358 363.060,83.083 363.600,83.346 363.600 C 83.608 363.600,84.083 363.960,84.400 364.400 C 84.717 364.840,85.257 365.200,85.600 365.200 C 85.943 365.200,86.483 365.560,86.800 366.000 C 87.117 366.440,87.657 366.800,88.000 366.800 C 88.343 366.800,88.883 367.160,89.200 367.600 C 89.517 368.040,90.057 368.400,90.400 368.400 C 90.743 368.400,91.283 368.760,91.600 369.200 C 91.917 369.640,92.329 370.000,92.516 370.000 C 92.703 370.000,93.641 370.540,94.600 371.200 C 95.559 371.860,96.522 372.400,96.739 372.400 C 96.956 372.400,97.193 372.535,97.267 372.700 C 97.477 373.174,101.438 375.200,102.154 375.200 C 102.509 375.200,102.800 375.380,102.800 375.600 C 102.800 375.820,103.078 376.000,103.417 376.000 C 103.756 376.000,104.420 376.360,104.892 376.800 C 105.364 377.240,105.987 377.600,106.275 377.600 C 106.564 377.600,106.800 377.780,106.800 378.000 C 106.800 378.220,107.160 378.400,107.600 378.400 C 108.040 378.400,108.400 378.580,108.400 378.800 C 108.400 379.020,108.745 379.200,109.167 379.200 C 109.588 379.200,109.993 379.335,110.067 379.500 C 110.287 379.995,115.254 382.400,116.056 382.400 C 116.465 382.400,116.800 382.580,116.800 382.800 C 116.800 383.020,117.160 383.200,117.600 383.200 C 118.040 383.200,118.400 383.380,118.400 383.600 C 118.400 383.820,118.760 384.000,119.200 384.000 C 119.640 384.000,120.000 384.180,120.000 384.400 C 120.000 384.620,120.349 384.800,120.776 384.800 C 121.203 384.800,121.664 384.980,121.800 385.200 C 121.936 385.420,122.487 385.600,123.024 385.600 C 123.561 385.600,124.000 385.780,124.000 386.000 C 124.000 386.220,124.272 386.400,124.604 386.400 C 124.937 386.400,125.972 386.741,126.904 387.157 C 128.608 387.917,129.856 388.418,130.600 388.640 C 131.898 389.028,134.025 389.892,134.259 390.126 C 134.410 390.277,134.943 390.400,135.443 390.400 C 135.943 390.400,136.474 390.596,136.622 390.835 C 136.769 391.074,137.230 391.181,137.645 391.072 C 138.060 390.964,138.500 391.038,138.623 391.238 C 138.746 391.437,139.377 391.600,140.024 391.600 C 140.671 391.600,141.200 391.780,141.200 392.000 C 141.200 392.220,141.830 392.400,142.600 392.400 C 143.370 392.400,144.000 392.580,144.000 392.800 C 144.000 393.020,144.529 393.200,145.176 393.200 C 145.823 393.200,146.464 393.380,146.600 393.600 C 146.736 393.820,147.467 394.000,148.224 394.000 C 148.981 394.000,149.600 394.180,149.600 394.400 C 149.600 394.620,150.320 394.800,151.200 394.800 C 152.080 394.800,152.800 394.980,152.800 395.200 C 152.800 395.420,153.700 395.600,154.800 395.600 C 155.900 395.600,156.800 395.780,156.800 396.000 C 156.800 396.220,157.520 396.400,158.400 396.400 C 159.280 396.400,160.000 396.580,160.000 396.800 C 160.000 397.020,160.990 397.200,162.200 397.200 C 163.410 397.200,164.400 397.380,164.400 397.600 C 164.400 397.822,165.467 398.000,166.800 398.000 C 168.133 398.000,169.200 398.178,169.200 398.400 C 169.200 398.628,170.389 398.800,171.967 398.800 C 173.488 398.800,174.793 398.955,174.867 399.145 C 174.940 399.335,177.759 399.619,181.131 399.776 C 188.656 400.127,188.899 400.965,178.538 390.825 C 153.045 365.874,130.458 343.212,130.844 342.973 C 131.084 342.824,162.358 342.825,200.341 342.974 C 251.152 343.174,269.559 343.127,270.000 342.797 C 270.478 342.439,270.404 342.403,269.633 342.622 C 269.102 342.773,237.377 342.762,199.133 342.597 L 129.600 342.299 129.503 303.649 C 129.437 277.214,129.373 272.374,129.300 288.332 C 129.232 303.242,129.053 311.617,128.804 311.532 C 128.441 311.409,117.182 300.237,94.800 277.792 C 89.630 272.607,85.760 268.481,86.200 268.622 C 86.640 268.764,86.190 268.387,85.200 267.785 C 82.575 266.187,80.606 264.176,79.599 262.060 C 79.111 261.037,78.536 259.861,78.320 259.447 C 76.983 256.884,78.947 246.000,80.746 246.000 C 81.810 246.000,82.056 244.005,82.015 235.690 L 81.973 227.061 78.887 223.830 C 77.190 222.054,74.751 219.726,73.468 218.658 C 69.572 215.416,65.600 209.361,64.441 204.900 C 64.199 203.965,63.820 202.504,63.600 201.654 C 61.129 192.100,66.235 179.475,75.331 172.649 C 77.618 170.932,77.878 170.894,78.467 172.187 C 78.715 172.731,79.054 173.090,79.221 172.987 C 79.889 172.574,102.588 196.299,102.847 197.680 C 103.048 198.751,103.105 198.578,103.147 196.760 C 103.213 193.960,102.665 192.289,100.942 190.029 C 99.498 188.135,99.494 187.933,100.837 185.000 C 101.240 184.120,102.729 180.706,104.146 177.413 C 105.563 174.120,106.911 171.363,107.142 171.286 C 108.251 170.916,114.813 176.938,116.749 180.102 C 117.255 180.929,117.838 181.500,118.045 181.372 C 118.252 181.244,120.847 183.546,123.811 186.488 L 129.200 191.836 129.200 198.638 C 129.200 203.395,129.344 205.584,129.680 205.920 C 130.044 206.284,135.701 206.377,153.180 206.305 L 176.200 206.210 153.000 206.005 L 129.800 205.800 129.800 169.800 L 129.800 133.800 133.404 133.686 L 137.007 133.573 118.142 114.733 C 107.766 104.372,99.034 95.745,98.738 95.562 C 98.041 95.132,97.711 72.630,98.390 71.813 C 98.732 71.400,118.485 71.245,199.707 71.014 L 300.600 70.728 348.995 119.164 C 375.612 145.804,397.527 167.600,397.695 167.600 C 398.150 167.600,398.064 164.487,397.600 164.200 C 397.380 164.064,397.200 163.063,397.200 161.976 C 397.200 160.889,397.020 160.000,396.800 160.000 C 396.580 160.000,396.400 159.280,396.400 158.400 C 396.400 157.520,396.220 156.800,396.000 156.800 C 395.780 156.800,395.600 155.900,395.600 154.800 C 395.600 153.700,395.420 152.800,395.200 152.800 C 394.980 152.800,394.800 152.095,394.800 151.233 C 394.800 150.372,394.626 149.607,394.413 149.533 C 394.200 149.460,393.980 148.801,393.925 148.070 C 393.870 147.338,393.685 146.652,393.513 146.546 C 393.341 146.440,393.200 145.823,393.200 145.176 C 393.200 144.529,393.020 144.000,392.800 144.000 C 392.580 144.000,392.400 143.370,392.400 142.600 C 392.400 141.830,392.220 141.200,392.000 141.200 C 391.780 141.200,391.600 140.762,391.600 140.228 C 391.600 139.241,389.823 133.177,389.161 131.905 C 388.963 131.523,388.800 130.938,388.800 130.605 C 388.800 130.272,388.620 130.000,388.400 130.000 C 388.180 130.000,388.000 129.561,388.000 129.024 C 388.000 128.487,387.820 127.936,387.600 127.800 C 387.380 127.664,387.200 127.113,387.200 126.576 C 387.200 126.039,387.020 125.600,386.800 125.600 C 386.580 125.600,386.400 125.240,386.400 124.800 C 386.400 124.360,386.253 124.000,386.072 124.000 C 385.892 124.000,385.500 123.100,385.200 122.000 C 384.900 120.900,384.508 120.000,384.328 120.000 C 384.147 120.000,384.000 119.640,384.000 119.200 C 384.000 118.760,383.820 118.400,383.600 118.400 C 383.380 118.400,383.200 118.128,383.200 117.795 C 383.200 117.462,383.038 116.877,382.841 116.495 C 382.643 116.113,381.700 114.180,380.745 112.200 C 379.789 110.220,378.871 108.540,378.704 108.467 C 378.537 108.393,378.400 107.988,378.400 107.567 C 378.400 107.145,378.220 106.800,378.000 106.800 C 377.780 106.800,377.600 106.440,377.600 106.000 C 377.600 105.560,377.420 105.200,377.200 105.200 C 376.980 105.200,376.800 104.964,376.800 104.675 C 376.800 104.387,376.440 103.764,376.000 103.292 C 375.560 102.820,375.200 102.225,375.200 101.971 C 375.200 101.533,373.237 97.627,372.802 97.200 C 372.690 97.090,372.345 96.508,372.035 95.907 C 371.726 95.305,371.141 94.458,370.736 94.023 C 370.331 93.589,370.000 92.996,370.000 92.705 C 370.000 92.414,369.640 91.917,369.200 91.600 C 368.760 91.283,368.400 90.743,368.400 90.400 C 368.400 90.057,368.040 89.517,367.600 89.200 C 367.160 88.883,366.800 88.343,366.800 88.000 C 366.800 87.657,366.440 87.117,366.000 86.800 C 365.560 86.483,365.200 85.946,365.200 85.608 C 365.200 85.269,364.840 84.768,364.400 84.493 C 363.960 84.218,363.600 83.751,363.600 83.456 C 363.600 83.160,363.060 82.354,362.400 81.663 C 361.740 80.972,361.200 80.252,361.200 80.063 C 361.200 79.874,360.660 79.154,360.000 78.463 C 359.340 77.772,358.800 77.071,358.800 76.903 C 358.800 76.736,358.080 75.812,357.200 74.849 C 356.320 73.887,355.600 72.946,355.600 72.760 C 355.600 72.574,354.833 71.651,353.895 70.711 C 352.957 69.770,351.756 68.390,351.227 67.644 C 350.699 66.898,348.503 64.558,346.349 62.444 C 344.194 60.330,342.200 58.365,341.916 58.079 C 341.632 57.792,339.276 55.407,336.681 52.779 C 334.086 50.150,331.740 48.000,331.469 48.000 C 331.198 48.000,330.724 47.650,330.415 47.221 C 330.107 46.793,329.707 46.534,329.527 46.645 C 329.347 46.756,329.200 46.633,329.200 46.370 C 329.200 45.864,327.220 44.001,326.682 44.000 C 326.507 44.000,325.930 43.595,325.401 43.100 C 323.796 41.600,323.253 41.200,322.817 41.200 C 322.588 41.200,322.400 41.020,322.400 40.800 C 322.400 40.580,322.100 40.400,321.733 40.400 C 321.367 40.400,321.178 40.289,321.314 40.152 C 321.619 39.848,320.620 38.800,320.025 38.800 C 319.787 38.800,319.028 38.260,318.337 37.600 C 317.646 36.940,316.878 36.400,316.629 36.400 C 316.380 36.400,315.917 36.040,315.600 35.600 C 315.283 35.160,314.743 34.800,314.400 34.800 C 314.057 34.800,313.517 34.440,313.200 34.000 C 312.883 33.560,312.343 33.200,312.000 33.200 C 311.657 33.200,311.117 32.840,310.800 32.400 C 310.483 31.960,309.943 31.600,309.600 31.600 C 309.257 31.600,308.717 31.240,308.400 30.800 C 308.083 30.360,307.671 30.000,307.484 30.000 C 307.297 30.000,306.359 29.460,305.400 28.800 C 304.441 28.140,303.478 27.600,303.261 27.600 C 303.044 27.600,302.807 27.465,302.733 27.300 C 302.523 26.826,298.562 24.800,297.846 24.800 C 297.491 24.800,297.200 24.620,297.200 24.400 C 297.200 24.180,296.964 24.000,296.675 24.000 C 296.387 24.000,295.764 23.640,295.292 23.200 C 294.820 22.760,294.156 22.400,293.817 22.400 C 293.478 22.400,293.200 22.220,293.200 22.000 C 293.200 21.780,292.840 21.600,292.400 21.600 C 291.960 21.600,291.599 21.465,291.599 21.300 C 291.598 21.135,290.608 20.550,289.400 20.000 C 288.192 19.450,287.202 18.865,287.201 18.700 C 287.201 18.535,286.851 18.400,286.424 18.400 C 285.997 18.400,285.536 18.220,285.400 18.000 C 285.264 17.780,284.713 17.600,284.176 17.600 C 283.639 17.600,283.200 17.420,283.200 17.200 C 283.200 16.980,282.840 16.800,282.400 16.800 C 281.960 16.800,281.600 16.620,281.600 16.400 C 281.600 16.180,281.240 16.000,280.800 16.000 C 280.360 16.000,280.000 15.820,280.000 15.600 C 280.000 15.380,279.651 15.200,279.224 15.200 C 278.797 15.200,278.336 15.020,278.200 14.800 C 278.064 14.580,277.513 14.400,276.976 14.400 C 276.439 14.400,276.000 14.220,276.000 14.000 C 276.000 13.780,275.640 13.600,275.200 13.600 C 274.760 13.600,274.400 13.420,274.400 13.200 C 274.400 12.980,273.961 12.800,273.424 12.800 C 272.887 12.800,272.336 12.620,272.200 12.400 C 272.064 12.180,271.513 12.000,270.976 12.000 C 270.439 12.000,270.000 11.859,270.000 11.687 C 270.000 11.515,269.145 11.125,268.100 10.820 C 267.055 10.515,265.930 10.132,265.600 9.970 C 264.462 9.409,260.706 8.400,259.754 8.400 C 259.229 8.400,258.800 8.220,258.800 8.000 C 258.800 7.780,258.170 7.600,257.400 7.600 C 256.630 7.600,256.000 7.420,256.000 7.200 C 256.000 6.980,255.471 6.800,254.824 6.800 C 254.177 6.800,253.536 6.620,253.400 6.400 C 253.264 6.180,252.533 6.000,251.776 6.000 C 251.019 6.000,250.400 5.820,250.400 5.600 C 250.400 5.380,249.680 5.200,248.800 5.200 C 247.920 5.200,247.200 5.020,247.200 4.800 C 247.200 4.580,246.401 4.400,245.424 4.400 C 244.447 4.400,243.536 4.220,243.400 4.000 C 243.264 3.780,242.443 3.600,241.576 3.600 C 240.709 3.600,240.000 3.420,240.000 3.200 C 240.000 2.980,239.010 2.800,237.800 2.800 C 236.590 2.800,235.600 2.620,235.600 2.400 C 235.600 2.178,234.533 2.000,233.200 2.000 C 231.867 2.000,230.800 1.822,230.800 1.600 C 230.800 1.372,229.611 1.200,228.033 1.200 C 226.198 1.200,225.211 1.034,225.103 0.708 C 224.941 0.222,187.291 -0.126,178.300 0.275 M278.194 114.800 L 278.200 134.200 286.000 134.200 L 293.800 134.200 293.806 114.800 L 293.812 95.400 293.702 114.700 L 293.592 134.000 286.000 134.000 L 278.408 134.000 278.298 114.700 L 278.188 95.400 278.194 114.800 M291.386 171.849 L 290.200 172.866 291.472 172.026 L 292.744 171.185 293.372 172.082 C 293.717 172.575,294.000 172.786,294.000 172.551 C 294.000 171.199,292.587 170.820,291.386 171.849 M121.488 193.200 C 121.611 194.410,121.777 195.475,121.856 195.567 C 122.153 195.911,121.930 192.567,121.604 191.800 C 121.392 191.302,121.349 191.831,121.488 193.200 M278.140 196.400 C 278.140 198.270,278.209 199.035,278.293 198.100 C 278.377 197.165,278.377 195.635,278.293 194.700 C 278.209 193.765,278.140 194.530,278.140 196.400 M296.928 196.400 C 296.928 197.830,297.001 198.415,297.089 197.700 C 297.178 196.985,297.178 195.815,297.089 195.100 C 297.001 194.385,296.928 194.970,296.928 196.400 M81.701 196.200 C 81.705 197.080,81.787 197.393,81.883 196.895 C 81.979 196.398,81.975 195.678,81.875 195.295 C 81.775 194.913,81.696 195.320,81.701 196.200 M318.109 196.400 C 318.109 197.390,318.187 197.795,318.282 197.300 C 318.378 196.805,318.378 195.995,318.282 195.500 C 318.187 195.005,318.109 195.410,318.109 196.400 M121.701 198.600 C 121.705 199.480,121.787 199.793,121.883 199.295 C 121.979 198.798,121.975 198.078,121.875 197.695 C 121.775 197.313,121.696 197.720,121.701 198.600 M82.034 198.920 C 81.999 199.656,83.057 202.000,83.424 202.000 C 83.536 202.000,83.417 201.606,83.159 201.123 C 82.901 200.641,82.550 199.786,82.379 199.223 C 82.173 198.543,82.057 198.441,82.034 198.920 M91.705 207.087 C 92.314 207.179,93.214 207.177,93.705 207.082 C 94.197 206.987,93.700 206.911,92.600 206.914 C 91.500 206.917,91.097 206.995,91.705 207.087 M306.500 207.087 C 307.105 207.178,308.095 207.178,308.700 207.087 C 309.305 206.995,308.810 206.920,307.600 206.920 C 306.390 206.920,305.895 206.995,306.500 207.087 M116.288 213.322 C 115.956 213.829,114.747 215.314,113.601 216.622 L 111.518 219.000 113.995 216.406 C 116.236 214.059,117.506 212.400,117.060 212.400 C 116.968 212.400,116.620 212.815,116.288 213.322 M129.378 229.313 C 129.270 229.595,129.231 233.150,129.292 237.213 L 129.402 244.600 129.601 236.700 C 129.796 228.952,129.776 228.277,129.378 229.313 M322.120 254.800 C 322.120 256.010,322.195 256.505,322.287 255.900 C 322.378 255.295,322.378 254.305,322.287 253.700 C 322.195 253.095,322.120 253.590,322.120 254.800 M99.400 267.810 C 98.520 268.352,97.959 268.797,98.153 268.798 C 98.563 268.800,101.200 267.216,101.200 266.967 C 101.200 266.713,101.121 266.751,99.400 267.810 " stroke="none" fill="#fb3b3c" fill-rule="evenodd"></path><path id="path3" d="M149.839 71.100 C 113.136 71.175,98.929 71.327,98.539 71.651 C 98.106 72.010,98.018 74.313,98.094 83.349 L 98.187 94.600 98.300 83.350 L 98.412 72.100 199.565 71.801 C 255.199 71.636,300.916 71.624,301.159 71.774 C 301.464 71.963,301.600 75.613,301.600 83.621 L 301.600 95.194 277.100 95.297 L 252.600 95.400 252.496 114.500 L 252.392 133.600 261.396 133.600 L 270.400 133.600 270.400 170.000 L 270.400 206.400 247.000 206.400 L 223.600 206.400 223.600 217.600 L 223.600 228.800 247.000 228.800 L 270.400 228.800 270.400 236.800 L 270.400 244.800 283.367 244.800 C 290.499 244.800,296.619 244.691,296.967 244.557 C 297.984 244.167,297.919 224.077,296.900 223.751 C 290.102 221.575,284.302 215.754,280.010 206.800 C 279.852 206.470,279.499 205.210,279.226 204.000 C 278.954 202.790,278.566 201.149,278.365 200.354 C 276.671 193.643,280.124 182.703,285.872 176.570 C 290.299 171.848,294.000 169.972,294.000 172.450 C 294.000 172.630,294.433 173.727,294.962 174.888 C 299.843 185.599,300.778 188.388,299.769 189.226 C 293.258 194.629,298.608 206.809,307.487 206.796 C 316.551 206.783,322.018 194.692,315.431 189.226 C 314.537 188.484,314.640 187.574,315.938 184.710 C 316.564 183.330,318.027 179.950,319.189 177.200 C 322.130 170.242,321.965 170.330,326.000 173.536 C 343.291 187.273,338.697 217.232,318.300 223.751 C 317.658 223.956,317.600 224.805,317.600 234.024 L 317.600 244.073 318.922 245.618 C 319.650 246.468,320.460 247.621,320.722 248.181 C 320.985 248.742,321.425 249.678,321.700 250.262 C 322.596 252.164,322.282 258.663,321.181 261.000 C 316.969 269.941,304.559 272.590,297.679 266.016 L 296.407 264.800 283.404 264.800 L 270.400 264.800 270.400 303.773 L 270.400 342.746 269.530 343.022 C 269.051 343.174,237.750 343.164,199.971 343.000 C 162.193 342.836,131.086 342.823,130.845 342.972 C 130.588 343.131,138.755 351.509,150.503 363.137 C 161.556 374.078,174.470 386.864,179.200 391.550 L 187.800 400.070 206.109 399.907 C 219.439 399.787,224.545 399.615,224.889 399.271 C 225.158 399.002,226.525 398.800,228.080 398.800 C 229.627 398.800,230.800 398.627,230.800 398.400 C 230.800 398.178,231.867 398.000,233.200 398.000 C 234.533 398.000,235.600 397.822,235.600 397.600 C 235.600 397.380,236.590 397.200,237.800 397.200 C 239.010 397.200,240.000 397.020,240.000 396.800 C 240.000 396.580,240.720 396.400,241.600 396.400 C 242.480 396.400,243.200 396.220,243.200 396.000 C 243.200 395.780,244.100 395.600,245.200 395.600 C 246.300 395.600,247.200 395.420,247.200 395.200 C 247.200 394.980,247.931 394.800,248.824 394.800 C 249.804 394.800,250.349 394.642,250.200 394.400 C 250.050 394.158,250.604 394.000,251.600 394.000 C 252.596 394.000,253.150 393.842,253.000 393.600 C 252.851 393.358,253.396 393.200,254.376 393.200 C 255.269 393.200,256.000 393.020,256.000 392.800 C 256.000 392.580,256.630 392.400,257.400 392.400 C 258.170 392.400,258.800 392.220,258.800 392.000 C 258.800 391.780,259.246 391.600,259.792 391.600 C 260.337 391.600,262.182 391.129,263.892 390.553 C 265.601 389.977,267.220 389.473,267.488 389.431 C 267.757 389.390,268.102 389.231,268.255 389.078 C 268.408 388.925,268.863 388.800,269.267 388.800 C 269.670 388.800,270.000 388.641,270.000 388.447 C 270.000 388.252,270.405 388.004,270.900 387.894 C 272.404 387.562,275.791 386.219,275.933 385.900 C 276.007 385.735,276.401 385.600,276.810 385.600 C 277.218 385.600,277.664 385.420,277.800 385.200 C 277.936 384.980,278.487 384.800,279.024 384.800 C 279.561 384.800,280.000 384.620,280.000 384.400 C 280.000 384.180,280.360 384.000,280.800 384.000 C 281.240 384.000,281.600 383.820,281.600 383.600 C 281.600 383.380,281.960 383.200,282.400 383.200 C 282.840 383.200,283.200 383.020,283.200 382.800 C 283.200 382.580,283.661 382.400,284.224 382.400 C 284.804 382.400,285.140 382.227,285.000 382.000 C 284.860 381.773,285.196 381.600,285.776 381.600 C 286.339 381.600,286.800 381.420,286.800 381.200 C 286.800 380.980,287.087 380.800,287.437 380.800 C 287.787 380.800,288.531 380.440,289.091 380.000 C 289.650 379.560,290.444 379.200,290.854 379.200 C 291.264 379.200,291.600 379.054,291.600 378.875 C 291.600 378.696,292.230 378.302,293.000 378.000 C 293.770 377.698,294.400 377.304,294.400 377.125 C 294.400 376.946,294.670 376.800,295.000 376.800 C 295.330 376.800,295.600 376.620,295.600 376.400 C 295.600 376.180,295.960 376.000,296.400 376.000 C 296.840 376.000,297.200 375.820,297.200 375.600 C 297.200 375.380,297.479 375.200,297.820 375.200 C 298.491 375.200,300.875 374.070,301.200 373.598 C 301.310 373.438,302.210 372.899,303.200 372.399 C 305.311 371.334,308.542 369.187,308.733 368.723 C 308.807 368.545,309.172 368.400,309.545 368.400 C 309.918 368.400,310.483 368.040,310.800 367.600 C 311.117 367.160,311.631 366.800,311.941 366.800 C 312.252 366.800,312.797 366.484,313.153 366.097 C 313.509 365.711,314.295 365.140,314.900 364.830 C 315.505 364.519,316.000 364.115,316.000 363.932 C 316.000 363.750,316.276 363.600,316.613 363.600 C 316.950 363.600,317.389 363.195,317.588 362.700 C 317.787 362.205,317.961 362.053,317.975 362.361 C 317.992 362.746,318.235 362.651,318.747 362.061 C 319.158 361.588,319.663 361.200,319.869 361.200 C 320.075 361.200,320.931 360.570,321.772 359.800 C 322.613 359.030,323.431 358.400,323.591 358.400 C 323.751 358.400,324.407 357.905,325.050 357.300 C 325.692 356.695,326.902 355.686,327.738 355.057 C 328.575 354.428,329.849 353.324,330.571 352.603 C 331.292 351.881,332.274 351.082,332.752 350.826 C 333.231 350.569,333.500 350.161,333.349 349.918 C 333.194 349.666,333.258 349.589,333.499 349.737 C 333.731 349.881,335.604 348.300,337.660 346.224 C 339.717 344.148,341.638 342.213,341.930 341.925 C 347.808 336.103,351.200 332.582,351.200 332.300 C 351.200 332.106,352.100 331.071,353.200 330.000 C 354.300 328.929,355.200 327.905,355.200 327.726 C 355.201 327.430,355.604 326.912,358.024 324.097 C 358.451 323.600,358.800 323.104,358.800 322.993 C 358.800 322.883,359.340 322.228,360.000 321.537 C 360.660 320.846,361.200 320.126,361.200 319.937 C 361.200 319.748,361.740 319.028,362.400 318.337 C 363.060 317.646,363.600 316.838,363.600 316.541 C 363.600 316.243,363.750 316.000,363.932 316.000 C 364.115 316.000,364.520 315.505,364.832 314.900 C 365.145 314.295,365.715 313.451,366.100 313.025 C 366.485 312.598,366.800 312.053,366.800 311.813 C 366.800 311.573,367.160 311.117,367.600 310.800 C 368.040 310.483,368.400 309.918,368.400 309.545 C 368.400 309.172,368.547 308.807,368.728 308.733 C 369.136 308.567,372.021 304.218,372.796 302.600 C 373.113 301.940,373.702 300.909,374.107 300.308 C 374.512 299.708,374.921 298.808,375.017 298.310 C 375.113 297.811,375.374 297.342,375.596 297.268 C 375.818 297.194,376.000 296.788,376.000 296.367 C 376.000 295.945,376.180 295.600,376.400 295.600 C 376.620 295.600,376.800 295.330,376.800 295.000 C 376.800 294.670,376.980 294.400,377.200 294.400 C 377.420 294.400,377.600 294.130,377.600 293.800 C 377.600 293.470,377.780 293.200,378.000 293.200 C 378.220 293.200,378.400 292.840,378.400 292.400 C 378.400 291.960,378.580 291.600,378.800 291.600 C 379.020 291.600,379.200 291.240,379.200 290.800 C 379.200 290.360,379.380 290.000,379.600 290.000 C 379.820 290.000,380.000 289.640,380.000 289.200 C 380.000 288.760,380.180 288.400,380.400 288.400 C 380.620 288.400,380.800 288.040,380.800 287.600 C 380.800 287.160,380.980 286.800,381.200 286.800 C 381.420 286.800,381.600 286.339,381.600 285.776 C 381.600 285.196,381.773 284.860,382.000 285.000 C 382.227 285.140,382.400 284.804,382.400 284.224 C 382.400 283.661,382.580 283.200,382.800 283.200 C 383.020 283.200,383.200 282.928,383.200 282.595 C 383.200 282.005,383.963 280.402,384.435 280.000 C 384.564 279.890,384.918 278.945,385.222 277.900 C 385.526 276.855,385.915 276.000,386.087 276.000 C 386.259 276.000,386.400 275.550,386.400 275.000 C 386.400 274.450,386.580 274.000,386.800 274.000 C 387.020 274.000,387.200 273.550,387.200 273.000 C 387.200 272.450,387.380 272.000,387.600 272.000 C 387.820 272.000,388.000 271.550,388.000 271.000 C 388.000 270.450,388.180 270.000,388.400 270.000 C 388.620 270.000,388.800 269.638,388.800 269.195 C 388.800 268.752,388.969 268.077,389.175 267.695 C 389.949 266.263,391.600 260.748,391.600 259.596 C 391.600 258.938,391.780 258.400,392.000 258.400 C 392.220 258.400,392.400 257.860,392.400 257.200 C 392.400 256.540,392.580 256.000,392.800 256.000 C 393.020 256.000,393.200 255.370,393.200 254.600 C 393.200 253.830,393.380 253.200,393.600 253.200 C 393.820 253.200,394.000 252.581,394.000 251.824 C 394.000 251.067,394.180 250.336,394.400 250.200 C 394.620 250.064,394.800 249.344,394.800 248.600 C 394.800 247.856,394.980 247.136,395.200 247.000 C 395.420 246.864,395.600 245.853,395.600 244.753 C 395.600 243.521,395.754 242.848,396.000 243.000 C 396.244 243.151,396.400 242.545,396.400 241.447 C 396.400 240.457,396.580 239.536,396.800 239.400 C 397.020 239.264,397.200 238.364,397.200 237.400 C 397.200 236.436,397.380 235.536,397.600 235.400 C 397.820 235.264,398.000 234.173,398.000 232.976 C 398.000 231.779,398.180 230.800,398.400 230.800 C 398.627 230.800,398.800 229.627,398.800 228.080 C 398.800 226.437,398.998 225.162,399.300 224.860 C 399.689 224.471,399.800 218.897,399.800 199.713 C 399.800 180.352,399.693 175.031,399.300 174.900 C 398.964 174.788,398.800 173.824,398.800 171.967 C 398.800 170.389,398.628 169.200,398.400 169.200 C 398.180 169.200,398.000 168.975,398.000 168.700 C 397.999 168.425,376.088 146.285,349.308 119.500 L 300.617 70.800 250.608 70.898 C 223.104 70.953,177.758 71.043,149.839 71.100 M98.400 95.267 C 98.400 95.413,98.577 95.593,98.792 95.667 C 99.008 95.740,107.701 104.305,118.110 114.700 L 137.035 133.600 143.917 133.600 L 150.800 133.600 150.800 114.406 L 150.800 95.211 124.600 95.106 C 110.190 95.048,98.400 95.120,98.400 95.267 M293.904 114.900 L 293.800 134.200 286.000 134.200 L 278.200 134.200 278.096 114.900 L 277.992 95.600 286.000 95.600 L 294.008 95.600 293.904 114.900 M223.600 157.559 C 225.030 157.727,226.650 157.994,227.200 158.151 C 228.095 158.408,228.120 158.388,227.431 157.961 C 227.009 157.698,225.389 157.432,223.831 157.368 L 221.000 157.253 223.600 157.559 M229.899 159.573 C 231.561 160.777,233.275 162.817,233.750 164.157 C 233.898 164.574,234.125 164.808,234.255 164.678 C 234.899 164.034,229.900 158.400,228.684 158.400 C 228.462 158.400,229.008 158.928,229.899 159.573 M215.546 160.012 C 214.967 160.445,214.175 161.295,213.788 161.900 C 213.298 162.664,213.649 162.451,214.938 161.200 C 215.959 160.210,216.795 159.355,216.797 159.300 C 216.803 159.110,216.597 159.228,215.546 160.012 M211.849 165.415 C 211.712 165.773,211.615 166.366,211.634 166.733 C 211.653 167.100,211.827 166.869,212.021 166.220 C 212.398 164.958,212.265 164.333,211.849 165.415 M234.468 165.600 C 234.488 166.639,235.118 168.346,235.132 167.400 C 235.138 166.960,234.989 166.240,234.800 165.800 C 234.589 165.310,234.461 165.232,234.468 165.600 M188.109 169.200 C 188.109 170.190,188.187 170.595,188.282 170.100 C 188.378 169.605,188.378 168.795,188.282 168.300 C 188.187 167.805,188.109 168.210,188.109 169.200 M234.600 171.600 C 234.448 172.291,234.414 172.947,234.524 173.057 C 234.634 173.167,234.848 172.691,235.000 172.000 C 235.152 171.309,235.186 170.653,235.076 170.543 C 234.966 170.433,234.752 170.909,234.600 171.600 M211.634 171.800 C 211.622 172.240,211.787 172.870,212.000 173.200 C 212.514 173.995,212.514 172.996,212.000 171.800 L 211.656 171.000 211.634 171.800 M79.220 173.039 C 79.209 173.280,79.452 174.000,79.761 174.639 C 80.069 175.277,81.515 178.545,82.974 181.901 C 85.726 188.227,85.795 188.676,84.214 189.988 C 80.644 192.952,81.831 201.850,86.185 204.757 C 92.997 209.304,102.800 205.201,102.800 197.803 C 102.800 196.561,79.273 171.853,79.220 173.039 M233.265 175.061 C 229.970 181.468,221.018 182.648,215.280 177.432 C 213.525 175.836,213.251 175.681,214.002 176.706 C 214.975 178.033,215.552 178.488,218.274 180.073 C 220.615 181.436,225.854 181.358,228.600 179.919 C 231.164 178.576,234.958 174.425,234.260 173.727 C 234.148 173.614,233.700 174.215,233.265 175.061 M167.200 176.525 C 167.200 176.594,167.785 177.179,168.500 177.825 L 169.800 179.000 168.625 177.700 C 167.530 176.488,167.200 176.216,167.200 176.525 M117.600 180.560 C 117.600 180.681,118.211 182.034,118.958 183.569 C 119.704 185.103,120.537 187.313,120.808 188.479 C 121.078 189.646,121.457 191.122,121.650 191.760 C 124.758 202.054,116.508 217.615,105.132 222.915 L 102.400 224.188 102.400 234.014 C 102.400 241.123,102.533 243.973,102.880 244.320 C 103.234 244.674,106.763 244.800,116.272 244.800 L 129.183 244.800 129.292 236.900 L 129.400 229.000 152.900 228.897 L 176.400 228.794 176.400 217.597 L 176.400 206.400 153.280 206.400 C 135.831 206.400,130.042 206.282,129.680 205.920 C 129.344 205.584,129.200 203.394,129.200 198.634 L 129.200 191.829 123.400 186.085 C 120.210 182.927,117.600 180.440,117.600 180.560 M76.806 221.412 C 76.803 221.638,77.970 222.983,79.400 224.400 L 82.000 226.977 82.000 235.355 C 82.000 239.963,82.071 243.658,82.157 243.567 C 82.708 242.982,82.558 224.267,82.000 223.987 C 81.670 223.822,80.500 223.265,79.400 222.749 C 78.300 222.233,77.268 221.628,77.106 221.405 C 76.909 221.133,76.810 221.135,76.806 221.412 M103.172 265.434 C 100.192 269.024,92.202 270.703,86.803 268.874 C 85.667 268.489,87.156 270.152,94.803 277.809 C 119.449 302.488,128.447 311.411,128.807 311.533 C 129.061 311.620,129.200 303.388,129.200 288.233 L 129.200 264.800 116.449 264.800 C 105.301 264.800,103.632 264.880,103.172 265.434 " stroke="none" fill="#c4041c" fill-rule="evenodd"></path><path id="path4" d="M278.400 114.800 L 278.400 134.000 286.000 134.000 L 293.600 134.000 293.600 114.800 L 293.600 95.600 286.000 95.600 L 278.400 95.600 278.400 114.800 M179.800 149.979 C 165.291 150.139,159.498 150.335,158.699 150.691 C 154.927 152.371,153.975 152.945,151.949 154.759 C 140.396 165.111,145.247 184.615,160.200 187.934 C 163.925 188.760,238.125 188.754,240.684 187.926 C 252.111 184.232,257.716 171.545,252.668 160.800 C 251.210 157.697,246.734 153.019,244.000 151.742 C 243.010 151.279,241.660 150.654,241.000 150.352 C 239.639 149.729,215.726 149.583,179.800 149.979 M181.200 158.460 C 187.798 161.323,190.228 169.608,186.217 175.565 C 179.703 185.241,164.800 180.823,164.800 169.216 C 164.800 160.535,173.234 155.003,181.200 158.460 M227.254 157.884 C 233.699 159.939,237.169 168.362,234.058 174.400 C 228.228 185.715,211.498 181.858,211.498 169.200 C 211.498 160.823,219.176 155.309,227.254 157.884 " stroke="none" fill="#ed8d1b" fill-rule="evenodd"></path><path id="path5" d="M129.900 133.815 C 129.735 133.990,129.600 134.238,129.601 134.367 C 129.602 134.675,250.341 134.532,260.400 134.212 C 264.690 134.076,268.606 134.066,269.102 134.190 L 270.004 134.416 269.902 169.908 L 269.800 205.400 199.909 205.501 L 130.018 205.602 129.895 198.501 L 129.771 191.400 129.785 198.600 L 129.800 205.800 155.800 206.042 C 191.304 206.374,268.393 206.445,269.502 206.147 L 270.404 205.906 270.302 169.853 L 270.200 133.800 261.600 133.689 C 255.551 133.611,252.736 133.719,252.109 134.052 C 251.210 134.530,188.958 134.348,147.400 133.746 C 137.940 133.609,130.065 133.640,129.900 133.815 M181.200 149.617 C 168.221 149.777,174.167 149.840,200.877 149.823 C 221.929 149.811,238.849 149.678,238.477 149.528 C 237.721 149.224,209.518 149.268,181.200 149.617 M245.200 152.263 C 246.506 153.176,250.845 157.520,251.728 158.800 C 252.414 159.795,252.415 159.793,251.834 158.569 C 251.093 157.006,247.309 153.223,245.545 152.283 C 244.340 151.640,244.304 151.638,245.200 152.263 M150.581 155.700 L 149.000 157.400 150.700 155.819 C 152.281 154.348,152.584 154.000,152.281 154.000 C 152.216 154.000,151.451 154.765,150.581 155.700 M254.250 166.000 C 254.575 168.241,254.802 168.560,254.794 166.767 C 254.791 166.015,254.608 165.130,254.388 164.800 C 254.109 164.381,254.067 164.742,254.250 166.000 M145.344 169.200 C 145.344 171.290,145.412 172.145,145.494 171.100 C 145.576 170.055,145.576 168.345,145.494 167.300 C 145.412 166.255,145.344 167.110,145.344 169.200 M254.459 171.200 C 254.420 171.750,254.289 172.650,254.167 173.200 C 253.976 174.062,254.008 174.102,254.397 173.491 C 254.646 173.102,254.777 172.202,254.689 171.491 C 254.564 170.487,254.513 170.422,254.459 171.200 M75.331 172.650 C 72.693 174.630,71.342 175.915,69.912 177.800 C 69.153 178.801,69.579 178.474,71.049 176.925 C 73.242 174.617,76.915 171.600,77.533 171.600 C 77.800 171.600,78.127 172.254,79.407 175.343 C 79.759 176.192,80.130 176.803,80.233 176.701 C 80.525 176.408,78.078 171.200,77.647 171.200 C 77.435 171.200,76.392 171.852,75.331 172.650 M106.667 171.467 C 106.164 171.969,106.396 172.502,106.926 172.062 C 108.118 171.072,113.171 175.568,116.459 180.544 C 117.746 182.493,118.800 183.916,118.800 183.706 C 118.800 180.886,108.070 170.063,106.667 171.467 M289.927 173.193 C 285.727 176.278,282.140 181.116,279.988 186.600 C 276.712 194.949,278.617 206.548,284.547 214.357 C 287.553 218.315,294.815 223.600,297.249 223.600 C 297.442 223.600,297.600 223.810,297.600 224.067 C 297.600 224.323,297.706 224.428,297.835 224.299 C 297.964 224.169,298.999 224.354,300.135 224.709 C 305.191 226.288,314.729 225.435,319.697 222.958 C 340.735 212.471,342.841 185.329,323.651 172.012 C 322.040 170.894,322.276 170.619,319.698 176.600 C 318.750 178.800,317.725 181.140,317.420 181.800 C 317.115 182.460,316.554 183.810,316.173 184.800 C 315.792 185.790,315.327 186.771,315.140 186.980 C 314.558 187.631,314.760 188.325,315.927 189.686 C 320.060 194.502,318.800 201.428,313.000 205.775 C 312.560 206.105,312.423 206.380,312.695 206.387 C 313.862 206.417,316.639 203.507,317.837 201.000 C 319.621 197.266,318.945 192.389,316.190 189.115 C 315.576 188.386,315.306 187.731,315.506 187.455 C 315.687 187.205,316.438 185.560,317.174 183.800 C 317.911 182.040,319.095 179.250,319.806 177.600 C 320.517 175.950,321.346 174.015,321.647 173.300 C 322.485 171.312,323.562 171.848,328.201 176.564 C 339.124 187.668,338.857 205.723,327.607 216.800 C 324.745 219.618,323.735 220.322,319.500 222.457 C 315.800 224.322,314.955 224.489,308.200 224.688 C 302.834 224.846,301.931 224.740,298.200 223.512 C 296.476 222.945,293.423 221.452,293.267 221.100 C 293.193 220.935,292.921 220.800,292.661 220.800 C 289.867 220.800,282.059 211.010,280.377 205.400 C 280.113 204.520,279.741 203.387,279.549 202.881 C 279.090 201.672,279.098 191.100,279.558 189.919 C 279.755 189.413,280.154 188.190,280.443 187.200 C 282.601 179.824,293.600 168.297,293.600 173.411 C 293.600 173.693,293.943 174.616,294.363 175.462 C 294.782 176.308,295.393 177.630,295.720 178.400 C 296.048 179.170,296.672 180.610,297.108 181.600 C 300.034 188.241,300.041 188.277,298.781 189.417 C 294.135 193.622,296.256 203.400,302.477 206.449 C 305.647 208.003,310.538 208.093,311.881 206.622 C 312.061 206.425,311.851 206.400,311.400 206.565 C 301.321 210.245,292.080 197.334,299.270 189.617 C 300.502 188.294,300.347 187.662,296.815 179.601 C 292.750 170.324,293.228 170.769,289.927 173.193 M105.455 174.255 C 105.076 175.049,104.853 175.786,104.959 175.893 C 105.066 175.999,105.436 175.409,105.782 174.582 C 106.598 172.629,106.349 172.380,105.455 174.255 M253.400 175.600 C 253.250 176.073,253.217 176.550,253.327 176.660 C 253.437 176.770,253.650 176.473,253.800 176.000 C 253.950 175.527,253.983 175.050,253.873 174.940 C 253.763 174.830,253.550 175.127,253.400 175.600 M103.055 179.855 C 102.676 180.649,102.453 181.386,102.559 181.493 C 102.666 181.599,103.036 181.009,103.382 180.182 C 104.198 178.229,103.949 177.980,103.055 179.855 M251.389 179.900 C 251.002 180.505,249.806 181.880,248.732 182.956 C 247.658 184.033,246.843 184.976,246.919 185.053 C 247.150 185.283,250.775 181.491,251.658 180.095 C 252.110 179.383,252.392 178.800,252.285 178.800 C 252.179 178.800,251.775 179.295,251.389 179.900 M81.200 179.351 C 81.200 179.818,82.477 182.457,82.629 182.305 C 82.838 182.095,81.688 179.200,81.395 179.200 C 81.288 179.200,81.200 179.268,81.200 179.351 M150.000 182.125 C 150.000 182.194,150.585 182.779,151.300 183.425 L 152.600 184.600 151.425 183.300 C 150.330 182.088,150.000 181.816,150.000 182.125 M65.423 185.006 C 64.515 187.180,64.676 187.711,65.616 185.640 C 66.055 184.673,66.332 183.798,66.231 183.697 C 66.130 183.596,65.766 184.185,65.423 185.006 M100.623 185.406 C 99.760 187.472,99.874 187.706,100.847 185.862 C 101.293 185.016,101.565 184.232,101.452 184.119 C 101.339 184.006,100.966 184.585,100.623 185.406 M118.991 185.000 C 121.837 192.372,121.837 200.428,118.991 207.800 C 118.778 208.353,118.812 208.477,119.102 208.200 C 122.261 205.190,122.261 187.610,119.102 184.600 C 118.812 184.323,118.778 184.447,118.991 185.000 M83.600 184.928 C 83.600 185.024,83.871 185.752,84.203 186.546 C 84.797 187.966,84.784 188.021,83.403 189.942 C 82.631 191.017,82.007 192.144,82.016 192.448 C 82.025 192.751,82.316 192.460,82.664 191.800 C 83.011 191.140,83.754 190.109,84.314 189.508 C 85.286 188.468,85.308 188.341,84.796 186.788 C 84.351 185.440,83.600 184.271,83.600 184.928 M244.200 186.400 C 243.100 187.052,242.364 187.589,242.565 187.593 C 243.003 187.601,246.400 185.644,246.400 185.383 C 246.400 185.103,246.339 185.131,244.200 186.400 M64.249 188.215 C 64.112 188.573,64.015 189.166,64.034 189.533 C 64.053 189.900,64.227 189.669,64.421 189.020 C 64.798 187.758,64.665 187.133,64.249 188.215 M99.600 187.856 C 99.600 188.095,100.156 188.990,100.835 189.845 C 102.437 191.863,102.617 192.011,101.994 190.800 C 101.712 190.250,101.362 189.710,101.217 189.600 C 101.072 189.490,100.649 188.955,100.277 188.411 C 99.905 187.867,99.600 187.617,99.600 187.856 M240.200 188.000 C 239.429 188.331,239.431 188.345,240.276 188.372 C 240.758 188.387,241.264 188.220,241.400 188.000 C 241.692 187.527,241.301 187.527,240.200 188.000 M183.600 188.804 C 212.562 189.199,237.718 189.240,238.258 188.894 C 238.511 188.732,221.681 188.583,200.858 188.561 C 168.325 188.528,165.898 188.563,183.600 188.804 M63.450 191.650 C 63.122 193.290,63.180 200.407,63.528 201.284 C 63.678 201.659,63.800 199.364,63.800 196.183 C 63.800 189.811,63.805 189.875,63.450 191.650 M81.443 193.833 C 81.112 194.694,81.187 198.023,81.558 198.970 C 81.729 199.407,81.848 198.325,81.832 196.470 C 81.803 192.920,81.800 192.902,81.443 193.833 M103.314 196.600 C 103.317 197.700,103.395 198.103,103.487 197.495 C 103.579 196.886,103.577 195.986,103.482 195.495 C 103.387 195.003,103.311 195.500,103.314 196.600 M102.846 199.067 C 102.821 199.324,102.684 199.864,102.541 200.267 C 102.340 200.836,102.394 200.897,102.779 200.542 C 103.052 200.291,103.189 199.751,103.084 199.342 C 102.979 198.934,102.872 198.810,102.846 199.067 M82.000 200.187 C 82.000 202.526,87.426 207.225,90.084 207.187 C 90.623 207.179,90.127 206.873,88.878 206.441 C 86.480 205.613,84.818 204.215,83.146 201.622 C 82.516 200.644,82.000 199.998,82.000 200.187 M101.085 202.743 C 100.518 203.600,99.402 204.704,98.606 205.196 C 97.810 205.689,97.252 206.186,97.368 206.301 C 97.484 206.417,98.208 206.031,98.978 205.444 C 100.509 204.276,102.628 201.695,102.314 201.381 C 102.206 201.272,101.653 201.885,101.085 202.743 M64.022 203.250 C 63.977 204.604,66.834 211.327,67.676 211.847 C 67.883 211.975,67.470 210.936,66.760 209.539 C 66.050 208.143,65.148 206.010,64.756 204.800 C 64.364 203.590,64.033 202.892,64.022 203.250 M95.200 206.800 L 94.200 207.120 95.276 207.160 C 95.868 207.182,96.464 207.020,96.600 206.800 C 96.881 206.345,96.620 206.345,95.200 206.800 M91.700 207.476 C 92.085 207.576,92.715 207.576,93.100 207.476 C 93.485 207.375,93.170 207.293,92.400 207.293 C 91.630 207.293,91.315 207.375,91.700 207.476 M117.635 210.527 C 114.333 216.329,109.243 220.670,102.400 223.518 C 92.563 227.612,79.659 224.501,71.218 216.000 C 69.330 214.098,68.988 213.854,69.947 215.093 C 76.699 223.822,91.153 228.255,101.000 224.618 C 106.333 222.649,111.792 218.874,114.995 214.942 C 116.920 212.579,119.007 209.274,118.742 209.009 C 118.657 208.923,118.159 209.607,117.635 210.527 M82.491 235.611 C 82.414 242.590,82.298 243.970,81.719 244.811 C 81.075 245.747,81.872 245.425,82.800 244.374 C 85.330 241.509,93.025 239.778,96.681 241.251 C 109.282 246.325,110.431 261.929,98.638 267.806 C 97.541 268.353,96.903 268.797,97.221 268.793 C 99.255 268.769,104.202 264.597,105.587 261.738 C 106.104 260.672,106.678 259.487,106.863 259.105 C 107.308 258.188,107.297 251.781,106.849 250.895 C 106.656 250.513,106.213 249.570,105.865 248.800 C 105.044 246.982,103.878 245.035,103.510 244.870 C 103.351 244.799,102.656 244.212,101.965 243.567 C 101.275 242.922,100.055 242.108,99.255 241.757 C 98.455 241.406,97.402 240.930,96.916 240.700 C 94.383 239.502,87.735 240.374,84.807 242.289 C 84.041 242.790,83.280 243.200,83.116 243.200 C 82.951 243.200,82.764 239.645,82.700 235.300 L 82.582 227.400 82.491 235.611 M129.868 229.066 C 129.721 229.213,129.600 232.693,129.600 236.800 C 129.600 240.907,129.503 244.363,129.385 244.481 C 129.105 244.762,129.105 264.485,129.386 265.229 C 129.504 265.543,129.660 276.330,129.733 289.200 C 129.806 302.070,129.827 298.498,129.780 281.262 C 129.734 264.026,129.790 245.261,129.907 239.562 L 130.118 229.200 200.059 229.200 L 270.000 229.200 270.000 285.600 L 270.000 342.000 199.700 342.073 L 129.400 342.147 198.878 342.522 C 237.091 342.729,268.815 342.783,269.375 342.642 L 270.394 342.386 270.497 293.693 C 270.554 266.912,270.510 241.400,270.400 237.000 L 270.200 229.000 200.168 228.899 C 161.650 228.843,130.015 228.918,129.868 229.066 M302.725 241.151 C 299.285 242.532,296.740 244.344,295.822 246.068 C 295.549 246.580,294.968 247.630,294.531 248.400 C 292.360 252.227,292.318 257.654,294.431 261.445 C 295.991 264.244,296.225 264.606,296.800 265.102 C 311.917 278.140,330.776 259.627,317.889 244.400 C 315.107 241.113,307.098 239.397,302.725 241.151 M311.172 241.265 C 313.673 242.079,314.800 242.587,314.800 242.898 C 314.800 243.064,315.033 243.200,315.317 243.200 C 316.589 243.200,320.800 248.728,320.800 250.399 C 320.800 250.814,320.980 251.264,321.200 251.400 C 321.420 251.536,321.600 253.156,321.600 255.000 C 321.600 256.844,321.420 258.464,321.200 258.600 C 320.980 258.736,320.800 259.199,320.800 259.629 C 320.800 261.734,316.978 266.064,313.803 267.556 C 299.424 274.315,286.805 257.069,297.459 245.219 C 300.715 241.598,306.802 239.842,311.172 241.265 M80.069 246.839 C 79.310 248.054,79.766 248.216,80.555 247.012 C 80.920 246.456,81.078 246.000,80.905 246.000 C 80.733 246.000,80.357 246.378,80.069 246.839 M78.605 249.849 C 78.272 250.646,78.020 251.861,78.044 252.549 C 78.085 253.713,78.110 253.689,78.411 252.200 C 78.588 251.320,78.924 250.105,79.157 249.500 C 79.786 247.865,79.308 248.167,78.605 249.849 M78.000 257.710 C 78.000 258.503,78.169 259.257,78.376 259.385 C 78.601 259.524,78.659 259.009,78.520 258.109 C 78.210 256.100,78.000 255.939,78.000 257.710 M79.621 262.244 C 79.554 263.667,85.893 268.833,87.649 268.785 C 87.952 268.777,87.250 268.294,86.088 267.713 C 83.908 266.621,81.470 264.549,80.307 262.800 C 79.941 262.250,79.633 262.000,79.621 262.244 M88.938 269.294 C 89.192 269.456,90.750 269.588,92.400 269.588 C 94.050 269.588,95.607 269.456,95.861 269.294 C 96.114 269.132,94.556 269.000,92.399 269.000 C 90.241 269.000,88.684 269.132,88.938 269.294 " stroke="none" fill="#d196b4" fill-rule="evenodd"></path></g></svg>